SplineFontDB: 3.0
FontName: RisingSun-Light
FullName: Rising Sun Light Regular
FamilyName: Rising Sun Light
Weight: Light
Copyright: Copyright (c) 2010 - 2013, Matt McInerney (matt@pixelspread.com), Pablo Impallari (impallari@gmail.com), Rodrigo Fuenzalida (hello@rfuenzalida.com) with Reserved Font Name RALEWAY.\nCopyright (c) 2016, Cristiano Sobral (cssobral2013@gmail.com), with Reserved Font Name RISING SUN.
Version: 1.000
ItalicAngle: 0
UnderlinePosition: -100
UnderlineWidth: 50
Ascent: 800
Descent: 200
InvalidEm: 0
sfntRevision: 0x00010000
LayerCount: 2
Layer: 0 1 "Back" 1
Layer: 1 1 "Fore" 0
XUID: [1021 368 144034212 28442]
StyleMap: 0x0000
FSType: 4
OS2Version: 3
OS2_WeightWidthSlopeOnly: 0
OS2_UseTypoMetrics: 0
CreationTime: 1380014460
ModificationTime: 1473778512
PfmFamily: 17
TTFWeight: 300
TTFWidth: 5
LineGap: 0
VLineGap: 0
Panose: 2 11 4 3 3 1 1 6 0 3
OS2TypoAscent: 800
OS2TypoAOffset: 0
OS2TypoDescent: -200
OS2TypoDOffset: 0
OS2TypoLinegap: 0
OS2WinAscent: 936
OS2WinAOffset: 0
OS2WinDescent: 243
OS2WinDOffset: 0
HheadAscent: 936
HheadAOffset: 0
HheadDescent: -243
HheadDOffset: 0
OS2SubXSize: 700
OS2SubYSize: 650
OS2SubXOff: 0
OS2SubYOff: 140
OS2SupXSize: 700
OS2SupYSize: 650
OS2SupXOff: 0
OS2SupYOff: 477
OS2StrikeYSize: 50
OS2StrikeYPos: 250
OS2CapHeight: 710
OS2XHeight: 520
OS2Vendor: 'pyrs'
OS2CodePages: 20000097.00000000
OS2UnicodeRanges: a00002ff.5000205b.00000000.00000000
Lookup: 1 0 0 "'aalt' Access All Alternates in Latin lookup 0" { "'aalt' Access All Alternates in Latin lookup 0 subtable"  } ['aalt' ('latn' <'dflt' > ) ]
Lookup: 3 0 0 "'aalt' Access All Alternates in Latin lookup 1" { "'aalt' Access All Alternates in Latin lookup 1 subtable"  } ['aalt' ('latn' <'dflt' > ) ]
Lookup: 1 0 0 "'smcp' Lowercase to Small Capitals in Latin lookup 2" { "'smcp' Lowercase to Small Capitals in Latin lookup 2 subtable"  } ['smcp' ('latn' <'dflt' > ) ]

StartChar: exclam
Encoding: 33 33 5
Width: 243
GlyphClass: 2
Flags: W
LayerCount: 2
Fore
SplineSet
96 218 m 1,0,-1
 96 717 l 1,1,-1
 147 717 l 1,2,-1
 147 218 l 1,3,-1
 96 218 l 1,0,-1
96 0 m 1,4,-1
 96 102 l 1,5,-1
 147 102 l 1,6,-1
 147 0 l 1,7,-1
 96 0 l 1,4,-1
EndSplineSet
EndChar

StartChar: quotedbl
Encoding: 34 34 6
Width: 264
GlyphClass: 2
Flags: W
LayerCount: 2
Fore
SplineSet
70 540 m 1,0,-1
 70 714 l 1,1,-1
 115 714 l 1,2,-1
 115 540 l 1,3,-1
 70 540 l 1,0,-1
149 540 m 1,4,-1
 149 714 l 1,5,-1
 193 714 l 1,6,-1
 193 540 l 1,7,-1
 149 540 l 1,4,-1
EndSplineSet
EndChar

StartChar: numbersign
Encoding: 35 35 7
Width: 669
GlyphClass: 2
Flags: W
LayerCount: 2
Fore
SplineSet
631 466 m 1,0,-1
 506 466 l 1,1,-1
 455 253 l 1,2,-1
 589 253 l 1,3,-1
 589 212 l 1,4,-1
 445 212 l 1,5,-1
 393 0 l 1,6,-1
 349 0 l 1,7,-1
 402 212 l 1,8,-1
 194 212 l 1,9,-1
 142 0 l 1,10,-1
 98 0 l 1,11,-1
 151 212 l 1,12,-1
 38 212 l 1,13,-1
 38 253 l 1,14,-1
 160 253 l 1,15,-1
 212 466 l 1,16,-1
 79 466 l 1,17,-1
 79 505 l 1,18,-1
 222 505 l 1,19,-1
 271 710 l 1,20,-1
 315 710 l 1,21,-1
 265 505 l 1,22,-1
 473 505 l 1,23,-1
 522 710 l 1,24,-1
 566 710 l 1,25,-1
 516 505 l 1,26,-1
 631 505 l 1,27,-1
 631 466 l 1,0,-1
412 253 m 1,28,-1
 463 466 l 1,29,-1
 255 466 l 1,30,-1
 203 253 l 1,31,-1
 412 253 l 1,28,-1
EndSplineSet
EndChar

StartChar: dollar
Encoding: 36 36 8
Width: 617
GlyphClass: 2
Flags: W
LayerCount: 2
Fore
SplineSet
513 592 m 1,0,1
 445 668 445 668 324 669 c 1,2,-1
 324 378 l 1,3,-1
 327 378 l 1,4,5
 384 366 384 366 430.5 351.5 c 128,-1,6
 477 337 477 337 509.5 315 c 128,-1,7
 542 293 542 293 559.5 261 c 128,-1,8
 577 229 577 229 577 182 c 256,9,10
 577 135 577 135 559 100 c 128,-1,11
 541 65 541 65 508 41.5 c 128,-1,12
 475 18 475 18 429 6 c 128,-1,13
 383 -6 383 -6 327 -6 c 1,14,-1
 327 -99 l 1,15,-1
 296 -99 l 1,16,-1
 296 -5 l 1,17,18
 147 3 147 3 42 100 c 1,19,-1
 69 141 l 1,20,21
 110 98 110 98 168 71 c 128,-1,22
 226 44 226 44 298 39 c 1,23,-1
 298 334 l 1,24,25
 242 346 242 346 198.5 359.5 c 128,-1,26
 155 373 155 373 126 393.5 c 128,-1,27
 97 414 97 414 82 443 c 128,-1,28
 67 472 67 472 67 516 c 0,29,30
 67 561 67 561 83.5 597 c 128,-1,31
 100 633 100 633 130 658 c 128,-1,32
 160 683 160 683 202.5 697.5 c 128,-1,33
 245 712 245 712 296 714 c 1,34,-1
 296 815 l 1,35,-1
 327 815 l 1,36,-1
 327 715 l 1,37,38
 393 713 393 713 445 692.5 c 128,-1,39
 497 672 497 672 539 632 c 1,40,-1
 513 592 l 1,0,1
523 176 m 0,41,42
 523 209 523 209 510.5 233 c 128,-1,43
 498 257 498 257 473.5 274.5 c 128,-1,44
 449 292 449 292 411.5 304.5 c 128,-1,45
 374 317 374 317 324 329 c 1,46,-1
 324 39 l 1,47,-1
 325 39 l 2,48,49
 418 39 418 39 470.5 73 c 128,-1,50
 523 107 523 107 523 176 c 0,41,42
119 523 m 0,51,52
 119 491 119 491 129 469.5 c 128,-1,53
 139 448 139 448 161 432.5 c 128,-1,54
 183 417 183 417 217 405.5 c 128,-1,55
 251 394 251 394 298 384 c 1,56,-1
 298 668 l 1,57,58
 204 664 204 664 161.5 625 c 128,-1,59
 119 586 119 586 119 523 c 0,51,52
EndSplineSet
EndChar

StartChar: percent
Encoding: 37 37 9
Width: 698
GlyphClass: 2
Flags: W
LayerCount: 2
Fore
SplineSet
188 437 m 256,0,1
 158 437 158 437 131.5 448 c 128,-1,2
 105 459 105 459 85.5 478 c 128,-1,3
 66 497 66 497 54.5 523 c 128,-1,4
 43 549 43 549 43 578 c 0,5,6
 43 608 43 608 54.5 633.5 c 128,-1,7
 66 659 66 659 85.5 678.5 c 128,-1,8
 105 698 105 698 131.5 709 c 128,-1,9
 158 720 158 720 188 720 c 256,10,11
 218 720 218 720 244.5 709 c 128,-1,12
 271 698 271 698 290.5 678.5 c 128,-1,13
 310 659 310 659 321.5 633.5 c 128,-1,14
 333 608 333 608 333 578 c 0,15,16
 333 549 333 549 321.5 523 c 128,-1,17
 310 497 310 497 290.5 478 c 128,-1,18
 271 459 271 459 244.5 448 c 128,-1,19
 218 437 218 437 188 437 c 256,0,1
188 469 m 0,20,21
 210 469 210 469 229.5 478 c 128,-1,22
 249 487 249 487 263 502 c 128,-1,23
 277 517 277 517 285.5 537 c 128,-1,24
 294 557 294 557 294 578 c 0,25,26
 294 601 294 601 285.5 621 c 128,-1,27
 277 641 277 641 262 656 c 128,-1,28
 247 671 247 671 228 679.5 c 128,-1,29
 209 688 209 688 188 688 c 0,30,31
 166 688 166 688 147 679 c 128,-1,32
 128 670 128 670 113.5 655 c 128,-1,33
 99 640 99 640 91 620 c 128,-1,34
 83 600 83 600 83 578 c 0,35,36
 83 555 83 555 91.5 535.5 c 128,-1,37
 100 516 100 516 114 501 c 128,-1,38
 128 486 128 486 147.5 477.5 c 128,-1,39
 167 469 167 469 188 469 c 0,20,21
510 -10 m 256,40,41
 480 -10 480 -10 453.5 1 c 128,-1,42
 427 12 427 12 407.5 31.5 c 128,-1,43
 388 51 388 51 376.5 76.5 c 128,-1,44
 365 102 365 102 365 132 c 0,45,46
 365 161 365 161 376.5 187 c 128,-1,47
 388 213 388 213 407.5 232 c 128,-1,48
 427 251 427 251 453.5 262 c 128,-1,49
 480 273 480 273 510 273 c 256,50,51
 540 273 540 273 566.5 262 c 128,-1,52
 593 251 593 251 612.5 232 c 128,-1,53
 632 213 632 213 643.5 187 c 128,-1,54
 655 161 655 161 655 132 c 0,55,56
 655 102 655 102 643.5 76.5 c 128,-1,57
 632 51 632 51 612.5 31.5 c 128,-1,58
 593 12 593 12 566.5 1 c 128,-1,59
 540 -10 540 -10 510 -10 c 256,40,41
510 22 m 256,60,61
 532 22 532 22 551.5 31 c 128,-1,62
 571 40 571 40 585 55 c 128,-1,63
 599 70 599 70 607.5 90 c 128,-1,64
 616 110 616 110 616 132 c 256,65,66
 616 154 616 154 607.5 174 c 128,-1,67
 599 194 599 194 584 209 c 128,-1,68
 569 224 569 224 550 232.5 c 128,-1,69
 531 241 531 241 510 241 c 0,70,71
 488 241 488 241 469 232 c 128,-1,72
 450 223 450 223 435.5 208 c 128,-1,73
 421 193 421 193 413 173 c 128,-1,74
 405 153 405 153 405 132 c 0,75,76
 405 109 405 109 413 89 c 128,-1,77
 421 69 421 69 435.5 54 c 128,-1,78
 450 39 450 39 469 30.5 c 128,-1,79
 488 22 488 22 510 22 c 256,60,61
59 21 m 1,80,-1
 338 365 l 1,81,-1
 612 713 l 1,82,-1
 640 690 l 1,83,-1
 361 345 l 1,84,-1
 86 -3 l 1,85,-1
 59 21 l 1,80,-1
EndSplineSet
EndChar

StartChar: ampersand
Encoding: 38 38 10
Width: 655
GlyphClass: 2
Flags: W
LayerCount: 2
Fore
SplineSet
581 0 m 1,0,-1
 490 95 l 1,1,2
 449 47 449 47 394 18.5 c 128,-1,3
 339 -10 339 -10 272 -10 c 0,4,5
 228 -10 228 -10 187.5 3 c 128,-1,6
 147 16 147 16 116 40.5 c 128,-1,7
 85 65 85 65 67 99.5 c 128,-1,8
 49 134 49 134 49 178 c 0,9,10
 49 214 49 214 61.5 244.5 c 128,-1,11
 74 275 74 275 95.5 300.5 c 128,-1,12
 117 326 117 326 145.5 349 c 128,-1,13
 174 372 174 372 206 393 c 1,14,15
 178 423 178 423 158.5 447.5 c 128,-1,16
 139 472 139 472 127 492 c 128,-1,17
 115 512 115 512 109.5 530.5 c 128,-1,18
 104 549 104 549 104 567 c 0,19,20
 104 598 104 598 117.5 625.5 c 128,-1,21
 131 653 131 653 154 674 c 128,-1,22
 177 695 177 695 209 707 c 128,-1,23
 241 719 241 719 278 719 c 0,24,25
 312 719 312 719 341 708.5 c 128,-1,26
 370 698 370 698 391.5 680 c 128,-1,27
 413 662 413 662 425 637 c 128,-1,28
 437 612 437 612 437 583 c 0,29,30
 437 553 437 553 424 526.5 c 128,-1,31
 411 500 411 500 388.5 476.5 c 128,-1,32
 366 453 366 453 336.5 431.5 c 128,-1,33
 307 410 307 410 275 388 c 1,34,-1
 489 166 l 1,35,36
 511 205 511 205 523 251.5 c 128,-1,37
 535 298 535 298 535 348 c 1,38,-1
 579 348 l 1,39,40
 577 228 577 228 519 134 c 1,41,-1
 648 0 l 1,42,-1
 581 0 l 1,0,-1
278 31 m 0,43,44
 335 31 335 31 381 56.5 c 128,-1,45
 427 82 427 82 461 125 c 1,46,-1
 235 362 l 1,47,48
 206 342 206 342 181.5 322 c 128,-1,49
 157 302 157 302 138 279.5 c 128,-1,50
 119 257 119 257 108.5 231.5 c 128,-1,51
 98 206 98 206 98 176 c 0,52,53
 98 140 98 140 114 113 c 128,-1,54
 130 86 130 86 155.5 67.5 c 128,-1,55
 181 49 181 49 213.5 40 c 128,-1,56
 246 31 246 31 278 31 c 0,43,44
151 568 m 0,57,58
 151 555 151 555 154.5 542 c 128,-1,59
 158 529 158 529 168.5 512 c 128,-1,60
 179 495 179 495 197.5 472.5 c 128,-1,61
 216 450 216 450 245 419 c 1,62,63
 311 462 311 462 351 498.5 c 128,-1,64
 391 535 391 535 391 581 c 0,65,66
 391 623 391 623 359 650.5 c 128,-1,67
 327 678 327 678 277 678 c 0,68,69
 250 678 250 678 227 669 c 128,-1,70
 204 660 204 660 187 645 c 128,-1,71
 170 630 170 630 160.5 610 c 128,-1,72
 151 590 151 590 151 568 c 0,57,58
EndSplineSet
EndChar

StartChar: quotesingle
Encoding: 39 39 11
Width: 185
GlyphClass: 2
Flags: W
LayerCount: 2
Fore
SplineSet
70 539 m 1,0,-1
 70 714 l 1,1,-1
 115 714 l 1,2,-1
 115 539 l 1,3,-1
 70 539 l 1,0,-1
EndSplineSet
EndChar

StartChar: parenleft
Encoding: 40 40 12
Width: 256
GlyphClass: 2
Flags: W
LayerCount: 2
Fore
SplineSet
46 345 m 0,0,1
 46 396 46 396 57 445.5 c 128,-1,2
 68 495 68 495 86.5 543 c 128,-1,3
 105 591 105 591 130 638.5 c 128,-1,4
 155 686 155 686 183 734 c 1,5,-1
 222 714 l 1,6,7
 200 682 200 682 177 637.5 c 128,-1,8
 154 593 154 593 135.5 543 c 128,-1,9
 117 493 117 493 105 441 c 128,-1,10
 93 389 93 389 93 342 c 0,11,12
 93 264 93 264 127 171.5 c 128,-1,13
 161 79 161 79 222 -11 c 1,14,-1
 184 -33 l 1,15,16
 120 61 120 61 83 156 c 128,-1,17
 46 251 46 251 46 345 c 0,0,1
EndSplineSet
EndChar

StartChar: parenright
Encoding: 41 41 13
Width: 255
GlyphClass: 2
Flags: W
LayerCount: 2
Fore
SplineSet
209 345 m 0,0,1
 209 251 209 251 172.5 156 c 128,-1,2
 136 61 136 61 72 -33 c 1,3,-1
 34 -11 l 1,4,5
 94 79 94 79 128 171.5 c 128,-1,6
 162 264 162 264 162 342 c 0,7,8
 162 389 162 389 150 441 c 128,-1,9
 138 493 138 493 119 543 c 128,-1,10
 100 593 100 593 77.5 637.5 c 128,-1,11
 55 682 55 682 33 714 c 1,12,-1
 72 734 l 1,13,14
 100 686 100 686 125 638.5 c 128,-1,15
 150 591 150 591 169 543 c 128,-1,16
 188 495 188 495 198.5 445.5 c 128,-1,17
 209 396 209 396 209 345 c 0,0,1
EndSplineSet
EndChar

StartChar: asterisk
Encoding: 42 42 14
Width: 314
GlyphClass: 2
Flags: W
LayerCount: 2
Fore
SplineSet
90 553 m 1,0,-1
 132 613 l 1,1,-1
 64 635 l 1,2,-1
 73 664 l 1,3,-1
 141 640 l 1,4,-1
 141 712 l 1,5,-1
 172 712 l 1,6,-1
 172 640 l 1,7,-1
 241 664 l 1,8,-1
 250 635 l 1,9,-1
 182 613 l 1,10,-1
 225 553 l 1,11,-1
 199 535 l 1,12,-1
 157 596 l 1,13,-1
 115 535 l 1,14,-1
 90 553 l 1,0,-1
EndSplineSet
EndChar

StartChar: plus
Encoding: 43 43 15
Width: 414
GlyphClass: 2
Flags: W
LayerCount: 2
Fore
SplineSet
360 376 m 1,0,-1
 360 334 l 1,1,-1
 230 334 l 1,2,-1
 230 193 l 1,3,-1
 184 193 l 1,4,-1
 184 334 l 1,5,-1
 53 334 l 1,6,-1
 53 376 l 1,7,-1
 184 376 l 1,8,-1
 184 517 l 1,9,-1
 230 517 l 1,10,-1
 230 376 l 1,11,-1
 360 376 l 1,0,-1
EndSplineSet
EndChar

StartChar: comma
Encoding: 44 44 16
Width: 238
GlyphClass: 2
Flags: W
LayerCount: 2
Fore
SplineSet
97 -81 m 1,0,-1
 112 -2 l 1,1,-1
 94 -2 l 1,2,-1
 94 85 l 1,3,-1
 145 85 l 1,4,-1
 145 -2 l 1,5,-1
 124 -81 l 1,6,-1
 97 -81 l 1,0,-1
EndSplineSet
EndChar

StartChar: hyphen
Encoding: 45 45 17
Width: 422
GlyphClass: 2
Flags: W
LayerCount: 2
Fore
SplineSet
67 249 m 1,0,-1
 67 295 l 1,1,-1
 355 295 l 1,2,-1
 355 249 l 1,3,-1
 67 249 l 1,0,-1
EndSplineSet
EndChar

StartChar: period
Encoding: 46 46 18
Width: 177
GlyphClass: 2
Flags: W
LayerCount: 2
Fore
SplineSet
67 0 m 1,0,-1
 67 85 l 1,1,-1
 111 85 l 1,2,-1
 111 0 l 1,3,-1
 67 0 l 1,0,-1
EndSplineSet
EndChar

StartChar: slash
Encoding: 47 47 19
Width: 579
GlyphClass: 2
Flags: W
LayerCount: 2
Fore
SplineSet
551 710 m 1,0,-1
 84 0 l 1,1,-1
 27 0 l 1,2,-1
 493 710 l 1,3,-1
 551 710 l 1,0,-1
EndSplineSet
EndChar

StartChar: zero
Encoding: 48 48 20
Width: 678
GlyphClass: 2
Flags: W
LayerCount: 2
Fore
SplineSet
339 -10 m 0,0,1
 267 -8 267 -8 213 26 c 128,-1,2
 159 60 159 60 123 112 c 128,-1,3
 87 164 87 164 68.5 227 c 128,-1,4
 50 290 50 290 50 350 c 0,5,6
 50 414 50 414 70 478.5 c 128,-1,7
 90 543 90 543 127.5 594.5 c 128,-1,8
 165 646 165 646 218.5 678 c 128,-1,9
 272 710 272 710 339 710 c 0,10,11
 411 710 411 710 465 675.5 c 128,-1,12
 519 641 519 641 555 588 c 128,-1,13
 591 535 591 535 609.5 471.5 c 128,-1,14
 628 408 628 408 628 350 c 0,15,16
 628 285 628 285 608 221 c 128,-1,17
 588 157 588 157 550.5 106 c 128,-1,18
 513 55 513 55 459.5 23 c 128,-1,19
 406 -9 406 -9 339 -10 c 0,0,1
101 350 m 0,20,21
 103 295 103 295 119 239.5 c 128,-1,22
 135 184 135 184 164.5 139 c 128,-1,23
 194 94 194 94 238 65.5 c 128,-1,24
 282 37 282 37 339 37 c 0,25,26
 399 37 399 37 443.5 67 c 128,-1,27
 488 97 488 97 517.5 143.5 c 128,-1,28
 547 190 547 190 562 245 c 128,-1,29
 577 300 577 300 577 350 c 0,30,31
 577 405 577 405 561 460.5 c 128,-1,32
 545 516 545 516 514 561 c 128,-1,33
 483 606 483 606 439 634.5 c 128,-1,34
 395 663 395 663 339 663 c 0,35,36
 279 663 279 663 234.5 632.5 c 128,-1,37
 190 602 190 602 160 556 c 128,-1,38
 130 510 130 510 115.5 454.5 c 128,-1,39
 101 399 101 399 101 350 c 0,20,21
EndSplineSet
Substitution2: "'lnum' Lining Figures in Latin lookup 3 subtable" zero.lnum
Substitution2: "'aalt' Access All Alternates in Latin lookup 0 subtable" zero.lnum
EndChar

StartChar: one
Encoding: 49 49 21
Width: 394
GlyphClass: 2
Flags: W
LayerCount: 2
Fore
SplineSet
375 46 m 1,0,-1
 375 0 l 1,1,-1
 64 0 l 1,2,-1
 64 46 l 1,3,-1
 198 46 l 1,4,-1
 198 660 l 1,5,6
 190 648 190 648 172 633.5 c 128,-1,7
 154 619 154 619 131.5 605.5 c 128,-1,8
 109 592 109 592 85 583 c 128,-1,9
 61 574 61 574 41 574 c 1,10,-1
 41 621 l 1,11,12
 67 621 67 621 94.5 635.5 c 128,-1,13
 122 650 122 650 145 668 c 128,-1,14
 168 686 168 686 182.5 701.5 c 128,-1,15
 197 717 197 717 198 719 c 2,16,-1
 248 719 l 1,17,-1
 248 46 l 1,18,-1
 375 46 l 1,0,-1
EndSplineSet
Substitution2: "'lnum' Lining Figures in Latin lookup 3 subtable" one.lnum
Substitution2: "'aalt' Access All Alternates in Latin lookup 0 subtable" one.lnum
EndChar

StartChar: two
Encoding: 50 50 22
Width: 574
GlyphClass: 2
Flags: W
LayerCount: 2
Fore
SplineSet
49 0 m 1,0,-1
 49 19 l 2,1,2
 49 83 49 83 63 131 c 128,-1,3
 77 179 77 179 102.5 215 c 128,-1,4
 128 251 128 251 164.5 277 c 128,-1,5
 201 303 201 303 245 323 c 0,6,7
 280 339 280 339 318.5 354 c 128,-1,8
 357 369 357 369 389 389.5 c 128,-1,9
 421 410 421 410 442 440 c 128,-1,10
 463 470 463 470 463 517 c 0,11,12
 463 547 463 547 453 575 c 128,-1,13
 443 603 443 603 422.5 624.5 c 128,-1,14
 402 646 402 646 370.5 659 c 128,-1,15
 339 672 339 672 296 672 c 0,16,17
 254 672 254 672 221 660.5 c 128,-1,18
 188 649 188 649 162.5 632.5 c 128,-1,19
 137 616 137 616 119.5 597.5 c 128,-1,20
 102 579 102 579 91 564 c 1,21,-1
 57 595 l 1,22,23
 60 600 60 600 77 620 c 128,-1,24
 94 640 94 640 124.5 662 c 128,-1,25
 155 684 155 684 199 701.5 c 128,-1,26
 243 719 243 719 301 719 c 0,27,28
 355 719 355 719 396 702 c 128,-1,29
 437 685 437 685 464 657 c 128,-1,30
 491 629 491 629 504.5 592.5 c 128,-1,31
 518 556 518 556 518 517 c 0,32,33
 518 464 518 464 496 427 c 128,-1,34
 474 390 474 390 440 364 c 128,-1,35
 406 338 406 338 366.5 320.5 c 128,-1,36
 327 303 327 303 291 290 c 0,37,38
 231 267 231 267 195 238 c 128,-1,39
 159 209 159 209 140 176.5 c 128,-1,40
 121 144 121 144 115 110.5 c 128,-1,41
 109 77 109 77 109 46 c 1,42,-1
 519 46 l 1,43,-1
 519 0 l 1,44,-1
 49 0 l 1,0,-1
EndSplineSet
Substitution2: "'lnum' Lining Figures in Latin lookup 3 subtable" two.lnum
Substitution2: "'aalt' Access All Alternates in Latin lookup 0 subtable" two.lnum
EndChar

StartChar: three
Encoding: 51 51 23
Width: 584
GlyphClass: 2
Flags: W
LayerCount: 2
Fore
SplineSet
289 -9 m 0,0,1
 240 -9 240 -9 198 3.5 c 128,-1,2
 156 16 156 16 124.5 39 c 128,-1,3
 93 62 93 62 73.5 94 c 128,-1,4
 54 126 54 126 50 164 c 1,5,-1
 84 187 l 1,6,7
 86 158 86 158 102 131 c 128,-1,8
 118 104 118 104 145 83.5 c 128,-1,9
 172 63 172 63 208.5 50.5 c 128,-1,10
 245 38 245 38 289 38 c 0,11,12
 330 38 330 38 365 49 c 128,-1,13
 400 60 400 60 425.5 80 c 128,-1,14
 451 100 451 100 465.5 127 c 128,-1,15
 480 154 480 154 480 187 c 0,16,17
 480 222 480 222 463.5 250.5 c 128,-1,18
 447 279 447 279 416.5 298.5 c 128,-1,19
 386 318 386 318 342.5 328.5 c 128,-1,20
 299 339 299 339 246 339 c 2,21,-1
 211 339 l 1,22,-1
 211 384 l 1,23,-1
 246 384 l 2,24,25
 349 384 349 384 405 418.5 c 128,-1,26
 461 453 461 453 461 520 c 0,27,28
 461 554 461 554 447 582 c 128,-1,29
 433 610 433 610 408.5 630.5 c 128,-1,30
 384 651 384 651 351 662 c 128,-1,31
 318 673 318 673 280 673 c 0,32,33
 213 673 213 673 164 643.5 c 128,-1,34
 115 614 115 614 95 567 c 1,35,-1
 58 599 l 1,36,37
 71 627 71 627 93.5 649 c 128,-1,38
 116 671 116 671 145.5 686.5 c 128,-1,39
 175 702 175 702 209 710.5 c 128,-1,40
 243 719 243 719 280 719 c 0,41,42
 330 719 330 719 373 704 c 128,-1,43
 416 689 416 689 447 662.5 c 128,-1,44
 478 636 478 636 495.5 600 c 128,-1,45
 513 564 513 564 513 522 c 0,46,47
 513 460 513 460 477 420 c 128,-1,48
 441 380 441 380 372 363 c 1,49,50
 408 356 408 356 437.5 339.5 c 128,-1,51
 467 323 467 323 488 299 c 128,-1,52
 509 275 509 275 520.5 245 c 128,-1,53
 532 215 532 215 532 182 c 0,54,55
 532 139 532 139 512.5 104 c 128,-1,56
 493 69 493 69 460 44 c 128,-1,57
 427 19 427 19 383 5 c 128,-1,58
 339 -9 339 -9 289 -9 c 0,0,1
EndSplineSet
Substitution2: "'lnum' Lining Figures in Latin lookup 3 subtable" three.lnum
Substitution2: "'aalt' Access All Alternates in Latin lookup 0 subtable" three.lnum
EndChar

StartChar: four
Encoding: 52 52 24
Width: 562
GlyphClass: 2
Flags: W
LayerCount: 2
Fore
SplineSet
388 0 m 1,0,-1
 388 198 l 1,1,-1
 25 198 l 1,2,-1
 25 242 l 1,3,-1
 403 710 l 1,4,-1
 438 710 l 1,5,-1
 438 244 l 1,6,-1
 526 244 l 1,7,-1
 526 198 l 1,8,-1
 438 198 l 1,9,-1
 438 0 l 1,10,-1
 388 0 l 1,0,-1
82 244 m 1,11,-1
 392 244 l 1,12,-1
 392 630 l 1,13,-1
 82 244 l 1,11,-1
EndSplineSet
Substitution2: "'lnum' Lining Figures in Latin lookup 3 subtable" four.lnum
Substitution2: "'aalt' Access All Alternates in Latin lookup 0 subtable" four.lnum
EndChar

StartChar: five
Encoding: 53 53 25
Width: 554
GlyphClass: 2
Flags: W
LayerCount: 2
Fore
SplineSet
280 449 m 256,0,1
 328 449 328 449 370 432.5 c 128,-1,2
 412 416 412 416 443.5 386 c 128,-1,3
 475 356 475 356 493 314.5 c 128,-1,4
 511 273 511 273 511 224 c 0,5,6
 511 171 511 171 491.5 128 c 128,-1,7
 472 85 472 85 439 54.5 c 128,-1,8
 406 24 406 24 362 7 c 128,-1,9
 318 -10 318 -10 269 -10 c 0,10,11
 193 -10 193 -10 133 28.5 c 128,-1,12
 73 67 73 67 42 130 c 1,13,-1
 79 151 l 1,14,15
 106 99 106 99 157 67.5 c 128,-1,16
 208 36 208 36 269 36 c 0,17,18
 309 36 309 36 344 49.5 c 128,-1,19
 379 63 379 63 404.5 88 c 128,-1,20
 430 113 430 113 445 147.5 c 128,-1,21
 460 182 460 182 460 223 c 0,22,23
 460 263 460 263 445.5 296 c 128,-1,24
 431 329 431 329 406 353 c 128,-1,25
 381 377 381 377 347.5 390.5 c 128,-1,26
 314 404 314 404 275 404 c 0,27,28
 224 404 224 404 179.5 381.5 c 128,-1,29
 135 359 135 359 106 317 c 1,30,-1
 57 317 l 1,31,32
 58 324 58 324 62.5 345 c 128,-1,33
 67 366 67 366 72.5 395 c 128,-1,34
 78 424 78 424 85 458.5 c 128,-1,35
 92 493 92 493 99 528 c 0,36,37
 116 610 116 610 136 710 c 1,38,-1
 476 710 l 1,39,-1
 476 663 l 1,40,-1
 174 663 l 1,41,-1
 119 382 l 1,42,43
 148 414 148 414 190 431.5 c 128,-1,44
 232 449 232 449 280 449 c 256,0,1
EndSplineSet
Substitution2: "'lnum' Lining Figures in Latin lookup 3 subtable" five.lnum
Substitution2: "'aalt' Access All Alternates in Latin lookup 0 subtable" five.lnum
EndChar

StartChar: six
Encoding: 54 54 26
Width: 600
GlyphClass: 2
Flags: W
LayerCount: 2
Fore
SplineSet
556 233 m 0,0,1
 556 182 556 182 537 138 c 128,-1,2
 518 94 518 94 484 61 c 128,-1,3
 450 28 450 28 404.5 9 c 128,-1,4
 359 -10 359 -10 307 -10 c 0,5,6
 252 -10 252 -10 205.5 10 c 128,-1,7
 159 30 159 30 125.5 67 c 128,-1,8
 92 104 92 104 73 157.5 c 128,-1,9
 54 211 54 211 54 279 c 0,10,11
 54 391 54 391 73 473 c 128,-1,12
 92 555 92 555 126 609 c 128,-1,13
 160 663 160 663 207.5 689 c 128,-1,14
 255 715 255 715 312 715 c 0,15,16
 384 715 384 715 439.5 678 c 128,-1,17
 495 641 495 641 522 577 c 1,18,-1
 487 550 l 1,19,20
 467 604 467 604 419 637 c 128,-1,21
 371 670 371 670 312 670 c 0,22,23
 265 670 265 670 226.5 647.5 c 128,-1,24
 188 625 188 625 161 581.5 c 128,-1,25
 134 538 134 538 118.5 475 c 128,-1,26
 103 412 103 412 103 331 c 1,27,28
 114 363 114 363 135 389.5 c 128,-1,29
 156 416 156 416 183.5 435 c 128,-1,30
 211 454 211 454 244 464.5 c 128,-1,31
 277 475 277 475 313 475 c 0,32,33
 364 475 364 475 408 456 c 128,-1,34
 452 437 452 437 485 404 c 128,-1,35
 518 371 518 371 537 327 c 128,-1,36
 556 283 556 283 556 233 c 0,0,1
308 35 m 256,37,38
 349 35 349 35 385.5 50.5 c 128,-1,39
 422 66 422 66 449 93 c 128,-1,40
 476 120 476 120 492 156 c 128,-1,41
 508 192 508 192 508 233 c 256,42,43
 508 274 508 274 492 310 c 128,-1,44
 476 346 476 346 449 373 c 128,-1,45
 422 400 422 400 385.5 416 c 128,-1,46
 349 432 349 432 308 432 c 256,47,48
 267 432 267 432 230.5 416 c 128,-1,49
 194 400 194 400 167 373 c 128,-1,50
 140 346 140 346 124 310 c 128,-1,51
 108 274 108 274 108 233 c 256,52,53
 108 192 108 192 124 156 c 128,-1,54
 140 120 140 120 167 93 c 128,-1,55
 194 66 194 66 230.5 50.5 c 128,-1,56
 267 35 267 35 308 35 c 256,37,38
EndSplineSet
Substitution2: "'lnum' Lining Figures in Latin lookup 3 subtable" six.lnum
Substitution2: "'aalt' Access All Alternates in Latin lookup 0 subtable" six.lnum
EndChar

StartChar: seven
Encoding: 55 55 27
Width: 510
GlyphClass: 2
Flags: W
LayerCount: 2
Fore
SplineSet
430 663 m 1,0,-1
 30 663 l 1,1,-1
 30 710 l 1,2,-1
 510 710 l 1,3,-1
 148 0 l 1,4,-1
 92 0 l 1,5,-1
 430 663 l 1,0,-1
EndSplineSet
Substitution2: "'lnum' Lining Figures in Latin lookup 3 subtable" seven.lnum
Substitution2: "'aalt' Access All Alternates in Latin lookup 0 subtable" seven.lnum
EndChar

StartChar: eight
Encoding: 56 56 28
Width: 589
GlyphClass: 2
Flags: W
LayerCount: 2
Fore
SplineSet
537 194 m 0,0,1
 537 148 537 148 517 111 c 128,-1,2
 497 74 497 74 463.5 47.5 c 128,-1,3
 430 21 430 21 385 7 c 128,-1,4
 340 -7 340 -7 291 -7 c 0,5,6
 238 -7 238 -7 193.5 9.5 c 128,-1,7
 149 26 149 26 117.5 53.5 c 128,-1,8
 86 81 86 81 68.5 118 c 128,-1,9
 51 155 51 155 51 197 c 0,10,11
 51 232 51 232 64 262 c 128,-1,12
 77 292 77 292 98.5 315.5 c 128,-1,13
 120 339 120 339 147 355.5 c 128,-1,14
 174 372 174 372 202 381 c 1,15,16
 176 390 176 390 153.5 405 c 128,-1,17
 131 420 131 420 113.5 439 c 128,-1,18
 96 458 96 458 86 482 c 128,-1,19
 76 506 76 506 76 533 c 0,20,21
 76 576 76 576 95.5 609 c 128,-1,22
 115 642 115 642 146 664.5 c 128,-1,23
 177 687 177 687 216.5 698.5 c 128,-1,24
 256 710 256 710 295 710 c 256,25,26
 334 710 334 710 373 698.5 c 128,-1,27
 412 687 412 687 443 664.5 c 128,-1,28
 474 642 474 642 493.5 609.5 c 128,-1,29
 513 577 513 577 513 534 c 0,30,31
 513 506 513 506 502.5 482.5 c 128,-1,32
 492 459 492 459 475 439.5 c 128,-1,33
 458 420 458 420 434.5 405 c 128,-1,34
 411 390 411 390 386 381 c 1,35,36
 417 370 417 370 445 352.5 c 128,-1,37
 473 335 473 335 493 311 c 128,-1,38
 513 287 513 287 525 257.5 c 128,-1,39
 537 228 537 228 537 194 c 0,0,1
487 198 m 0,40,41
 487 236 487 236 469.5 266 c 128,-1,42
 452 296 452 296 424 316.5 c 128,-1,43
 396 337 396 337 361.5 348 c 128,-1,44
 327 359 327 359 293 359 c 0,45,46
 258 359 258 359 224 347.5 c 128,-1,47
 190 336 190 336 163 315 c 128,-1,48
 136 294 136 294 119 264 c 128,-1,49
 102 234 102 234 102 197 c 0,50,51
 102 159 102 159 119.5 129.5 c 128,-1,52
 137 100 137 100 165 79.5 c 128,-1,53
 193 59 193 59 227.5 48 c 128,-1,54
 262 37 262 37 296 37 c 256,55,56
 330 37 330 37 364.5 48.5 c 128,-1,57
 399 60 399 60 426 81 c 128,-1,58
 453 102 453 102 470 131.5 c 128,-1,59
 487 161 487 161 487 198 c 0,40,41
127 531 m 0,60,61
 127 499 127 499 142.5 475 c 128,-1,62
 158 451 158 451 182 434 c 128,-1,63
 206 417 206 417 235.5 408.5 c 128,-1,64
 265 400 265 400 294 400 c 256,65,66
 323 400 323 400 353 409 c 128,-1,67
 383 418 383 418 407 435 c 128,-1,68
 431 452 431 452 446.5 476.5 c 128,-1,69
 462 501 462 501 462 533 c 0,70,71
 462 564 462 564 447.5 588.5 c 128,-1,72
 433 613 433 613 409.5 629.5 c 128,-1,73
 386 646 386 646 355.5 655 c 128,-1,74
 325 664 325 664 293 664 c 256,75,76
 261 664 261 664 231 655 c 128,-1,77
 201 646 201 646 178 628.5 c 128,-1,78
 155 611 155 611 141 586.5 c 128,-1,79
 127 562 127 562 127 531 c 0,60,61
EndSplineSet
Substitution2: "'lnum' Lining Figures in Latin lookup 3 subtable" eight.lnum
Substitution2: "'aalt' Access All Alternates in Latin lookup 0 subtable" eight.lnum
EndChar

StartChar: nine
Encoding: 57 57 29
Width: 600
GlyphClass: 2
Flags: W
LayerCount: 2
Fore
SplineSet
43 472 m 0,0,1
 43 523 43 523 62.5 567 c 128,-1,2
 82 611 82 611 115.5 644 c 128,-1,3
 149 677 149 677 194.5 696 c 128,-1,4
 240 715 240 715 293 715 c 0,5,6
 348 715 348 715 394 695 c 128,-1,7
 440 675 440 675 474 638 c 128,-1,8
 508 601 508 601 527 547 c 128,-1,9
 546 493 546 493 546 426 c 0,10,11
 546 315 546 315 527 233 c 128,-1,12
 508 151 508 151 474 97 c 128,-1,13
 440 43 440 43 392.5 16.5 c 128,-1,14
 345 -10 345 -10 288 -10 c 0,15,16
 216 -10 216 -10 160.5 27 c 128,-1,17
 105 64 105 64 78 128 c 1,18,-1
 113 155 l 1,19,20
 133 101 133 101 181 68.5 c 128,-1,21
 229 36 229 36 288 36 c 0,22,23
 335 36 335 36 373.5 58.5 c 128,-1,24
 412 81 412 81 439.5 124.5 c 128,-1,25
 467 168 467 168 482 230.5 c 128,-1,26
 497 293 497 293 497 374 c 1,27,28
 486 342 486 342 465 315.5 c 128,-1,29
 444 289 444 289 416.5 270 c 128,-1,30
 389 251 389 251 356 240.5 c 128,-1,31
 323 230 323 230 287 230 c 0,32,33
 236 230 236 230 191.5 249 c 128,-1,34
 147 268 147 268 114 301 c 128,-1,35
 81 334 81 334 62 378 c 128,-1,36
 43 422 43 422 43 472 c 0,0,1
291 671 m 256,37,38
 250 671 250 671 214 655 c 128,-1,39
 178 639 178 639 151 612 c 128,-1,40
 124 585 124 585 108 549 c 128,-1,41
 92 513 92 513 92 473 c 0,42,43
 92 432 92 432 108 395.5 c 128,-1,44
 124 359 124 359 151.5 332 c 128,-1,45
 179 305 179 305 215 289 c 128,-1,46
 251 273 251 273 292 273 c 256,47,48
 333 273 333 273 369.5 289 c 128,-1,49
 406 305 406 305 433.5 332 c 128,-1,50
 461 359 461 359 477 395 c 128,-1,51
 493 431 493 431 493 472 c 0,52,53
 493 512 493 512 477 548.5 c 128,-1,54
 461 585 461 585 433.5 612 c 128,-1,55
 406 639 406 639 369 655 c 128,-1,56
 332 671 332 671 291 671 c 256,37,38
EndSplineSet
Substitution2: "'lnum' Lining Figures in Latin lookup 3 subtable" nine.lnum
Substitution2: "'aalt' Access All Alternates in Latin lookup 0 subtable" nine.lnum
EndChar

StartChar: colon
Encoding: 58 58 30
Width: 177
GlyphClass: 2
Flags: W
LayerCount: 2
Fore
SplineSet
67 432 m 1,0,-1
 67 517 l 1,1,-1
 110 517 l 1,2,-1
 110 432 l 1,3,-1
 67 432 l 1,0,-1
67 0 m 1,4,-1
 67 85 l 1,5,-1
 110 85 l 1,6,-1
 110 0 l 1,7,-1
 67 0 l 1,4,-1
EndSplineSet
EndChar

StartChar: semicolon
Encoding: 59 59 31
Width: 191
GlyphClass: 2
Flags: W
LayerCount: 2
Fore
SplineSet
71 432 m 1,0,-1
 71 517 l 1,1,-1
 115 517 l 1,2,-1
 115 432 l 1,3,-1
 71 432 l 1,0,-1
74 -81 m 1,4,-1
 88 -2 l 1,5,-1
 70 -2 l 1,6,-1
 70 85 l 1,7,-1
 121 85 l 1,8,-1
 121 -2 l 1,9,-1
 101 -81 l 1,10,-1
 74 -81 l 1,4,-1
EndSplineSet
EndChar

StartChar: less
Encoding: 60 60 32
Width: 506
GlyphClass: 2
Flags: W
LayerCount: 2
Fore
SplineSet
34 273 m 1,0,-1
 452 524 l 1,1,-1
 452 470 l 1,2,-1
 106 259 l 1,3,-1
 452 48 l 1,4,-1
 452 -7 l 1,5,-1
 34 243 l 1,6,-1
 34 273 l 1,0,-1
EndSplineSet
EndChar

StartChar: equal
Encoding: 61 61 33
Width: 437
GlyphClass: 2
Flags: W
LayerCount: 2
Fore
SplineSet
69 208 m 1,0,-1
 69 246 l 1,1,-1
 368 246 l 1,2,-1
 368 208 l 1,3,-1
 69 208 l 1,0,-1
69 306 m 1,4,-1
 69 344 l 1,5,-1
 368 344 l 1,6,-1
 368 306 l 1,7,-1
 69 306 l 1,4,-1
EndSplineSet
EndChar

StartChar: greater
Encoding: 62 62 34
Width: 506
GlyphClass: 2
Flags: W
LayerCount: 2
Fore
SplineSet
472 243 m 1,0,-1
 54 -7 l 1,1,-1
 54 48 l 1,2,-1
 399 259 l 1,3,-1
 54 470 l 1,4,-1
 54 524 l 1,5,-1
 472 273 l 1,6,-1
 472 243 l 1,0,-1
EndSplineSet
EndChar

StartChar: question
Encoding: 63 63 35
Width: 473
GlyphClass: 2
Flags: W
LayerCount: 2
Fore
SplineSet
163 193 m 1,0,1
 163 232 163 232 168.5 260 c 128,-1,2
 174 288 174 288 185 308.5 c 128,-1,3
 196 329 196 329 212 343.5 c 128,-1,4
 228 358 228 358 248 370 c 0,5,6
 269 382 269 382 294 394.5 c 128,-1,7
 319 407 319 407 340.5 424.5 c 128,-1,8
 362 442 362 442 376 468 c 128,-1,9
 390 494 390 494 390 533 c 0,10,11
 390 569 390 569 377.5 596 c 128,-1,12
 365 623 365 623 344.5 641 c 128,-1,13
 324 659 324 659 297.5 667.5 c 128,-1,14
 271 676 271 676 243 676 c 0,15,16
 186 676 186 676 140 646 c 128,-1,17
 94 616 94 616 71 568 c 1,18,-1
 35 590 l 1,19,20
 48 621 48 621 70.5 645 c 128,-1,21
 93 669 93 669 120.5 685.5 c 128,-1,22
 148 702 148 702 179.5 710.5 c 128,-1,23
 211 719 211 719 243 719 c 0,24,25
 280 719 280 719 314.5 707 c 128,-1,26
 349 695 349 695 376 671.5 c 128,-1,27
 403 648 403 648 419 612.5 c 128,-1,28
 435 577 435 577 435 530 c 0,29,30
 435 488 435 488 422.5 459 c 128,-1,31
 410 430 410 430 389.5 410 c 128,-1,32
 369 390 369 390 343 375.5 c 128,-1,33
 317 361 317 361 291 349 c 0,34,35
 270 339 270 339 254.5 328.5 c 128,-1,36
 239 318 239 318 228.5 301 c 128,-1,37
 218 284 218 284 212.5 258 c 128,-1,38
 207 232 207 232 207 193 c 1,39,-1
 163 193 l 1,0,1
164 0 m 1,40,-1
 164 98 l 1,41,-1
 208 98 l 1,42,-1
 208 0 l 1,43,-1
 164 0 l 1,40,-1
EndSplineSet
EndChar

StartChar: at
Encoding: 64 64 36
Width: 834
GlyphClass: 2
Flags: W
LayerCount: 2
Fore
SplineSet
416 603 m 0,0,1
 490 603 490 603 555.5 574.5 c 128,-1,2
 621 546 621 546 670.5 495.5 c 128,-1,3
 720 445 720 445 748.5 375 c 128,-1,4
 777 305 777 305 777 222 c 0,5,6
 777 208 777 208 775.5 184.5 c 128,-1,7
 774 161 774 161 769 134.5 c 128,-1,8
 764 108 764 108 754.5 81 c 128,-1,9
 745 54 745 54 729 32.5 c 128,-1,10
 713 11 713 11 689.5 -2.5 c 128,-1,11
 666 -16 666 -16 633 -16 c 0,12,13
 608 -16 608 -16 593 -8.5 c 128,-1,14
 578 -1 578 -1 569.5 12 c 128,-1,15
 561 25 561 25 557.5 42.5 c 128,-1,16
 554 60 554 60 552 79 c 1,17,18
 525 50 525 50 480.5 29 c 128,-1,19
 436 8 436 8 384 8 c 0,20,21
 315 8 315 8 275 45 c 128,-1,22
 235 82 235 82 235 139 c 0,23,24
 235 176 235 176 251.5 201.5 c 128,-1,25
 268 227 268 227 294.5 242 c 128,-1,26
 321 257 321 257 353.5 263.5 c 128,-1,27
 386 270 386 270 419 270 c 0,28,29
 464 270 464 270 498 261.5 c 128,-1,30
 532 253 532 253 549 247 c 1,31,32
 549 285 549 285 543 316.5 c 128,-1,33
 537 348 537 348 523 370.5 c 128,-1,34
 509 393 509 393 484 405.5 c 128,-1,35
 459 418 459 418 422 418 c 0,36,37
 384 418 384 418 347.5 405.5 c 128,-1,38
 311 393 311 393 281 370 c 1,39,-1
 265 401 l 1,40,41
 300 424 300 424 340.5 438.5 c 128,-1,42
 381 453 381 453 426 453 c 0,43,44
 479 453 479 453 510.5 435 c 128,-1,45
 542 417 542 417 558.5 387.5 c 128,-1,46
 575 358 575 358 580 321.5 c 128,-1,47
 585 285 585 285 585 249 c 2,48,-1
 585 111 l 2,49,50
 585 89 585 89 586.5 71 c 128,-1,51
 588 53 588 53 593.5 40.5 c 128,-1,52
 599 28 599 28 609.5 21.5 c 128,-1,53
 620 15 620 15 637 15 c 0,54,55
 669 15 669 15 690.5 37 c 128,-1,56
 712 59 712 59 724.5 90.5 c 128,-1,57
 737 122 737 122 742 158 c 128,-1,58
 747 194 747 194 747 223 c 0,59,60
 747 296 747 296 721.5 360.5 c 128,-1,61
 696 425 696 425 651 472 c 128,-1,62
 606 519 606 519 545.5 546.5 c 128,-1,63
 485 574 485 574 415 574 c 0,64,65
 347 574 347 574 286 548.5 c 128,-1,66
 225 523 225 523 178.5 477 c 128,-1,67
 132 431 132 431 105 368 c 128,-1,68
 78 305 78 305 78 230 c 0,69,70
 78 158 78 158 103.5 94.5 c 128,-1,71
 129 31 129 31 174 -16 c 128,-1,72
 219 -63 219 -63 280 -90 c 128,-1,73
 341 -117 341 -117 411 -117 c 0,74,75
 491 -117 491 -117 564 -79 c 1,76,-1
 576 -106 l 1,77,78
 497 -146 497 -146 411 -146 c 0,79,80
 336 -146 336 -146 270 -117.5 c 128,-1,81
 204 -89 204 -89 154.5 -38.5 c 128,-1,82
 105 12 105 12 76.5 80.5 c 128,-1,83
 48 149 48 149 48 230 c 0,84,85
 48 314 48 314 78.5 382.5 c 128,-1,86
 109 451 109 451 160 500 c 128,-1,87
 211 549 211 549 277.5 576 c 128,-1,88
 344 603 344 603 416 603 c 0,0,1
480 64 m 0,89,90
 502 74 502 74 515.5 87 c 128,-1,91
 529 100 529 100 536.5 114.5 c 128,-1,92
 544 129 544 129 546 143.5 c 128,-1,93
 548 158 548 158 548 173 c 2,94,-1
 548 215 l 1,95,96
 542 216 542 216 530 219.5 c 128,-1,97
 518 223 518 223 501.5 227 c 128,-1,98
 485 231 485 231 463 234.5 c 128,-1,99
 441 238 441 238 416 238 c 0,100,101
 389 238 389 238 363 233 c 128,-1,102
 337 228 337 228 316.5 217 c 128,-1,103
 296 206 296 206 284 187.5 c 128,-1,104
 272 169 272 169 272 141 c 0,105,106
 272 95 272 95 305 68.5 c 128,-1,107
 338 42 338 42 386 42 c 0,108,109
 411 42 411 42 436 48.5 c 128,-1,110
 461 55 461 55 480 64 c 0,89,90
EndSplineSet
EndChar

StartChar: A
Encoding: 65 65 37
Width: 675
GlyphClass: 2
Flags: W
LayerCount: 2
Fore
SplineSet
316 710 m 1,0,-1
 360 710 l 1,1,-1
 660 0 l 1,2,-1
 606 0 l 1,3,-1
 507 234 l 1,4,-1
 168 234 l 1,5,-1
 69 0 l 1,6,-1
 14 0 l 1,7,-1
 316 710 l 1,0,-1
493 276 m 1,8,-1
 338 648 l 1,9,-1
 180 276 l 1,10,-1
 493 276 l 1,8,-1
EndSplineSet
EndChar

StartChar: B
Encoding: 66 66 38
Width: 662
GlyphClass: 2
Flags: W
LayerCount: 2
Fore
SplineSet
616 184 m 0,0,1
 616 145 616 145 601 111.5 c 128,-1,2
 586 78 586 78 560 53 c 128,-1,3
 534 28 534 28 499 14 c 128,-1,4
 464 0 464 0 425 0 c 2,5,-1
 93 0 l 1,6,-1
 93 710 l 1,7,-1
 424 710 l 2,8,9
 461 710 461 710 491 694 c 128,-1,10
 521 678 521 678 542 652.5 c 128,-1,11
 563 627 563 627 574.5 594.5 c 128,-1,12
 586 562 586 562 586 529 c 0,13,14
 586 475 586 475 559 430 c 128,-1,15
 532 385 532 385 484 364 c 1,16,17
 545 346 545 346 580.5 296.5 c 128,-1,18
 616 247 616 247 616 184 c 0,0,1
565 191 m 256,19,20
 565 219 565 219 555 245.5 c 128,-1,21
 545 272 545 272 527 292.5 c 128,-1,22
 509 313 509 313 484.5 325 c 128,-1,23
 460 337 460 337 432 337 c 2,24,-1
 144 337 l 1,25,-1
 144 46 l 1,26,-1
 425 46 l 2,27,28
 455 46 455 46 480.5 58 c 128,-1,29
 506 70 506 70 524.5 90.5 c 128,-1,30
 543 111 543 111 554 137 c 128,-1,31
 565 163 565 163 565 191 c 256,19,20
144 664 m 1,32,-1
 144 380 l 1,33,-1
 404 380 l 2,34,35
 433 380 433 380 457 392 c 128,-1,36
 481 404 481 404 498.5 423.5 c 128,-1,37
 516 443 516 443 526 469 c 128,-1,38
 536 495 536 495 536 522 c 0,39,40
 536 551 536 551 526.5 576.5 c 128,-1,41
 517 602 517 602 500.5 621.5 c 128,-1,42
 484 641 484 641 461 652.5 c 128,-1,43
 438 664 438 664 410 664 c 2,44,-1
 144 664 l 1,32,-1
EndSplineSet
EndChar

StartChar: C
Encoding: 67 67 39
Width: 690
GlyphClass: 2
Flags: W
LayerCount: 2
Fore
SplineSet
44 360 m 0,0,1
 44 424 44 424 66.5 487.5 c 128,-1,2
 89 551 89 551 132 601 c 128,-1,3
 175 651 175 651 237.5 682.5 c 128,-1,4
 300 714 300 714 380 714 c 0,5,6
 475 714 475 714 542 670.5 c 128,-1,7
 609 627 609 627 642 559 c 1,8,-1
 600 535 l 1,9,10
 581 572 581 572 555.5 597 c 128,-1,11
 530 622 530 622 500.5 637.5 c 128,-1,12
 471 653 471 653 439 660 c 128,-1,13
 407 667 407 667 376 667 c 0,14,15
 308 667 308 667 256 639.5 c 128,-1,16
 204 612 204 612 168 568 c 128,-1,17
 132 524 132 524 113.5 468.5 c 128,-1,18
 95 413 95 413 95 357 c 0,19,20
 95 294 95 294 117 237 c 128,-1,21
 139 180 139 180 177 136.5 c 128,-1,22
 215 93 215 93 267 67 c 128,-1,23
 319 41 319 41 379 41 c 0,24,25
 411 41 411 41 445 49 c 128,-1,26
 479 57 479 57 510 74 c 128,-1,27
 541 91 541 91 568 117.5 c 128,-1,28
 595 144 595 144 613 180 c 1,29,-1
 657 159 l 1,30,31
 639 119 639 119 608 88 c 128,-1,32
 577 57 577 57 539 36 c 128,-1,33
 501 15 501 15 458.5 4.5 c 128,-1,34
 416 -6 416 -6 375 -6 c 0,35,36
 302 -6 302 -6 241.5 26 c 128,-1,37
 181 58 181 58 137 109.5 c 128,-1,38
 93 161 93 161 68.5 226.5 c 128,-1,39
 44 292 44 292 44 360 c 0,0,1
EndSplineSet
EndChar

StartChar: D
Encoding: 68 68 40
Width: 713
GlyphClass: 2
Flags: W
LayerCount: 2
Fore
SplineSet
93 0 m 1,0,-1
 93 710 l 1,1,-1
 329 710 l 2,2,3
 413 710 413 710 476.5 682 c 128,-1,4
 540 654 540 654 582 606 c 128,-1,5
 624 558 624 558 645 493.5 c 128,-1,6
 666 429 666 429 666 356 c 0,7,8
 666 275 666 275 642.5 209.5 c 128,-1,9
 619 144 619 144 575 97.5 c 128,-1,10
 531 51 531 51 468.5 25.5 c 128,-1,11
 406 0 406 0 329 0 c 2,12,-1
 93 0 l 1,0,-1
615 356 m 0,13,14
 615 423 615 423 596 479.5 c 128,-1,15
 577 536 577 536 540.5 577 c 128,-1,16
 504 618 504 618 451 641 c 128,-1,17
 398 664 398 664 329 664 c 2,18,-1
 144 664 l 1,19,-1
 144 46 l 1,20,-1
 329 46 l 2,21,22
 399 46 399 46 452.5 69.5 c 128,-1,23
 506 93 506 93 542 135 c 128,-1,24
 578 177 578 177 596.5 233.5 c 128,-1,25
 615 290 615 290 615 356 c 0,13,14
EndSplineSet
EndChar

StartChar: E
Encoding: 69 69 41
Width: 612
GlyphClass: 2
Flags: W
LayerCount: 2
Fore
SplineSet
566 46 m 1,0,-1
 566 0 l 1,1,-1
 93 0 l 1,2,-1
 93 710 l 1,3,-1
 557 710 l 1,4,-1
 557 664 l 1,5,-1
 144 664 l 1,6,-1
 144 385 l 1,7,-1
 505 385 l 1,8,-1
 505 341 l 1,9,-1
 144 341 l 1,10,-1
 144 46 l 1,11,-1
 566 46 l 1,0,-1
EndSplineSet
EndChar

StartChar: F
Encoding: 70 70 42
Width: 594
GlyphClass: 2
Flags: W
LayerCount: 2
Fore
SplineSet
93 0 m 1,0,-1
 93 710 l 1,1,-1
 555 710 l 1,2,-1
 555 664 l 1,3,-1
 144 664 l 1,4,-1
 144 382 l 1,5,-1
 493 382 l 1,6,-1
 493 338 l 1,7,-1
 144 338 l 1,8,-1
 144 0 l 1,9,-1
 93 0 l 1,0,-1
EndSplineSet
EndChar

StartChar: G
Encoding: 71 71 43
Width: 717
GlyphClass: 2
Flags: W
LayerCount: 2
Fore
SplineSet
616 111 m 1,0,1
 513 -5 513 -5 377 -5 c 0,2,3
 305 -5 305 -5 243.5 26 c 128,-1,4
 182 57 182 57 138 108 c 128,-1,5
 94 159 94 159 69 224 c 128,-1,6
 44 289 44 289 44 356 c 0,7,8
 44 426 44 426 68.5 491 c 128,-1,9
 93 556 93 556 136.5 606 c 128,-1,10
 180 656 180 656 240 685.5 c 128,-1,11
 300 715 300 715 371 715 c 0,12,13
 424 715 424 715 466.5 703.5 c 128,-1,14
 509 692 509 692 542.5 671.5 c 128,-1,15
 576 651 576 651 600.5 622.5 c 128,-1,16
 625 594 625 594 642 560 c 1,17,-1
 600 535 l 1,18,19
 564 605 564 605 504.5 636.5 c 128,-1,20
 445 668 445 668 370 668 c 0,21,22
 307 668 307 668 256 641 c 128,-1,23
 205 614 205 614 169 570 c 128,-1,24
 133 526 133 526 114 470 c 128,-1,25
 95 414 95 414 95 355 c 0,26,27
 95 292 95 292 117 235.5 c 128,-1,28
 139 179 139 179 177.5 136 c 128,-1,29
 216 93 216 93 268 67.5 c 128,-1,30
 320 42 320 42 380 42 c 0,31,32
 445 42 445 42 503.5 72 c 128,-1,33
 562 102 562 102 616 167 c 1,34,-1
 616 304 l 1,35,-1
 455 304 l 1,36,-1
 455 345 l 1,37,-1
 660 345 l 1,38,-1
 660 0 l 1,39,-1
 616 0 l 1,40,-1
 616 111 l 1,0,1
EndSplineSet
Substitution2: "'ss01' Style Set 1 in Latin lookup 8 subtable" G.alt
Substitution2: "'salt' Stylistic Alternatives in Latin lookup 5 subtable" G.alt
Substitution2: "'aalt' Access All Alternates in Latin lookup 0 subtable" G.alt
EndChar

StartChar: H
Encoding: 72 72 44
Width: 735
GlyphClass: 2
Flags: W
LayerCount: 2
Fore
SplineSet
643 710 m 1,0,-1
 643 0 l 1,1,-1
 592 0 l 1,2,-1
 592 340 l 1,3,-1
 144 340 l 1,4,-1
 144 0 l 1,5,-1
 93 0 l 1,6,-1
 93 710 l 1,7,-1
 144 710 l 1,8,-1
 144 386 l 1,9,-1
 592 386 l 1,10,-1
 592 710 l 1,11,-1
 643 710 l 1,0,-1
EndSplineSet
EndChar

StartChar: I
Encoding: 73 73 45
Width: 237
GlyphClass: 2
Flags: W
LayerCount: 2
Fore
SplineSet
93 0 m 1,0,-1
 93 710 l 1,1,-1
 144 710 l 1,2,-1
 144 0 l 1,3,-1
 93 0 l 1,0,-1
EndSplineSet
EndChar

StartChar: J
Encoding: 74 74 46
Width: 478
GlyphClass: 2
Flags: W
LayerCount: 2
Fore
SplineSet
32 74 m 1,0,1
 57 57 57 57 92 46.5 c 128,-1,2
 127 36 127 36 170 36 c 0,3,4
 228 36 228 36 262 57 c 128,-1,5
 296 78 296 78 314 118 c 128,-1,6
 332 158 332 158 337.5 216.5 c 128,-1,7
 343 275 343 275 343 349 c 2,8,-1
 343 710 l 1,9,-1
 394 710 l 1,10,-1
 394 349 l 2,11,12
 394 268 394 268 387 201.5 c 128,-1,13
 380 135 380 135 356.5 88 c 128,-1,14
 333 41 333 41 289 15 c 128,-1,15
 245 -11 245 -11 170 -11 c 0,16,17
 80 -11 80 -11 16 33 c 1,18,-1
 32 74 l 1,0,1
EndSplineSet
EndChar

StartChar: K
Encoding: 75 75 47
Width: 635
GlyphClass: 2
Flags: W
LayerCount: 2
Fore
SplineSet
93 0 m 1,0,-1
 93 710 l 1,1,-1
 144 710 l 1,2,-1
 144 279 l 1,3,-1
 558 710 l 1,4,-1
 617 710 l 1,5,-1
 322 399 l 1,6,-1
 632 0 l 1,7,-1
 574 0 l 1,8,-1
 289 368 l 1,9,-1
 144 219 l 1,10,-1
 144 0 l 1,11,-1
 93 0 l 1,0,-1
EndSplineSet
EndChar

StartChar: L
Encoding: 76 76 48
Width: 581
GlyphClass: 2
Flags: W
LayerCount: 2
Fore
SplineSet
93 0 m 1,0,-1
 93 710 l 1,1,-1
 144 710 l 1,2,-1
 144 46 l 1,3,-1
 568 46 l 1,4,-1
 568 0 l 1,5,-1
 93 0 l 1,0,-1
EndSplineSet
EndChar

StartChar: M
Encoding: 77 77 49
Width: 880
GlyphClass: 2
Flags: W
LayerCount: 2
Fore
SplineSet
736 0 m 1,0,-1
 736 614 l 1,1,-1
 456 135 l 1,2,-1
 424 135 l 1,3,-1
 144 614 l 1,4,-1
 144 0 l 1,5,-1
 93 0 l 1,6,-1
 93 710 l 1,7,-1
 144 710 l 1,8,-1
 440 202 l 1,9,-1
 736 710 l 1,10,-1
 787 710 l 1,11,-1
 787 0 l 1,12,-1
 736 0 l 1,0,-1
EndSplineSet
EndChar

StartChar: N
Encoding: 78 78 50
Width: 773
GlyphClass: 2
Flags: W
LayerCount: 2
Fore
SplineSet
144 614 m 1,0,-1
 144 0 l 1,1,-1
 93 0 l 1,2,-1
 93 710 l 1,3,-1
 132 710 l 1,4,-1
 630 85 l 1,5,-1
 630 710 l 1,6,-1
 681 710 l 1,7,-1
 681 0 l 1,8,-1
 634 0 l 1,9,-1
 144 614 l 1,0,-1
EndSplineSet
EndChar

StartChar: O
Encoding: 79 79 51
Width: 753
GlyphClass: 2
Flags: W
LayerCount: 2
Fore
SplineSet
376 -5 m 0,0,1
 302 -5 302 -5 241 26 c 128,-1,2
 180 57 180 57 136 107 c 128,-1,3
 92 157 92 157 68 222 c 128,-1,4
 44 287 44 287 44 355 c 0,5,6
 44 426 44 426 69.5 491 c 128,-1,7
 95 556 95 556 139.5 606 c 128,-1,8
 184 656 184 656 245 685.5 c 128,-1,9
 306 715 306 715 377 715 c 0,10,11
 451 715 451 715 512.5 683.5 c 128,-1,12
 574 652 574 652 617.5 601 c 128,-1,13
 661 550 661 550 685 485.5 c 128,-1,14
 709 421 709 421 709 355 c 0,15,16
 709 283 709 283 683.5 218 c 128,-1,17
 658 153 658 153 613.5 103.5 c 128,-1,18
 569 54 569 54 508 24.5 c 128,-1,19
 447 -5 447 -5 376 -5 c 0,0,1
95 355 m 0,20,21
 95 294 95 294 115.5 237.5 c 128,-1,22
 136 181 136 181 173.5 137.5 c 128,-1,23
 211 94 211 94 263 68 c 128,-1,24
 315 42 315 42 377 42 c 0,25,26
 441 42 441 42 492.5 69 c 128,-1,27
 544 96 544 96 580.5 140.5 c 128,-1,28
 617 185 617 185 637 241 c 128,-1,29
 657 297 657 297 657 355 c 0,30,31
 657 416 657 416 636 472.5 c 128,-1,32
 615 529 615 529 577.5 572.5 c 128,-1,33
 540 616 540 616 489 642 c 128,-1,34
 438 668 438 668 377 668 c 0,35,36
 313 668 313 668 261 641 c 128,-1,37
 209 614 209 614 172 569.5 c 128,-1,38
 135 525 135 525 115 469 c 128,-1,39
 95 413 95 413 95 355 c 0,20,21
EndSplineSet
EndChar

StartChar: P
Encoding: 80 80 52
Width: 621
GlyphClass: 2
Flags: W
LayerCount: 2
Fore
SplineSet
93 0 m 1,0,-1
 93 710 l 1,1,-1
 385 710 l 2,2,3
 430 710 430 710 468 691 c 128,-1,4
 506 672 506 672 533.5 640.5 c 128,-1,5
 561 609 561 609 576.5 569.5 c 128,-1,6
 592 530 592 530 592 490 c 0,7,8
 592 447 592 447 577.5 407 c 128,-1,9
 563 367 563 367 536.5 336 c 128,-1,10
 510 305 510 305 473 286.5 c 128,-1,11
 436 268 436 268 391 268 c 2,12,-1
 144 268 l 1,13,-1
 144 0 l 1,14,-1
 93 0 l 1,0,-1
144 315 m 1,15,-1
 389 315 l 2,16,17
 424 315 424 315 452 329.5 c 128,-1,18
 480 344 480 344 499.5 368.5 c 128,-1,19
 519 393 519 393 529.5 424.5 c 128,-1,20
 540 456 540 456 540 490 c 0,21,22
 540 525 540 525 527.5 556.5 c 128,-1,23
 515 588 515 588 493.5 612 c 128,-1,24
 472 636 472 636 443.5 650 c 128,-1,25
 415 664 415 664 383 664 c 2,26,-1
 144 664 l 1,27,-1
 144 315 l 1,15,-1
EndSplineSet
EndChar

StartChar: Q
Encoding: 81 81 53
Width: 752
GlyphClass: 2
Flags: W
LayerCount: 2
Fore
SplineSet
576 67 m 1,0,1
 534 33 534 33 483.5 14 c 128,-1,2
 433 -5 433 -5 376 -5 c 0,3,4
 302 -5 302 -5 241 26 c 128,-1,5
 180 57 180 57 136 107 c 128,-1,6
 92 157 92 157 68 222 c 128,-1,7
 44 287 44 287 44 355 c 0,8,9
 44 426 44 426 69.5 491 c 128,-1,10
 95 556 95 556 139.5 606 c 128,-1,11
 184 656 184 656 245 685.5 c 128,-1,12
 306 715 306 715 377 715 c 0,13,14
 451 715 451 715 512.5 683.5 c 128,-1,15
 574 652 574 652 617.5 601 c 128,-1,16
 661 550 661 550 685 485.5 c 128,-1,17
 709 421 709 421 709 355 c 0,18,19
 709 280 709 280 681.5 213 c 128,-1,20
 654 146 654 146 606 95 c 1,21,-1
 685 0 l 1,22,-1
 632 0 l 1,23,-1
 576 67 l 1,0,1
377 42 m 0,24,25
 427 42 427 42 469 58.5 c 128,-1,26
 511 75 511 75 545 104 c 1,27,-1
 461 206 l 1,28,-1
 514 206 l 1,29,-1
 574 133 l 1,30,31
 614 178 614 178 635.5 236 c 128,-1,32
 657 294 657 294 657 355 c 256,33,34
 657 416 657 416 636 472.5 c 128,-1,35
 615 529 615 529 577.5 572.5 c 128,-1,36
 540 616 540 616 489 642 c 128,-1,37
 438 668 438 668 377 668 c 0,38,39
 313 668 313 668 261 641 c 128,-1,40
 209 614 209 614 172 569.5 c 128,-1,41
 135 525 135 525 115 469 c 128,-1,42
 95 413 95 413 95 355 c 0,43,44
 95 294 95 294 115.5 237.5 c 128,-1,45
 136 181 136 181 173.5 137.5 c 128,-1,46
 211 94 211 94 263 68 c 128,-1,47
 315 42 315 42 377 42 c 0,24,25
EndSplineSet
EndChar

StartChar: R
Encoding: 82 82 54
Width: 649
GlyphClass: 2
Flags: W
LayerCount: 2
Fore
SplineSet
93 0 m 1,0,-1
 93 710 l 1,1,-1
 388 710 l 2,2,3
 433 710 433 710 471 691 c 128,-1,4
 509 672 509 672 536.5 640.5 c 128,-1,5
 564 609 564 609 579.5 569.5 c 128,-1,6
 595 530 595 530 595 490 c 0,7,8
 595 451 595 451 583 414.5 c 128,-1,9
 571 378 571 378 549 349 c 128,-1,10
 527 320 527 320 496 301 c 128,-1,11
 465 282 465 282 428 276 c 1,12,-1
 605 0 l 1,13,-1
 546 0 l 1,14,-1
 374 268 l 1,15,-1
 144 268 l 1,16,-1
 144 0 l 1,17,-1
 93 0 l 1,0,-1
144 315 m 1,18,-1
 393 315 l 2,19,20
 427 315 427 315 455 330 c 128,-1,21
 483 345 483 345 503 369.5 c 128,-1,22
 523 394 523 394 533.5 425.5 c 128,-1,23
 544 457 544 457 544 490 c 0,24,25
 544 524 544 524 531.5 555.5 c 128,-1,26
 519 587 519 587 497.5 611 c 128,-1,27
 476 635 476 635 447.5 649.5 c 128,-1,28
 419 664 419 664 386 664 c 2,29,-1
 144 664 l 1,30,-1
 144 315 l 1,18,-1
EndSplineSet
EndChar

StartChar: S
Encoding: 83 83 55
Width: 605
GlyphClass: 2
Flags: W
LayerCount: 2
Fore
SplineSet
506 592 m 1,0,1
 437 669 437 669 311 669 c 0,2,3
 207 669 207 669 159.5 629.5 c 128,-1,4
 112 590 112 590 112 523 c 0,5,6
 112 489 112 489 124 466.5 c 128,-1,7
 136 444 136 444 161.5 428 c 128,-1,8
 187 412 187 412 226 401 c 128,-1,9
 265 390 265 390 320 378 c 0,10,11
 377 366 377 366 423.5 351.5 c 128,-1,12
 470 337 470 337 502.5 315 c 128,-1,13
 535 293 535 293 552.5 261 c 128,-1,14
 570 229 570 229 570 182 c 256,15,16
 570 135 570 135 551.5 100 c 128,-1,17
 533 65 533 65 499.5 41.5 c 128,-1,18
 466 18 466 18 419.5 6 c 128,-1,19
 373 -6 373 -6 316 -6 c 0,20,21
 150 -6 150 -6 35 100 c 1,22,-1
 62 141 l 1,23,24
 107 94 107 94 172 66.5 c 128,-1,25
 237 39 237 39 318 39 c 0,26,27
 411 39 411 39 463.5 73 c 128,-1,28
 516 107 516 107 516 176 c 0,29,30
 516 211 516 211 502 235.5 c 128,-1,31
 488 260 488 260 460.5 278 c 128,-1,32
 433 296 433 296 391 309 c 128,-1,33
 349 322 349 322 293 334 c 0,34,35
 236 346 236 346 192.5 359.5 c 128,-1,36
 149 373 149 373 119.5 393.5 c 128,-1,37
 90 414 90 414 75 443 c 128,-1,38
 60 472 60 472 60 516 c 0,39,40
 60 564 60 564 78.5 601 c 128,-1,41
 97 638 97 638 130 663.5 c 128,-1,42
 163 689 163 689 209 702 c 128,-1,43
 255 715 255 715 311 715 c 0,44,45
 380 715 380 715 434 694.5 c 128,-1,46
 488 674 488 674 532 632 c 1,47,-1
 506 592 l 1,0,1
EndSplineSet
EndChar

StartChar: T
Encoding: 84 84 56
Width: 606
GlyphClass: 2
Flags: W
LayerCount: 2
Fore
SplineSet
589 664 m 1,0,-1
 329 664 l 1,1,-1
 329 0 l 1,2,-1
 278 0 l 1,3,-1
 278 664 l 1,4,-1
 18 664 l 1,5,-1
 18 710 l 1,6,-1
 589 710 l 1,7,-1
 589 664 l 1,0,-1
EndSplineSet
EndChar

StartChar: U
Encoding: 85 85 57
Width: 756
GlyphClass: 2
Flags: W
LayerCount: 2
Fore
SplineSet
378 42 m 0,0,1
 450 42 450 42 497.5 69 c 128,-1,2
 545 96 545 96 572.5 140 c 128,-1,3
 600 184 600 184 611.5 240 c 128,-1,4
 623 296 623 296 623 353 c 2,5,-1
 623 710 l 1,6,-1
 674 710 l 1,7,-1
 674 353 l 2,8,9
 674 282 674 282 658.5 217 c 128,-1,10
 643 152 643 152 608 102.5 c 128,-1,11
 573 53 573 53 517 24 c 128,-1,12
 461 -5 461 -5 379 -5 c 0,13,14
 294 -5 294 -5 237 25.5 c 128,-1,15
 180 56 180 56 145.5 106.5 c 128,-1,16
 111 157 111 157 96.5 221 c 128,-1,17
 82 285 82 285 82 353 c 2,18,-1
 82 710 l 1,19,-1
 133 710 l 1,20,-1
 133 353 l 2,21,22
 133 294 133 294 144.5 238 c 128,-1,23
 156 182 156 182 184.5 138.5 c 128,-1,24
 213 95 213 95 260 68.5 c 128,-1,25
 307 42 307 42 378 42 c 0,0,1
EndSplineSet
EndChar

StartChar: V
Encoding: 86 86 58
Width: 679
GlyphClass: 2
Flags: W
LayerCount: 2
Fore
SplineSet
69 710 m 1,0,-1
 339 64 l 1,1,-1
 609 710 l 1,2,-1
 663 710 l 1,3,-1
 363 0 l 1,4,-1
 316 0 l 1,5,-1
 15 710 l 1,6,-1
 69 710 l 1,0,-1
EndSplineSet
EndChar

StartChar: W
Encoding: 87 87 59
Width: 1043
GlyphClass: 2
Flags: W
LayerCount: 2
Fore
SplineSet
365 705 m 1,0,-1
 415 705 l 1,1,-1
 521 447 l 1,2,-1
 627 705 l 1,3,-1
 677 705 l 1,4,-1
 552 406 l 1,5,-1
 701 60 l 1,6,-1
 973 710 l 1,7,-1
 1029 710 l 1,8,-1
 725 0 l 1,9,-1
 678 0 l 1,10,-1
 522 365 l 1,11,-1
 365 0 l 1,12,-1
 318 0 l 1,13,-1
 15 710 l 1,14,-1
 70 710 l 1,15,-1
 343 60 l 1,16,-1
 490 406 l 1,17,-1
 365 705 l 1,0,-1
EndSplineSet
Substitution2: "'ss01' Style Set 1 in Latin lookup 8 subtable" W.alt
Substitution2: "'salt' Stylistic Alternatives in Latin lookup 5 subtable" W.alt
Substitution2: "'aalt' Access All Alternates in Latin lookup 0 subtable" W.alt
EndChar

StartChar: X
Encoding: 88 88 60
Width: 628
GlyphClass: 2
Flags: W
LayerCount: 2
Fore
SplineSet
66 710 m 1,0,-1
 315 387 l 1,1,-1
 563 710 l 1,2,-1
 621 710 l 1,3,-1
 342 350 l 1,4,-1
 613 0 l 1,5,-1
 555 0 l 1,6,-1
 315 313 l 1,7,-1
 74 0 l 1,8,-1
 15 0 l 1,9,-1
 286 350 l 1,10,-1
 7 710 l 1,11,-1
 66 710 l 1,0,-1
EndSplineSet
EndChar

StartChar: Y
Encoding: 89 89 61
Width: 647
GlyphClass: 2
Flags: W
LayerCount: 2
Fore
SplineSet
75 710 m 1,0,-1
 323 317 l 1,1,-1
 572 710 l 1,2,-1
 629 710 l 1,3,-1
 349 268 l 1,4,-1
 349 0 l 1,5,-1
 298 0 l 1,6,-1
 298 270 l 1,7,-1
 19 710 l 1,8,-1
 75 710 l 1,0,-1
EndSplineSet
EndChar

StartChar: Z
Encoding: 90 90 62
Width: 627
GlyphClass: 2
Flags: W
LayerCount: 2
Fore
SplineSet
30 42 m 1,0,-1
 535 664 l 1,1,-1
 37 664 l 1,2,-1
 37 710 l 1,3,-1
 595 710 l 1,4,-1
 595 668 l 1,5,-1
 94 46 l 1,6,-1
 593 46 l 1,7,-1
 593 0 l 1,8,-1
 30 0 l 1,9,-1
 30 42 l 1,0,-1
EndSplineSet
EndChar

StartChar: bracketleft
Encoding: 91 91 63
Width: 247
GlyphClass: 2
Flags: W
LayerCount: 2
Fore
SplineSet
91 -40 m 1,0,-1
 91 740 l 1,1,-1
 192 740 l 1,2,-1
 192 697 l 1,3,-1
 139 697 l 1,4,-1
 139 3 l 1,5,-1
 192 3 l 1,6,-1
 192 -40 l 1,7,-1
 91 -40 l 1,0,-1
EndSplineSet
EndChar

StartChar: backslash
Encoding: 92 92 64
Width: 548
GlyphClass: 2
Flags: W
LayerCount: 2
Fore
SplineSet
86 710 m 1,0,-1
 521 0 l 1,1,-1
 463 0 l 1,2,-1
 27 710 l 1,3,-1
 86 710 l 1,0,-1
EndSplineSet
EndChar

StartChar: bracketright
Encoding: 93 93 65
Width: 247
GlyphClass: 2
Flags: W
LayerCount: 2
Fore
SplineSet
54 -40 m 1,0,-1
 54 3 l 1,1,-1
 108 3 l 1,2,-1
 108 697 l 1,3,-1
 54 697 l 1,4,-1
 54 740 l 1,5,-1
 155 740 l 1,6,-1
 155 -40 l 1,7,-1
 54 -40 l 1,0,-1
EndSplineSet
EndChar

StartChar: asciicircum
Encoding: 94 94 66
Width: 526
GlyphClass: 2
Flags: W
LayerCount: 2
Fore
SplineSet
44 303 m 1,0,-1
 242 710 l 1,1,-1
 285 710 l 1,2,-1
 482 303 l 1,3,-1
 436 303 l 1,4,-1
 264 659 l 1,5,-1
 88 303 l 1,6,-1
 44 303 l 1,0,-1
EndSplineSet
EndChar

StartChar: underscore
Encoding: 95 95 67
Width: 519
GlyphClass: 2
Flags: W
LayerCount: 2
Fore
SplineSet
66 -46 m 1,0,-1
 66 0 l 1,1,-1
 452 0 l 1,2,-1
 452 -46 l 1,3,-1
 66 -46 l 1,0,-1
EndSplineSet
EndChar

StartChar: grave
Encoding: 96 96 68
Width: 213
GlyphClass: 2
Flags: W
LayerCount: 2
Fore
SplineSet
49 730 m 1,0,-1
 106 730 l 1,1,-1
 168 645 l 1,2,-1
 134 629 l 1,3,-1
 49 730 l 1,0,-1
EndSplineSet
EndChar

StartChar: a
Encoding: 97 97 69
Width: 537
GlyphClass: 2
Flags: W
LayerCount: 2
Fore
SplineSet
206 -10 m 0,0,1
 170 -10 170 -10 139 2.5 c 128,-1,2
 108 15 108 15 84.5 36.5 c 128,-1,3
 61 58 61 58 48 87.5 c 128,-1,4
 35 117 35 117 35 151 c 256,5,6
 35 185 35 185 51 213 c 128,-1,7
 67 241 67 241 95.5 261.5 c 128,-1,8
 124 282 124 282 164 293.5 c 128,-1,9
 204 305 204 305 252 305 c 0,10,11
 294 305 294 305 336.5 297.5 c 128,-1,12
 379 290 379 290 413 277 c 1,13,-1
 413 328 l 2,14,15
 413 402 413 402 371 445.5 c 128,-1,16
 329 489 329 489 257 489 c 0,17,18
 219 489 219 489 176.5 473 c 128,-1,19
 134 457 134 457 90 427 c 1,20,-1
 71 461 l 1,21,22
 171 529 171 529 261 529 c 0,23,24
 355 529 355 529 409 474.5 c 128,-1,25
 463 420 463 420 463 324 c 2,26,-1
 463 70 l 2,27,28
 463 45 463 45 485 45 c 1,29,-1
 485 0 l 1,30,31
 480 -1 480 -1 474.5 -1.5 c 128,-1,32
 469 -2 469 -2 465 -2 c 0,33,34
 445 -2 445 -2 433 11.5 c 128,-1,35
 421 25 421 25 419 44 c 2,36,-1
 419 87 l 1,37,38
 383 40 383 40 327 15 c 128,-1,39
 271 -10 271 -10 206 -10 c 0,0,1
216 30 m 0,40,41
 274 30 274 30 322.5 52 c 128,-1,42
 371 74 371 74 397 110 c 0,43,44
 413 131 413 131 413 150 c 2,45,-1
 413 242 l 1,46,47
 377 256 377 256 338 263 c 128,-1,48
 299 270 299 270 257 270 c 0,49,50
 218 270 218 270 186 261.5 c 128,-1,51
 154 253 154 253 131 238 c 128,-1,52
 108 223 108 223 95.5 201.5 c 128,-1,53
 83 180 83 180 83 154 c 256,54,55
 83 128 83 128 93 105 c 128,-1,56
 103 82 103 82 121 65.5 c 128,-1,57
 139 49 139 49 163.5 39.5 c 128,-1,58
 188 30 188 30 216 30 c 0,40,41
EndSplineSet
Substitution2: "'ss02' Style Set 2 in Latin lookup 9 subtable" a.alt2
Substitution2: "'ss01' Style Set 1 in Latin lookup 8 subtable" a.alt
Substitution2: "'salt' Stylistic Alternatives in Latin lookup 5 subtable" a.alt
Substitution2: "'smcp' Lowercase to Small Capitals in Latin lookup 2 subtable" A.sc
AlternateSubs2: "'aalt' Access All Alternates in Latin lookup 1 subtable" A.sc a.alt a.alt2
EndChar

StartChar: b
Encoding: 98 98 70
Width: 612
GlyphClass: 2
Flags: W
LayerCount: 2
Fore
SplineSet
321 -10 m 0,0,1
 260 -10 260 -10 207 22 c 128,-1,2
 154 54 154 54 124 104 c 1,3,-1
 124 0 l 1,4,-1
 78 0 l 1,5,-1
 78 730 l 1,6,-1
 128 730 l 1,7,-1
 128 407 l 1,8,9
 165 461 165 461 215.5 495 c 128,-1,10
 266 529 266 529 332 529 c 0,11,12
 387 529 387 529 431.5 505.5 c 128,-1,13
 476 482 476 482 506.5 443.5 c 128,-1,14
 537 405 537 405 553.5 356.5 c 128,-1,15
 570 308 570 308 570 258 c 0,16,17
 570 204 570 204 551 155.5 c 128,-1,18
 532 107 532 107 498.5 70.5 c 128,-1,19
 465 34 465 34 419.5 12 c 128,-1,20
 374 -10 374 -10 321 -10 c 0,0,1
311 35 m 0,21,22
 357 35 357 35 395 54 c 128,-1,23
 433 73 433 73 460.5 104.5 c 128,-1,24
 488 136 488 136 503.5 176 c 128,-1,25
 519 216 519 216 519 258 c 0,26,27
 519 302 519 302 504.5 342.5 c 128,-1,28
 490 383 490 383 463.5 414.5 c 128,-1,29
 437 446 437 446 400.5 465 c 128,-1,30
 364 484 364 484 320 484 c 0,31,32
 287 484 287 484 258 472.5 c 128,-1,33
 229 461 229 461 204.5 442 c 128,-1,34
 180 423 180 423 160.5 398 c 128,-1,35
 141 373 141 373 128 346 c 1,36,-1
 128 174 l 2,37,38
 131 145 131 145 150 119.5 c 128,-1,39
 169 94 169 94 195.5 75.5 c 128,-1,40
 222 57 222 57 253 46 c 128,-1,41
 284 35 284 35 311 35 c 0,21,22
EndSplineSet
Substitution2: "'smcp' Lowercase to Small Capitals in Latin lookup 2 subtable" B.sc
Substitution2: "'aalt' Access All Alternates in Latin lookup 0 subtable" B.sc
EndChar

StartChar: c
Encoding: 99 99 71
Width: 545
GlyphClass: 2
Flags: W
LayerCount: 2
Fore
SplineSet
42 262 m 0,0,1
 42 317 42 317 61 366 c 128,-1,2
 80 415 80 415 114 451 c 128,-1,3
 148 487 148 487 195 508 c 128,-1,4
 242 529 242 529 298 529 c 0,5,6
 369 529 369 529 423 497 c 128,-1,7
 477 465 477 465 504 408 c 1,8,-1
 455 392 l 1,9,10
 432 435 432 435 389.5 459.5 c 128,-1,11
 347 484 347 484 296 484 c 0,12,13
 253 484 253 484 216 467 c 128,-1,14
 179 450 179 450 151.5 420 c 128,-1,15
 124 390 124 390 108 349.5 c 128,-1,16
 92 309 92 309 92 262 c 256,17,18
 92 215 92 215 108.5 173.5 c 128,-1,19
 125 132 125 132 152.5 101.5 c 128,-1,20
 180 71 180 71 217.5 53 c 128,-1,21
 255 35 255 35 297 35 c 0,22,23
 324 35 324 35 350.5 43 c 128,-1,24
 377 51 377 51 399.5 64 c 128,-1,25
 422 77 422 77 438.5 94.5 c 128,-1,26
 455 112 455 112 461 131 c 1,27,-1
 510 117 l 1,28,29
 500 90 500 90 479.5 66.5 c 128,-1,30
 459 43 459 43 431 26 c 128,-1,31
 403 9 403 9 369 -0.5 c 128,-1,32
 335 -10 335 -10 299 -10 c 0,33,34
 244 -10 244 -10 197 11.5 c 128,-1,35
 150 33 150 33 115.5 70.5 c 128,-1,36
 81 108 81 108 61.5 157 c 128,-1,37
 42 206 42 206 42 262 c 0,0,1
EndSplineSet
Substitution2: "'smcp' Lowercase to Small Capitals in Latin lookup 2 subtable" C.sc
Substitution2: "'aalt' Access All Alternates in Latin lookup 0 subtable" C.sc
EndChar

StartChar: d
Encoding: 100 100 72
Width: 615
GlyphClass: 2
Flags: W
LayerCount: 2
Fore
SplineSet
292 -10 m 0,0,1
 238 -10 238 -10 192 12.5 c 128,-1,2
 146 35 146 35 112.5 72.5 c 128,-1,3
 79 110 79 110 60.5 158.5 c 128,-1,4
 42 207 42 207 42 259 c 0,5,6
 42 313 42 313 60 362 c 128,-1,7
 78 411 78 411 110 448 c 128,-1,8
 142 485 142 485 185.5 507 c 128,-1,9
 229 529 229 529 281 529 c 0,10,11
 315 529 315 529 345 519 c 128,-1,12
 375 509 375 509 401 492.5 c 128,-1,13
 427 476 427 476 448 454 c 128,-1,14
 469 432 469 432 484 407 c 1,15,-1
 484 730 l 1,16,-1
 534 730 l 1,17,-1
 534 70 l 2,18,19
 534 45 534 45 555 45 c 1,20,-1
 555 0 l 1,21,22
 549 -1 549 -1 545 -1.5 c 128,-1,23
 541 -2 541 -2 537 -2 c 0,24,25
 517 -2 517 -2 503 13.5 c 128,-1,26
 489 29 489 29 489 46 c 2,27,-1
 489 104 l 1,28,29
 457 52 457 52 403.5 21 c 128,-1,30
 350 -10 350 -10 292 -10 c 0,0,1
301 35 m 0,31,32
 328 35 328 35 359 46 c 128,-1,33
 390 57 390 57 416.5 76.5 c 128,-1,34
 443 96 443 96 462 121 c 128,-1,35
 481 146 481 146 484 175 c 2,36,-1
 484 346 l 1,37,38
 473 374 473 374 452.5 399.5 c 128,-1,39
 432 425 432 425 406 443.5 c 128,-1,40
 380 462 380 462 350 473 c 128,-1,41
 320 484 320 484 292 484 c 0,42,43
 247 484 247 484 210 464.5 c 128,-1,44
 173 445 173 445 147 413.5 c 128,-1,45
 121 382 121 382 107 341.5 c 128,-1,46
 93 301 93 301 93 258 c 0,47,48
 93 213 93 213 109 173 c 128,-1,49
 125 133 125 133 153.5 102 c 128,-1,50
 182 71 182 71 219.5 53 c 128,-1,51
 257 35 257 35 301 35 c 0,31,32
EndSplineSet
Substitution2: "'ss01' Style Set 1 in Latin lookup 8 subtable" d.alt
Substitution2: "'salt' Stylistic Alternatives in Latin lookup 5 subtable" d.alt
Substitution2: "'smcp' Lowercase to Small Capitals in Latin lookup 2 subtable" D.sc
AlternateSubs2: "'aalt' Access All Alternates in Latin lookup 1 subtable" D.sc d.alt
EndChar

StartChar: e
Encoding: 101 101 73
Width: 583
GlyphClass: 2
Flags: W
LayerCount: 2
Fore
SplineSet
299 -10 m 0,0,1
 244 -10 244 -10 197 11.5 c 128,-1,2
 150 33 150 33 115.5 70.5 c 128,-1,3
 81 108 81 108 61.5 157 c 128,-1,4
 42 206 42 206 42 262 c 0,5,6
 42 317 42 317 61.5 365.5 c 128,-1,7
 81 414 81 414 115 450.5 c 128,-1,8
 149 487 149 487 195.5 508 c 128,-1,9
 242 529 242 529 296 529 c 0,10,11
 351 529 351 529 398 507.5 c 128,-1,12
 445 486 445 486 479 449.5 c 128,-1,13
 513 413 513 413 532 364.5 c 128,-1,14
 551 316 551 316 551 262 c 0,15,16
 551 257 551 257 551 249.5 c 128,-1,17
 551 242 551 242 550 240 c 2,18,-1
 94 240 l 1,19,20
 97 195 97 195 115 156.5 c 128,-1,21
 133 118 133 118 160.5 90 c 128,-1,22
 188 62 188 62 224 46 c 128,-1,23
 260 30 260 30 301 30 c 0,24,25
 328 30 328 30 354 37.5 c 128,-1,26
 380 45 380 45 402.5 58 c 128,-1,27
 425 71 425 71 442.5 89.5 c 128,-1,28
 460 108 460 108 470 130 c 1,29,-1
 514 118 l 1,30,31
 503 90 503 90 481.5 66.5 c 128,-1,32
 460 43 460 43 431.5 26 c 128,-1,33
 403 9 403 9 369 -0.5 c 128,-1,34
 335 -10 335 -10 299 -10 c 0,0,1
503 280 m 1,35,36
 500 326 500 326 482.5 364 c 128,-1,37
 465 402 465 402 437.5 429.5 c 128,-1,38
 410 457 410 457 374 472.5 c 128,-1,39
 338 488 338 488 297 488 c 256,40,41
 256 488 256 488 220 472.5 c 128,-1,42
 184 457 184 457 156.5 429.5 c 128,-1,43
 129 402 129 402 112.5 363.5 c 128,-1,44
 96 325 96 325 93 280 c 1,45,-1
 503 280 l 1,35,36
EndSplineSet
Substitution2: "'smcp' Lowercase to Small Capitals in Latin lookup 2 subtable" E.sc
Substitution2: "'aalt' Access All Alternates in Latin lookup 0 subtable" E.sc
EndChar

StartChar: f
Encoding: 102 102 74
Width: 318
GlyphClass: 2
Flags: W
LayerCount: 2
Fore
SplineSet
101 0 m 1,0,-1
 101 479 l 1,1,-1
 28 479 l 1,2,-1
 28 520 l 1,3,-1
 101 520 l 1,4,-1
 101 537 l 2,5,6
 101 633 101 633 140 686.5 c 128,-1,7
 179 740 179 740 248 740 c 0,8,9
 278 740 278 740 306 731 c 128,-1,10
 334 722 334 722 352 707 c 1,11,-1
 334 671 l 1,12,13
 320 682 320 682 299.5 689 c 128,-1,14
 279 696 279 696 257 696 c 0,15,16
 206 696 206 696 178.5 655.5 c 128,-1,17
 151 615 151 615 151 538 c 2,18,-1
 151 520 l 1,19,-1
 299 520 l 1,20,-1
 299 479 l 1,21,-1
 151 479 l 1,22,-1
 151 0 l 1,23,-1
 101 0 l 1,0,-1
EndSplineSet
Substitution2: "'smcp' Lowercase to Small Capitals in Latin lookup 2 subtable" F.sc
Substitution2: "'aalt' Access All Alternates in Latin lookup 0 subtable" F.sc
EndChar

StartChar: g
Encoding: 103 103 75
Width: 612
GlyphClass: 2
Flags: W
LayerCount: 2
Fore
SplineSet
288 -8 m 0,0,1
 234 -8 234 -8 189 14.5 c 128,-1,2
 144 37 144 37 111.5 74.5 c 128,-1,3
 79 112 79 112 60.5 160 c 128,-1,4
 42 208 42 208 42 259 c 0,5,6
 42 312 42 312 59.5 361 c 128,-1,7
 77 410 77 410 109 447.5 c 128,-1,8
 141 485 141 485 185.5 507 c 128,-1,9
 230 529 230 529 284 529 c 0,10,11
 352 529 352 529 402.5 493.5 c 128,-1,12
 453 458 453 458 488 407 c 1,13,-1
 488 520 l 1,14,-1
 534 520 l 1,15,-1
 534 -10 l 2,16,17
 534 -63 534 -63 514 -103 c 128,-1,18
 494 -143 494 -143 460.5 -169.5 c 128,-1,19
 427 -196 427 -196 382.5 -209.5 c 128,-1,20
 338 -223 338 -223 289 -223 c 0,21,22
 244 -223 244 -223 208 -214.5 c 128,-1,23
 172 -206 172 -206 144.5 -190.5 c 128,-1,24
 117 -175 117 -175 95.5 -152.5 c 128,-1,25
 74 -130 74 -130 58 -103 c 1,26,-1
 92 -80 l 1,27,28
 123 -133 123 -133 176 -157.5 c 128,-1,29
 229 -182 229 -182 289 -182 c 0,30,31
 329 -182 329 -182 364.5 -171 c 128,-1,32
 400 -160 400 -160 426.5 -138.5 c 128,-1,33
 453 -117 453 -117 468.5 -85 c 128,-1,34
 484 -53 484 -53 484 -10 c 2,35,-1
 484 104 l 1,36,37
 452 53 452 53 399 22.5 c 128,-1,38
 346 -8 346 -8 288 -8 c 0,0,1
300 35 m 0,39,40
 333 35 333 35 364.5 47.5 c 128,-1,41
 396 60 396 60 421.5 80 c 128,-1,42
 447 100 447 100 463.5 125 c 128,-1,43
 480 150 480 150 484 175 c 1,44,-1
 484 346 l 1,45,46
 472 376 472 376 452 401.5 c 128,-1,47
 432 427 432 427 406.5 445 c 128,-1,48
 381 463 381 463 351.5 473.5 c 128,-1,49
 322 484 322 484 292 484 c 0,50,51
 245 484 245 484 208 464 c 128,-1,52
 171 444 171 444 145.5 412 c 128,-1,53
 120 380 120 380 106.5 339.5 c 128,-1,54
 93 299 93 299 93 258 c 0,55,56
 93 213 93 213 109 173 c 128,-1,57
 125 133 125 133 153 102 c 128,-1,58
 181 71 181 71 219 53 c 128,-1,59
 257 35 257 35 300 35 c 0,39,40
EndSplineSet
Substitution2: "'smcp' Lowercase to Small Capitals in Latin lookup 2 subtable" G.sc
Substitution2: "'aalt' Access All Alternates in Latin lookup 0 subtable" G.sc
EndChar

StartChar: h
Encoding: 104 104 76
Width: 576
GlyphClass: 2
Flags: W
LayerCount: 2
Fore
SplineSet
503 0 m 1,0,-1
 453 0 l 1,1,-1
 453 290 l 2,2,3
 453 483 453 483 324 483 c 0,4,5
 292 483 292 483 261.5 471 c 128,-1,6
 231 459 231 459 204.5 437 c 128,-1,7
 178 415 178 415 158 385.5 c 128,-1,8
 138 356 138 356 128 322 c 1,9,-1
 128 0 l 1,10,-1
 78 0 l 1,11,-1
 78 730 l 1,12,-1
 128 730 l 1,13,-1
 128 396 l 1,14,15
 160 457 160 457 216.5 493 c 128,-1,16
 273 529 273 529 338 529 c 0,17,18
 381 529 381 529 412 513 c 128,-1,19
 443 497 443 497 463.5 467 c 128,-1,20
 484 437 484 437 493.5 394.5 c 128,-1,21
 503 352 503 352 503 299 c 2,22,-1
 503 0 l 1,0,-1
EndSplineSet
Substitution2: "'smcp' Lowercase to Small Capitals in Latin lookup 2 subtable" H.sc
Substitution2: "'aalt' Access All Alternates in Latin lookup 0 subtable" H.sc
EndChar

StartChar: i
Encoding: 105 105 77
Width: 207
GlyphClass: 2
Flags: W
LayerCount: 2
Fore
SplineSet
78 0 m 1,0,-1
 78 520 l 1,1,-1
 128 520 l 1,2,-1
 128 0 l 1,3,-1
 78 0 l 1,0,-1
78 638 m 1,4,-1
 78 730 l 1,5,-1
 128 730 l 1,6,-1
 128 638 l 1,7,-1
 78 638 l 1,4,-1
EndSplineSet
Substitution2: "'smcp' Lowercase to Small Capitals in Latin lookup 2 subtable" I.sc
Substitution2: "'aalt' Access All Alternates in Latin lookup 0 subtable" I.sc
EndChar

StartChar: j
Encoding: 106 106 78
Width: 214
GlyphClass: 2
Flags: W
LayerCount: 2
Fore
SplineSet
-10 -177 m 0,0,1
 -42 -177 -42 -177 -69.5 -168.5 c 128,-1,2
 -97 -160 -97 -160 -119 -140 c 1,3,-1
 -92 -107 l 1,4,5
 -75 -121 -75 -121 -55 -126 c 128,-1,6
 -35 -131 -35 -131 -15 -131 c 0,7,8
 4 -131 4 -131 22 -123.5 c 128,-1,9
 40 -116 40 -116 54 -102.5 c 128,-1,10
 68 -89 68 -89 77 -70.5 c 128,-1,11
 86 -52 86 -52 86 -30 c 2,12,-1
 86 520 l 1,13,-1
 136 520 l 1,14,-1
 136 -28 l 2,15,16
 136 -61 136 -61 123.5 -88 c 128,-1,17
 111 -115 111 -115 90 -135 c 128,-1,18
 69 -155 69 -155 43 -166 c 128,-1,19
 17 -177 17 -177 -10 -177 c 0,0,1
86 638 m 1,20,-1
 86 730 l 1,21,-1
 136 730 l 1,22,-1
 136 638 l 1,23,-1
 86 638 l 1,20,-1
EndSplineSet
Substitution2: "'ss01' Style Set 1 in Latin lookup 8 subtable" j.alt
Substitution2: "'salt' Stylistic Alternatives in Latin lookup 5 subtable" j.alt
Substitution2: "'smcp' Lowercase to Small Capitals in Latin lookup 2 subtable" J.sc
AlternateSubs2: "'aalt' Access All Alternates in Latin lookup 1 subtable" J.sc j.alt
EndChar

StartChar: k
Encoding: 107 107 79
Width: 522
GlyphClass: 2
Flags: W
LayerCount: 2
Fore
SplineSet
454 0 m 1,0,-1
 251 278 l 1,1,-1
 128 165 l 1,2,-1
 128 0 l 1,3,-1
 78 0 l 1,4,-1
 78 730 l 1,5,-1
 128 730 l 1,6,-1
 128 220 l 1,7,-1
 444 519 l 1,8,-1
 502 519 l 1,9,-1
 285 308 l 1,10,-1
 509 0 l 1,11,-1
 454 0 l 1,0,-1
EndSplineSet
Substitution2: "'smcp' Lowercase to Small Capitals in Latin lookup 2 subtable" K.sc
Substitution2: "'aalt' Access All Alternates in Latin lookup 0 subtable" K.sc
EndChar

StartChar: l
Encoding: 108 108 80
Width: 259
GlyphClass: 2
Flags: W
LayerCount: 2
Fore
SplineSet
82 730 m 1,0,-1
 133 730 l 1,1,-1
 133 103 l 2,2,3
 133 74 133 74 149.5 57 c 128,-1,4
 166 40 166 40 195 40 c 0,5,6
 206 40 206 40 221.5 42.5 c 128,-1,7
 237 45 237 45 250 50 c 1,8,-1
 260 10 l 1,9,10
 243 3 243 3 218 -1.5 c 128,-1,11
 193 -6 193 -6 175 -6 c 0,12,13
 133 -6 133 -6 107.5 19.5 c 128,-1,14
 82 45 82 45 82 88 c 2,15,-1
 82 730 l 1,0,-1
EndSplineSet
Substitution2: "'ss01' Style Set 1 in Latin lookup 8 subtable" l.alt
Substitution2: "'salt' Stylistic Alternatives in Latin lookup 5 subtable" l.alt
Substitution2: "'smcp' Lowercase to Small Capitals in Latin lookup 2 subtable" L.sc
AlternateSubs2: "'aalt' Access All Alternates in Latin lookup 1 subtable" L.sc l.alt
EndChar

StartChar: m
Encoding: 109 109 81
Width: 915
GlyphClass: 2
Flags: W
LayerCount: 2
Fore
SplineSet
842 0 m 1,0,-1
 792 0 l 1,1,-1
 792 290 l 2,2,3
 792 389 792 389 761.5 436 c 128,-1,4
 731 483 731 483 668 483 c 0,5,6
 636 483 636 483 607 471 c 128,-1,7
 578 459 578 459 554 437.5 c 128,-1,8
 530 416 530 416 512.5 386.5 c 128,-1,9
 495 357 495 357 485 321 c 1,10,-1
 485 0 l 1,11,-1
 435 0 l 1,12,-1
 435 290 l 2,13,14
 435 390 435 390 405 436.5 c 128,-1,15
 375 483 375 483 312 483 c 0,16,17
 280 483 280 483 251.5 471.5 c 128,-1,18
 223 460 223 460 199 438.5 c 128,-1,19
 175 417 175 417 156.5 387.5 c 128,-1,20
 138 358 138 358 128 322 c 1,21,-1
 128 0 l 1,22,-1
 78 0 l 1,23,-1
 78 520 l 1,24,-1
 125 520 l 1,25,-1
 125 396 l 1,26,27
 157 459 157 459 209 494 c 128,-1,28
 261 529 261 529 324 529 c 0,29,30
 390 529 390 529 431 490 c 128,-1,31
 472 451 472 451 480 388 c 1,32,33
 554 529 554 529 684 529 c 0,34,35
 769 529 769 529 805.5 468.5 c 128,-1,36
 842 408 842 408 842 299 c 2,37,-1
 842 0 l 1,0,-1
EndSplineSet
Substitution2: "'smcp' Lowercase to Small Capitals in Latin lookup 2 subtable" M.sc
Substitution2: "'aalt' Access All Alternates in Latin lookup 0 subtable" M.sc
EndChar

StartChar: n
Encoding: 110 110 82
Width: 576
GlyphClass: 2
Flags: W
LayerCount: 2
Fore
SplineSet
503 0 m 1,0,-1
 453 0 l 1,1,-1
 453 290 l 2,2,3
 453 391 453 391 424.5 437 c 128,-1,4
 396 483 396 483 334 483 c 0,5,6
 301 483 301 483 268.5 471 c 128,-1,7
 236 459 236 459 208 437 c 128,-1,8
 180 415 180 415 159 385.5 c 128,-1,9
 138 356 138 356 128 322 c 1,10,-1
 128 0 l 1,11,-1
 78 0 l 1,12,-1
 78 520 l 1,13,-1
 125 520 l 1,14,-1
 125 396 l 1,15,16
 141 426 141 426 164.5 450.5 c 128,-1,17
 188 475 188 475 217.5 492.5 c 128,-1,18
 247 510 247 510 280 519.5 c 128,-1,19
 313 529 313 529 348 529 c 0,20,21
 433 529 433 529 468 469.5 c 128,-1,22
 503 410 503 410 503 299 c 2,23,-1
 503 0 l 1,0,-1
EndSplineSet
Substitution2: "'smcp' Lowercase to Small Capitals in Latin lookup 2 subtable" N.sc
Substitution2: "'aalt' Access All Alternates in Latin lookup 0 subtable" N.sc
EndChar

StartChar: o
Encoding: 111 111 83
Width: 592
GlyphClass: 2
Flags: W
LayerCount: 2
Fore
SplineSet
296 -10 m 0,0,1
 241 -10 241 -10 194.5 11.5 c 128,-1,2
 148 33 148 33 114 70 c 128,-1,3
 80 107 80 107 61 156 c 128,-1,4
 42 205 42 205 42 259 c 0,5,6
 42 314 42 314 61.5 363 c 128,-1,7
 81 412 81 412 115 449 c 128,-1,8
 149 486 149 486 195.5 507.5 c 128,-1,9
 242 529 242 529 296 529 c 256,10,11
 350 529 350 529 396 507.5 c 128,-1,12
 442 486 442 486 476.5 449 c 128,-1,13
 511 412 511 412 530.5 363 c 128,-1,14
 550 314 550 314 550 259 c 0,15,16
 550 205 550 205 530.5 156 c 128,-1,17
 511 107 511 107 477 70 c 128,-1,18
 443 33 443 33 396.5 11.5 c 128,-1,19
 350 -10 350 -10 296 -10 c 0,0,1
92 257 m 256,20,21
 92 211 92 211 108 170.5 c 128,-1,22
 124 130 124 130 151.5 100 c 128,-1,23
 179 70 179 70 216 52.5 c 128,-1,24
 253 35 253 35 295 35 c 256,25,26
 337 35 337 35 374 52.5 c 128,-1,27
 411 70 411 70 439 101 c 128,-1,28
 467 132 467 132 483 172.5 c 128,-1,29
 499 213 499 213 499 260 c 0,30,31
 499 306 499 306 483 346.5 c 128,-1,32
 467 387 467 387 439 417.5 c 128,-1,33
 411 448 411 448 374.5 466 c 128,-1,34
 338 484 338 484 296 484 c 256,35,36
 254 484 254 484 217 466 c 128,-1,37
 180 448 180 448 152.5 417 c 128,-1,38
 125 386 125 386 108.5 344.5 c 128,-1,39
 92 303 92 303 92 257 c 256,20,21
EndSplineSet
Substitution2: "'smcp' Lowercase to Small Capitals in Latin lookup 2 subtable" O.sc
Substitution2: "'aalt' Access All Alternates in Latin lookup 0 subtable" O.sc
EndChar

StartChar: p
Encoding: 112 112 84
Width: 612
GlyphClass: 2
Flags: W
LayerCount: 2
Fore
SplineSet
332 -10 m 0,0,1
 265 -10 265 -10 212.5 25.5 c 128,-1,2
 160 61 160 61 128 112 c 1,3,-1
 128 -213 l 1,4,-1
 78 -213 l 1,5,-1
 78 520 l 1,6,-1
 124 520 l 1,7,-1
 124 416 l 1,8,9
 156 466 156 466 208.5 497.5 c 128,-1,10
 261 529 261 529 321 529 c 0,11,12
 375 529 375 529 421 506 c 128,-1,13
 467 483 467 483 500 445.5 c 128,-1,14
 533 408 533 408 551.5 359 c 128,-1,15
 570 310 570 310 570 259 c 0,16,17
 570 205 570 205 553 156 c 128,-1,18
 536 107 536 107 504.5 70 c 128,-1,19
 473 33 473 33 429 11.5 c 128,-1,20
 385 -10 385 -10 332 -10 c 0,0,1
320 35 m 0,21,22
 365 35 365 35 402 54 c 128,-1,23
 439 73 439 73 465 104.5 c 128,-1,24
 491 136 491 136 505 176.5 c 128,-1,25
 519 217 519 217 519 259 c 0,26,27
 519 304 519 304 503 344.5 c 128,-1,28
 487 385 487 385 458.5 416 c 128,-1,29
 430 447 430 447 392 465.5 c 128,-1,30
 354 484 354 484 311 484 c 0,31,32
 284 484 284 484 253.5 472.5 c 128,-1,33
 223 461 223 461 196 441.5 c 128,-1,34
 169 422 169 422 150 397 c 128,-1,35
 131 372 131 372 128 344 c 2,36,-1
 128 173 l 1,37,38
 141 144 141 144 161 119 c 128,-1,39
 181 94 181 94 206 75 c 128,-1,40
 231 56 231 56 260 45.5 c 128,-1,41
 289 35 289 35 320 35 c 0,21,22
EndSplineSet
Substitution2: "'smcp' Lowercase to Small Capitals in Latin lookup 2 subtable" P.sc
Substitution2: "'aalt' Access All Alternates in Latin lookup 0 subtable" P.sc
EndChar

StartChar: q
Encoding: 113 113 85
Width: 612
GlyphClass: 2
Flags: W
LayerCount: 2
Fore
SplineSet
280 -10 m 0,0,1
 226 -10 226 -10 182.5 12.5 c 128,-1,2
 139 35 139 35 107.5 72.5 c 128,-1,3
 76 110 76 110 59 158.5 c 128,-1,4
 42 207 42 207 42 259 c 0,5,6
 42 313 42 313 61.5 362 c 128,-1,7
 81 411 81 411 114.5 448 c 128,-1,8
 148 485 148 485 193.5 507 c 128,-1,9
 239 529 239 529 291 529 c 0,10,11
 352 529 352 529 405 496.5 c 128,-1,12
 458 464 458 464 488 415 c 1,13,-1
 488 520 l 1,14,-1
 534 520 l 1,15,-1
 534 -141 l 2,16,17
 534 -166 534 -166 555 -167 c 1,18,-1
 555 -211 l 1,19,20
 550 -212 550 -212 546 -212 c 128,-1,21
 542 -212 542 -212 538 -212 c 0,22,23
 515 -212 515 -212 499.5 -197.5 c 128,-1,24
 484 -183 484 -183 484 -159 c 2,25,-1
 484 112 l 1,26,27
 402 -10 402 -10 280 -10 c 0,0,1
293 35 m 0,28,29
 326 35 326 35 354.5 46 c 128,-1,30
 383 57 383 57 407 75 c 128,-1,31
 431 93 431 93 450.5 117.5 c 128,-1,32
 470 142 470 142 484 169 c 1,33,-1
 484 339 l 1,34,35
 480 368 480 368 462 394 c 128,-1,36
 444 420 444 420 417.5 440 c 128,-1,37
 391 460 391 460 360 472 c 128,-1,38
 329 484 329 484 299 484 c 0,39,40
 254 484 254 484 216 464.5 c 128,-1,41
 178 445 178 445 150.5 413.5 c 128,-1,42
 123 382 123 382 108 341 c 128,-1,43
 93 300 93 300 93 258 c 0,44,45
 93 213 93 213 108 173 c 128,-1,46
 123 133 123 133 149.5 102 c 128,-1,47
 176 71 176 71 212.5 53 c 128,-1,48
 249 35 249 35 293 35 c 0,28,29
EndSplineSet
Substitution2: "'ss01' Style Set 1 in Latin lookup 8 subtable" q.alt
Substitution2: "'salt' Stylistic Alternatives in Latin lookup 5 subtable" q.alt
Substitution2: "'smcp' Lowercase to Small Capitals in Latin lookup 2 subtable" Q.sc
AlternateSubs2: "'aalt' Access All Alternates in Latin lookup 1 subtable" Q.sc q.alt
EndChar

StartChar: r
Encoding: 114 114 86
Width: 341
GlyphClass: 2
Flags: W
LayerCount: 2
Fore
SplineSet
324 475 m 1,0,1
 254 473 254 473 201.5 433.5 c 128,-1,2
 149 394 149 394 128 325 c 1,3,-1
 128 0 l 1,4,-1
 78 0 l 1,5,-1
 78 520 l 1,6,-1
 126 520 l 1,7,-1
 126 392 l 1,8,9
 153 447 153 447 197.5 481.5 c 128,-1,10
 242 516 242 516 293 521 c 0,11,12
 303 522 303 522 311 522 c 128,-1,13
 319 522 319 522 324 522 c 1,14,-1
 324 475 l 1,0,1
EndSplineSet
Substitution2: "'smcp' Lowercase to Small Capitals in Latin lookup 2 subtable" R.sc
Substitution2: "'aalt' Access All Alternates in Latin lookup 0 subtable" R.sc
EndChar

StartChar: s
Encoding: 115 115 87
Width: 481
GlyphClass: 2
Flags: W
LayerCount: 2
Fore
SplineSet
243 -10 m 0,0,1
 183 -10 183 -10 128 10 c 128,-1,2
 73 30 73 30 32 70 c 1,3,-1
 57 104 l 1,4,5
 99 66 99 66 144 48 c 128,-1,6
 189 30 189 30 243 30 c 0,7,8
 311 30 311 30 352.5 58.5 c 128,-1,9
 394 87 394 87 394 138 c 0,10,11
 394 162 394 162 383.5 178.5 c 128,-1,12
 373 195 373 195 352 206.5 c 128,-1,13
 331 218 331 218 300 227 c 128,-1,14
 269 236 269 236 228 246 c 0,15,16
 184 256 184 256 151.5 266 c 128,-1,17
 119 276 119 276 98 290 c 128,-1,18
 77 304 77 304 66.5 324 c 128,-1,19
 56 344 56 344 56 375 c 0,20,21
 56 414 56 414 71 443 c 128,-1,22
 86 472 86 472 112.5 491 c 128,-1,23
 139 510 139 510 173.5 519.5 c 128,-1,24
 208 529 208 529 247 529 c 0,25,26
 308 529 308 529 355 508.5 c 128,-1,27
 402 488 402 488 428 456 c 1,28,-1
 400 429 l 1,29,30
 374 459 374 459 332.5 474 c 128,-1,31
 291 489 291 489 244 489 c 0,32,33
 215 489 215 489 189.5 483 c 128,-1,34
 164 477 164 477 145 464 c 128,-1,35
 126 451 126 451 115 430.5 c 128,-1,36
 104 410 104 410 104 382 c 0,37,38
 104 359 104 359 111.5 345 c 128,-1,39
 119 331 119 331 135.5 321 c 128,-1,40
 152 311 152 311 178 303.5 c 128,-1,41
 204 296 204 296 240 287 c 0,42,43
 289 275 289 275 327 264 c 128,-1,44
 365 253 365 253 390.5 237 c 128,-1,45
 416 221 416 221 429.5 199 c 128,-1,46
 443 177 443 177 443 143 c 0,47,48
 443 73 443 73 388.5 31.5 c 128,-1,49
 334 -10 334 -10 243 -10 c 0,0,1
EndSplineSet
Substitution2: "'smcp' Lowercase to Small Capitals in Latin lookup 2 subtable" S.sc
Substitution2: "'aalt' Access All Alternates in Latin lookup 0 subtable" S.sc
EndChar

StartChar: t
Encoding: 116 116 88
Width: 320
GlyphClass: 2
Flags: W
LayerCount: 2
Fore
SplineSet
310 25 m 1,0,1
 306 23 306 23 296.5 17.5 c 128,-1,2
 287 12 287 12 272.5 7 c 128,-1,3
 258 2 258 2 240 -2 c 128,-1,4
 222 -6 222 -6 201 -6 c 256,5,6
 180 -6 180 -6 161.5 0 c 128,-1,7
 143 6 143 6 129 18 c 128,-1,8
 115 30 115 30 107 47 c 128,-1,9
 99 64 99 64 99 87 c 2,10,-1
 99 479 l 1,11,-1
 26 479 l 1,12,-1
 26 520 l 1,13,-1
 99 520 l 1,14,-1
 99 698 l 1,15,-1
 149 698 l 1,16,-1
 149 520 l 1,17,-1
 270 520 l 1,18,-1
 270 479 l 1,19,-1
 149 479 l 1,20,-1
 149 99 l 2,21,22
 149 70 149 70 169 55.5 c 128,-1,23
 189 41 189 41 214 41 c 0,24,25
 245 41 245 41 267.5 51.5 c 128,-1,26
 290 62 290 62 295 65 c 1,27,-1
 310 25 l 1,0,1
EndSplineSet
Substitution2: "'ss01' Style Set 1 in Latin lookup 8 subtable" t.alt
Substitution2: "'salt' Stylistic Alternatives in Latin lookup 5 subtable" t.alt
Substitution2: "'smcp' Lowercase to Small Capitals in Latin lookup 2 subtable" T.sc
AlternateSubs2: "'aalt' Access All Alternates in Latin lookup 1 subtable" T.sc t.alt
EndChar

StartChar: u
Encoding: 117 117 89
Width: 587
GlyphClass: 2
Flags: W
LayerCount: 2
Fore
SplineSet
239 -10 m 0,0,1
 73 -10 73 -10 73 220 c 2,2,-1
 73 520 l 1,3,-1
 123 520 l 1,4,-1
 123 227 l 2,5,6
 123 35 123 35 254 35 c 0,7,8
 287 35 287 35 318 46.5 c 128,-1,9
 349 58 349 58 376 78.5 c 128,-1,10
 403 99 403 99 423.5 128 c 128,-1,11
 444 157 444 157 456 192 c 1,12,-1
 456 520 l 1,13,-1
 506 520 l 1,14,-1
 506 70 l 2,15,16
 506 45 506 45 527 45 c 1,17,-1
 527 0 l 1,18,19
 522 -1 522 -1 518 -1 c 128,-1,20
 514 -1 514 -1 512 -1 c 0,21,22
 492 -1 492 -1 476.5 11.5 c 128,-1,23
 461 24 461 24 461 45 c 2,24,-1
 461 123 l 1,25,26
 427 60 427 60 367.5 25 c 128,-1,27
 308 -10 308 -10 239 -10 c 0,0,1
EndSplineSet
Substitution2: "'smcp' Lowercase to Small Capitals in Latin lookup 2 subtable" U.sc
Substitution2: "'aalt' Access All Alternates in Latin lookup 0 subtable" U.sc
EndChar

StartChar: v
Encoding: 118 118 90
Width: 528
GlyphClass: 2
Flags: W
LayerCount: 2
Fore
SplineSet
238 0 m 1,0,-1
 21 520 l 1,1,-1
 73 520 l 1,2,-1
 265 50 l 1,3,-1
 458 520 l 1,4,-1
 507 520 l 1,5,-1
 290 0 l 1,6,-1
 238 0 l 1,0,-1
EndSplineSet
Substitution2: "'smcp' Lowercase to Small Capitals in Latin lookup 2 subtable" V.sc
Substitution2: "'aalt' Access All Alternates in Latin lookup 0 subtable" V.sc
EndChar

StartChar: w
Encoding: 119 119 91
Width: 806
GlyphClass: 2
Flags: W
LayerCount: 2
Fore
SplineSet
737 520 m 1,0,-1
 787 520 l 1,1,-1
 562 0 l 1,2,-1
 520 0 l 1,3,-1
 403 275 l 1,4,-1
 286 0 l 1,5,-1
 244 0 l 1,6,-1
 19 520 l 1,7,-1
 68 520 l 1,8,-1
 267 55 l 1,9,-1
 376 311 l 1,10,-1
 288 519 l 1,11,-1
 331 519 l 1,12,-1
 403 347 l 1,13,-1
 474 519 l 1,14,-1
 518 519 l 1,15,-1
 430 311 l 1,16,-1
 539 55 l 1,17,-1
 737 520 l 1,0,-1
EndSplineSet
Substitution2: "'ss01' Style Set 1 in Latin lookup 8 subtable" w.alt
Substitution2: "'salt' Stylistic Alternatives in Latin lookup 5 subtable" w.alt
Substitution2: "'smcp' Lowercase to Small Capitals in Latin lookup 2 subtable" W.sc
AlternateSubs2: "'aalt' Access All Alternates in Latin lookup 1 subtable" W.sc w.alt
EndChar

StartChar: x
Encoding: 120 120 92
Width: 496
GlyphClass: 2
Flags: W
LayerCount: 2
Fore
SplineSet
72 520 m 1,0,-1
 240 305 l 1,1,-1
 248 291 l 1,2,-1
 256 305 l 1,3,-1
 423 520 l 1,4,-1
 479 520 l 1,5,-1
 277 259 l 1,6,-1
 478 0 l 1,7,-1
 423 0 l 1,8,-1
 256 214 l 1,9,-1
 248 227 l 1,10,-1
 240 214 l 1,11,-1
 73 0 l 1,12,-1
 18 0 l 1,13,-1
 219 259 l 1,14,-1
 17 520 l 1,15,-1
 72 520 l 1,0,-1
EndSplineSet
Substitution2: "'smcp' Lowercase to Small Capitals in Latin lookup 2 subtable" X.sc
Substitution2: "'aalt' Access All Alternates in Latin lookup 0 subtable" X.sc
EndChar

StartChar: y
Encoding: 121 121 93
Width: 540
GlyphClass: 2
Flags: W
LayerCount: 2
Fore
SplineSet
113 -176 m 1,0,1
 118 -177 118 -177 128 -177 c 256,2,3
 138 -177 138 -177 146.5 -176 c 128,-1,4
 155 -175 155 -175 163 -171 c 0,5,6
 169 -168 169 -168 174 -162.5 c 128,-1,7
 179 -157 179 -157 188 -140 c 128,-1,8
 197 -123 197 -123 211 -90 c 128,-1,9
 225 -57 225 -57 249 0 c 1,10,-1
 17 520 l 1,11,-1
 69 520 l 1,12,-1
 276 49 l 1,13,-1
 469 520 l 1,14,-1
 518 520 l 1,15,-1
 233 -164 l 2,16,17
 222 -192 222 -192 197.5 -207.5 c 128,-1,18
 173 -223 173 -223 131 -223 c 0,19,20
 127 -223 127 -223 122.5 -223 c 128,-1,21
 118 -223 118 -223 113 -222 c 1,22,-1
 113 -176 l 1,0,1
EndSplineSet
Substitution2: "'ss01' Style Set 1 in Latin lookup 8 subtable" y.alt
Substitution2: "'salt' Stylistic Alternatives in Latin lookup 5 subtable" y.alt
Substitution2: "'smcp' Lowercase to Small Capitals in Latin lookup 2 subtable" Y.sc
AlternateSubs2: "'aalt' Access All Alternates in Latin lookup 1 subtable" Y.sc y.alt
EndChar

StartChar: z
Encoding: 122 122 94
Width: 490
GlyphClass: 2
Flags: W
LayerCount: 2
Fore
SplineSet
32 36 m 1,0,-1
 400 481 l 1,1,-1
 38 481 l 1,2,-1
 38 520 l 1,3,-1
 456 520 l 1,4,-1
 456 484 l 1,5,-1
 89 39 l 1,6,-1
 454 39 l 1,7,-1
 454 0 l 1,8,-1
 32 0 l 1,9,-1
 32 36 l 1,0,-1
EndSplineSet
Substitution2: "'smcp' Lowercase to Small Capitals in Latin lookup 2 subtable" Z.sc
Substitution2: "'aalt' Access All Alternates in Latin lookup 0 subtable" Z.sc
EndChar

StartChar: braceleft
Encoding: 123 123 95
Width: 248
GlyphClass: 2
Flags: W
LayerCount: 2
Fore
SplineSet
141 697 m 1,0,-1
 141 420 l 2,1,2
 141 410 141 410 136.5 392 c 128,-1,3
 132 374 132 374 116 360 c 1,4,5
 132 346 132 346 136.5 327.5 c 128,-1,6
 141 309 141 309 141 300 c 2,7,-1
 141 12 l 1,8,-1
 196 12 l 1,9,-1
 196 -31 l 1,10,-1
 117 -31 l 2,11,12
 109 -31 109 -31 101.5 -24.5 c 128,-1,13
 94 -18 94 -18 94 -1 c 2,14,-1
 94 289 l 2,15,16
 94 307 94 307 85.5 323 c 128,-1,17
 77 339 77 339 59 341 c 1,18,-1
 59 381 l 1,19,20
 69 381 69 381 76 387 c 128,-1,21
 83 393 83 393 87 401 c 128,-1,22
 91 409 91 409 92.5 417.5 c 128,-1,23
 94 426 94 426 94 431 c 2,24,-1
 94 710 l 2,25,26
 94 730 94 730 103 735 c 128,-1,27
 112 740 112 740 117 740 c 2,28,-1
 196 740 l 1,29,-1
 196 697 l 1,30,-1
 141 697 l 1,0,-1
EndSplineSet
EndChar

StartChar: bar
Encoding: 124 124 96
Width: 223
GlyphClass: 2
Flags: W
LayerCount: 2
Fore
SplineSet
89 -130 m 1,0,-1
 89 775 l 1,1,-1
 134 775 l 1,2,-1
 134 -130 l 1,3,-1
 89 -130 l 1,0,-1
EndSplineSet
EndChar

StartChar: braceright
Encoding: 125 125 97
Width: 248
GlyphClass: 2
Flags: W
LayerCount: 2
Fore
SplineSet
52 697 m 1,0,-1
 52 740 l 1,1,-1
 131 740 l 2,2,3
 135 740 135 740 144.5 735 c 128,-1,4
 154 730 154 730 154 710 c 2,5,-1
 154 431 l 2,6,7
 154 426 154 426 155.5 417.5 c 128,-1,8
 157 409 157 409 161 401 c 128,-1,9
 165 393 165 393 171.5 387 c 128,-1,10
 178 381 178 381 189 381 c 1,11,-1
 189 341 l 1,12,13
 170 339 170 339 162 323 c 128,-1,14
 154 307 154 307 154 289 c 2,15,-1
 154 -1 l 2,16,17
 154 -18 154 -18 146.5 -24.5 c 128,-1,18
 139 -31 139 -31 131 -31 c 2,19,-1
 52 -31 l 1,20,-1
 52 12 l 1,21,-1
 107 12 l 1,22,-1
 107 300 l 2,23,24
 107 309 107 309 111.5 327.5 c 128,-1,25
 116 346 116 346 132 360 c 1,26,27
 116 374 116 374 111.5 392 c 128,-1,28
 107 410 107 410 107 420 c 2,29,-1
 107 697 l 1,30,-1
 52 697 l 1,0,-1
EndSplineSet
EndChar

StartChar: asciitilde
Encoding: 126 126 98
Width: 493
GlyphClass: 2
Flags: W
LayerCount: 2
Fore
SplineSet
68 245 m 1,0,1
 68 248 68 248 73 263.5 c 128,-1,2
 78 279 78 279 90 296 c 128,-1,3
 102 313 102 313 120.5 326.5 c 128,-1,4
 139 340 139 340 166 340 c 0,5,6
 188 340 188 340 207.5 330.5 c 128,-1,7
 227 321 227 321 246 310 c 128,-1,8
 265 299 265 299 283.5 289.5 c 128,-1,9
 302 280 302 280 322 280 c 0,10,11
 341 280 341 280 354 287.5 c 128,-1,12
 367 295 367 295 375.5 304.5 c 128,-1,13
 384 314 384 314 388 322.5 c 128,-1,14
 392 331 392 331 392 333 c 2,15,-1
 426 333 l 2,16,17
 426 331 426 331 421 317.5 c 128,-1,18
 416 304 416 304 404 287.5 c 128,-1,19
 392 271 392 271 372 258 c 128,-1,20
 352 245 352 245 322 245 c 0,21,22
 298 245 298 245 277 254 c 128,-1,23
 256 263 256 263 237 274.5 c 128,-1,24
 218 286 218 286 200.5 295 c 128,-1,25
 183 304 183 304 166 304 c 256,26,27
 149 304 149 304 137 295 c 128,-1,28
 125 286 125 286 117 275 c 128,-1,29
 109 264 109 264 105.5 255 c 128,-1,30
 102 246 102 246 102 245 c 2,31,-1
 68 245 l 1,32,-1
 68 245 l 1,0,1
EndSplineSet
EndChar

StartChar: exclamdown
Encoding: 161 161 100
Width: 242
GlyphClass: 2
Flags: W
LayerCount: 2
Fore
SplineSet
146 498 m 1,0,-1
 146 -1 l 1,1,-1
 96 -1 l 1,2,-1
 96 498 l 1,3,-1
 146 498 l 1,0,-1
146 716 m 1,4,-1
 146 614 l 1,5,-1
 96 614 l 1,6,-1
 96 716 l 1,7,-1
 146 716 l 1,4,-1
EndSplineSet
EndChar

StartChar: cent
Encoding: 162 162 101
Width: 554
GlyphClass: 2
Flags: W
LayerCount: 2
Fore
SplineSet
276 -120 m 1,0,-1
 276 -9 l 1,1,2
 225 -5 225 -5 182.5 19.5 c 128,-1,3
 140 44 140 44 109 81 c 128,-1,4
 78 118 78 118 61 164 c 128,-1,5
 44 210 44 210 44 258 c 0,6,7
 44 309 44 309 60.5 356 c 128,-1,8
 77 403 77 403 107.5 439.5 c 128,-1,9
 138 476 138 476 180.5 500 c 128,-1,10
 223 524 223 524 276 528 c 1,11,-1
 276 645 l 1,12,-1
 307 645 l 1,13,-1
 307 528 l 1,14,15
 383 526 383 526 431.5 494 c 128,-1,16
 480 462 480 462 506 408 c 1,17,-1
 458 392 l 1,18,19
 433 437 433 437 394 459 c 128,-1,20
 355 481 355 481 307 483 c 1,21,-1
 307 36 l 1,22,23
 328 36 328 36 353 43 c 128,-1,24
 378 50 378 50 400.5 62.5 c 128,-1,25
 423 75 423 75 440.5 92.5 c 128,-1,26
 458 110 458 110 464 131 c 1,27,-1
 513 117 l 1,28,29
 502 85 502 85 478.5 61.5 c 128,-1,30
 455 38 455 38 426 22 c 128,-1,31
 397 6 397 6 365.5 -2 c 128,-1,32
 334 -10 334 -10 307 -10 c 1,33,-1
 307 -120 l 1,34,-1
 276 -120 l 1,0,-1
95 258 m 0,35,36
 95 217 95 217 108.5 179.5 c 128,-1,37
 122 142 122 142 146.5 112 c 128,-1,38
 171 82 171 82 204 62.5 c 128,-1,39
 237 43 237 43 276 38 c 1,40,-1
 276 481 l 1,41,42
 233 478 233 478 199.5 457.5 c 128,-1,43
 166 437 166 437 142.5 405.5 c 128,-1,44
 119 374 119 374 107 335.5 c 128,-1,45
 95 297 95 297 95 258 c 0,35,36
EndSplineSet
EndChar

StartChar: sterling
Encoding: 163 163 102
Width: 487
GlyphClass: 2
Flags: W
LayerCount: 2
Fore
SplineSet
50 370 m 1,0,-1
 150 370 l 1,1,2
 138 392 138 392 125.5 413 c 128,-1,3
 113 434 113 434 102.5 455 c 128,-1,4
 92 476 92 476 85 498.5 c 128,-1,5
 78 521 78 521 78 546 c 0,6,7
 78 581 78 581 92 611.5 c 128,-1,8
 106 642 106 642 129.5 665 c 128,-1,9
 153 688 153 688 185 701.5 c 128,-1,10
 217 715 217 715 253 715 c 0,11,12
 306 715 306 715 352 686.5 c 128,-1,13
 398 658 398 658 427 610 c 1,14,-1
 395 579 l 1,15,16
 371 622 371 622 332 647 c 128,-1,17
 293 672 293 672 251 672 c 0,18,19
 225 672 225 672 202.5 662 c 128,-1,20
 180 652 180 652 163 634.5 c 128,-1,21
 146 617 146 617 136 594 c 128,-1,22
 126 571 126 571 126 544 c 0,23,24
 126 521 126 521 133 499.5 c 128,-1,25
 140 478 140 478 151 457 c 128,-1,26
 162 436 162 436 175 414.5 c 128,-1,27
 188 393 188 393 199 370 c 1,28,-1
 375 370 l 1,29,-1
 375 329 l 1,30,-1
 216 329 l 1,31,32
 222 311 222 311 225.5 292 c 128,-1,33
 229 273 229 273 229 252 c 0,34,35
 229 226 229 226 223.5 202 c 128,-1,36
 218 178 218 178 205 153 c 128,-1,37
 192 128 192 128 171 101 c 128,-1,38
 150 74 150 74 120 41 c 1,39,40
 157 49 157 49 192 49 c 0,41,42
 214 49 214 49 232.5 46 c 128,-1,43
 251 43 251 43 268 39.5 c 128,-1,44
 285 36 285 36 301.5 33 c 128,-1,45
 318 30 318 30 337 30 c 0,46,47
 357 30 357 30 378.5 34.5 c 128,-1,48
 400 39 400 39 429 49 c 1,49,-1
 442 9 l 1,50,51
 389 -15 389 -15 334 -15 c 0,52,53
 312 -15 312 -15 292.5 -11.5 c 128,-1,54
 273 -8 273 -8 254 -4 c 128,-1,55
 235 0 235 0 215.5 3.5 c 128,-1,56
 196 7 196 7 173 7 c 256,57,58
 150 7 150 7 122 3 c 128,-1,59
 94 -1 94 -1 70 -7 c 1,60,-1
 55 30 l 1,61,62
 92 67 92 67 116.5 97 c 128,-1,63
 141 127 141 127 156 152.5 c 128,-1,64
 171 178 171 178 177 201 c 128,-1,65
 183 224 183 224 183 249 c 0,66,67
 183 271 183 271 179 291 c 128,-1,68
 175 311 175 311 168 329 c 1,69,-1
 50 329 l 1,70,-1
 50 370 l 1,0,-1
EndSplineSet
EndChar

StartChar: currency
Encoding: 164 164 103
Width: 535
GlyphClass: 2
Flags: W
LayerCount: 2
Fore
SplineSet
152 475 m 1,0,1
 175 495 175 495 204 506.5 c 128,-1,2
 233 518 233 518 267 518 c 256,3,4
 301 518 301 518 330.5 506 c 128,-1,5
 360 494 360 494 383 474 c 1,6,-1
 453 545 l 1,7,-1
 480 519 l 1,8,-1
 409 448 l 1,9,10
 426 425 426 425 436 396.5 c 128,-1,11
 446 368 446 368 446 336 c 0,12,13
 446 273 446 273 407 223 c 1,14,-1
 480 152 l 1,15,-1
 456 128 l 1,16,-1
 383 198 l 1,17,18
 360 178 360 178 330.5 167 c 128,-1,19
 301 156 301 156 267 156 c 256,20,21
 233 156 233 156 204 166.5 c 128,-1,22
 175 177 175 177 152 197 c 1,23,-1
 81 128 l 1,24,-1
 57 152 l 1,25,-1
 128 222 l 1,26,27
 89 272 89 272 89 336 c 0,28,29
 89 401 89 401 126 449 c 1,30,-1
 57 519 l 1,31,-1
 83 545 l 1,32,-1
 152 475 l 1,0,1
132 335 m 256,33,34
 132 305 132 305 142.5 279.5 c 128,-1,35
 153 254 153 254 171.5 234.5 c 128,-1,36
 190 215 190 215 214.5 204 c 128,-1,37
 239 193 239 193 267 193 c 256,38,39
 295 193 295 193 319.5 204.5 c 128,-1,40
 344 216 344 216 362.5 235.5 c 128,-1,41
 381 255 381 255 391.5 281 c 128,-1,42
 402 307 402 307 402 337 c 256,43,44
 402 367 402 367 391.5 393 c 128,-1,45
 381 419 381 419 362.5 438.5 c 128,-1,46
 344 458 344 458 319.5 469 c 128,-1,47
 295 480 295 480 267 480 c 256,48,49
 239 480 239 480 214.5 468.5 c 128,-1,50
 190 457 190 457 171.5 437.5 c 128,-1,51
 153 418 153 418 142.5 391.5 c 128,-1,52
 132 365 132 365 132 335 c 256,33,34
EndSplineSet
EndChar

StartChar: yen
Encoding: 165 165 104
Width: 667
GlyphClass: 2
Flags: W
LayerCount: 2
Fore
SplineSet
412 357 m 1,0,-1
 500 357 l 1,1,-1
 500 319 l 1,2,-1
 390 319 l 1,3,-1
 358 268 l 1,4,-1
 358 242 l 1,5,-1
 500 242 l 1,6,-1
 500 205 l 1,7,-1
 358 205 l 1,8,-1
 358 0 l 1,9,-1
 307 0 l 1,10,-1
 307 205 l 1,11,-1
 166 205 l 1,12,-1
 166 242 l 1,13,-1
 307 242 l 1,14,-1
 307 270 l 1,15,-1
 277 319 l 1,16,-1
 166 319 l 1,17,-1
 166 357 l 1,18,-1
 255 357 l 1,19,-1
 28 710 l 1,20,-1
 85 710 l 1,21,-1
 333 317 l 1,22,-1
 582 710 l 1,23,-1
 638 710 l 1,24,-1
 412 357 l 1,0,-1
EndSplineSet
EndChar

StartChar: brokenbar
Encoding: 166 166 105
Width: 226
GlyphClass: 2
Flags: W
LayerCount: 2
Fore
SplineSet
136 280 m 1,0,-1
 136 -130 l 1,1,-1
 91 -130 l 1,2,-1
 91 280 l 1,3,-1
 136 280 l 1,0,-1
136 775 m 1,4,-1
 136 365 l 1,5,-1
 91 365 l 1,6,-1
 91 775 l 1,7,-1
 136 775 l 1,4,-1
EndSplineSet
EndChar

StartChar: section
Encoding: 167 167 106
Width: 497
GlyphClass: 2
Flags: W
LayerCount: 2
Fore
SplineSet
405 190 m 1,0,1
 454 160 454 160 454 84 c 0,2,3
 454 41 454 41 435.5 8.5 c 128,-1,4
 417 -24 417 -24 388.5 -45.5 c 128,-1,5
 360 -67 360 -67 325.5 -77.5 c 128,-1,6
 291 -88 291 -88 258 -88 c 0,7,8
 224 -88 224 -88 195.5 -80.5 c 128,-1,9
 167 -73 167 -73 143 -60.5 c 128,-1,10
 119 -48 119 -48 99.5 -32 c 128,-1,11
 80 -16 80 -16 64 0 c 1,12,-1
 97 31 l 1,13,14
 135 -5 135 -5 173.5 -22.5 c 128,-1,15
 212 -40 212 -40 257 -40 c 0,16,17
 283 -40 283 -40 309 -31.5 c 128,-1,18
 335 -23 335 -23 356 -7.5 c 128,-1,19
 377 8 377 8 390 31 c 128,-1,20
 403 54 403 54 403 83 c 0,21,22
 403 114 403 114 390.5 133.5 c 128,-1,23
 378 153 378 153 358 163.5 c 128,-1,24
 338 174 338 174 313 178 c 128,-1,25
 288 182 288 182 264 183 c 0,26,27
 223 185 223 185 188 195 c 128,-1,28
 153 205 153 205 127.5 224.5 c 128,-1,29
 102 244 102 244 87 273 c 128,-1,30
 72 302 72 302 72 341 c 0,31,32
 72 368 72 368 80.5 392 c 128,-1,33
 89 416 89 416 101 430 c 1,34,35
 77 446 77 446 61.5 477 c 128,-1,36
 46 508 46 508 46 549 c 0,37,38
 46 587 46 587 63 617.5 c 128,-1,39
 80 648 80 648 107 670 c 128,-1,40
 134 692 134 692 168.5 703.5 c 128,-1,41
 203 715 203 715 238 715 c 0,42,43
 309 715 309 715 349.5 689.5 c 128,-1,44
 390 664 390 664 415 627 c 1,45,-1
 375 609 l 1,46,47
 366 627 366 627 350.5 638.5 c 128,-1,48
 335 650 335 650 316.5 656.5 c 128,-1,49
 298 663 298 663 278 666 c 128,-1,50
 258 669 258 669 240 669 c 0,51,52
 214 669 214 669 188 661 c 128,-1,53
 162 653 162 653 142 637.5 c 128,-1,54
 122 622 122 622 109.5 599.5 c 128,-1,55
 97 577 97 577 97 549 c 0,56,57
 97 518 97 518 108 496.5 c 128,-1,58
 119 475 119 475 138 461.5 c 128,-1,59
 157 448 157 448 183.5 442 c 128,-1,60
 210 436 210 436 241 436 c 0,61,62
 277 436 277 436 312.5 428 c 128,-1,63
 348 420 348 420 375.5 402 c 128,-1,64
 403 384 403 384 420.5 355 c 128,-1,65
 438 326 438 326 438 284 c 0,66,67
 438 255 438 255 428.5 230 c 128,-1,68
 419 205 419 205 405 190 c 1,0,1
121 336 m 0,69,70
 121 301 121 301 133.5 280 c 128,-1,71
 146 259 146 259 166 247 c 128,-1,72
 186 235 186 235 211.5 230 c 128,-1,73
 237 225 237 225 263.5 222 c 128,-1,74
 290 219 290 219 314.5 215.5 c 128,-1,75
 339 212 339 212 357 205 c 1,76,77
 372 218 372 218 381 239.5 c 128,-1,78
 390 261 390 261 390 284 c 0,79,80
 390 315 390 315 376 336 c 128,-1,81
 362 357 362 357 340.5 370 c 128,-1,82
 319 383 319 383 293 388 c 128,-1,83
 267 393 267 393 243 393 c 0,84,85
 188 393 188 393 148 410 c 1,86,87
 136 398 136 398 128.5 377.5 c 128,-1,88
 121 357 121 357 121 336 c 0,69,70
EndSplineSet
EndChar

StartChar: dieresis
Encoding: 168 168 107
Width: 294
GlyphClass: 2
Flags: W
LayerCount: 2
Fore
SplineSet
57 640 m 1,0,-1
 57 728 l 1,1,-1
 101 728 l 1,2,-1
 101 640 l 1,3,-1
 57 640 l 1,0,-1
193 640 m 1,4,-1
 193 728 l 1,5,-1
 237 728 l 1,6,-1
 237 640 l 1,7,-1
 193 640 l 1,4,-1
EndSplineSet
EndChar

StartChar: copyright
Encoding: 169 169 108
Width: 829
GlyphClass: 2
Flags: W
LayerCount: 2
Fore
SplineSet
414 -7 m 0,0,1
 336 -7 336 -7 269 20.5 c 128,-1,2
 202 48 202 48 153 96.5 c 128,-1,3
 104 145 104 145 76.5 211 c 128,-1,4
 49 277 49 277 49 355 c 0,5,6
 49 432 49 432 76.5 498 c 128,-1,7
 104 564 104 564 153 612 c 128,-1,8
 202 660 202 660 269 687.5 c 128,-1,9
 336 715 336 715 414 715 c 0,10,11
 493 715 493 715 560 687.5 c 128,-1,12
 627 660 627 660 676 612 c 128,-1,13
 725 564 725 564 752.5 498 c 128,-1,14
 780 432 780 432 780 355 c 0,15,16
 780 277 780 277 752.5 211 c 128,-1,17
 725 145 725 145 676 96.5 c 128,-1,18
 627 48 627 48 560 20.5 c 128,-1,19
 493 -7 493 -7 414 -7 c 0,0,1
414 21 m 0,20,21
 485 21 485 21 546.5 45 c 128,-1,22
 608 69 608 69 653 113 c 128,-1,23
 698 157 698 157 724 217.5 c 128,-1,24
 750 278 750 278 750 352 c 0,25,26
 750 424 750 424 725 485.5 c 128,-1,27
 700 547 700 547 655 592 c 128,-1,28
 610 637 610 637 548.5 662 c 128,-1,29
 487 687 487 687 414 687 c 0,30,31
 342 687 342 687 280.5 662 c 128,-1,32
 219 637 219 637 174.5 592.5 c 128,-1,33
 130 548 130 548 104.5 487 c 128,-1,34
 79 426 79 426 79 354 c 0,35,36
 79 283 79 283 104 222 c 128,-1,37
 129 161 129 161 174 116.5 c 128,-1,38
 219 72 219 72 280.5 46.5 c 128,-1,39
 342 21 342 21 414 21 c 0,20,21
421 124 m 0,40,41
 378 124 378 124 337 140 c 128,-1,42
 296 156 296 156 264 186 c 128,-1,43
 232 216 232 216 212.5 259 c 128,-1,44
 193 302 193 302 193 355 c 0,45,46
 193 396 193 396 206.5 437.5 c 128,-1,47
 220 479 220 479 247 512.5 c 128,-1,48
 274 546 274 546 316 567 c 128,-1,49
 358 588 358 588 415 588 c 0,50,51
 477 588 477 588 527 561 c 128,-1,52
 577 534 577 534 598 481 c 1,53,-1
 550 465 l 1,54,55
 539 489 539 489 522.5 504.5 c 128,-1,56
 506 520 506 520 487 528.5 c 128,-1,57
 468 537 468 537 449 540 c 128,-1,58
 430 543 430 543 415 543 c 0,59,60
 371 543 371 543 339 526 c 128,-1,61
 307 509 307 509 286 482 c 128,-1,62
 265 455 265 455 254.5 421.5 c 128,-1,63
 244 388 244 388 244 355 c 0,64,65
 244 310 244 310 260.5 275.5 c 128,-1,66
 277 241 277 241 302.5 217.5 c 128,-1,67
 328 194 328 194 358.5 181.5 c 128,-1,68
 389 169 389 169 418 169 c 0,69,70
 437 169 437 169 458.5 174.5 c 128,-1,71
 480 180 480 180 499.5 190.5 c 128,-1,72
 519 201 519 201 534.5 216.5 c 128,-1,73
 550 232 550 232 558 251 c 1,74,-1
 606 237 l 1,75,76
 600 220 600 220 584.5 200.5 c 128,-1,77
 569 181 569 181 545 164 c 128,-1,78
 521 147 521 147 489.5 135.5 c 128,-1,79
 458 124 458 124 421 124 c 0,40,41
EndSplineSet
EndChar

StartChar: ordfeminine
Encoding: 170 170 109
Width: 431
GlyphClass: 2
Flags: W
LayerCount: 2
Fore
SplineSet
168 348 m 0,0,1
 143 348 143 348 121 356.5 c 128,-1,2
 99 365 99 365 83 379.5 c 128,-1,3
 67 394 67 394 58 414 c 128,-1,4
 49 434 49 434 49 457 c 0,5,6
 49 504 49 504 90.5 533.5 c 128,-1,7
 132 563 132 563 198 563 c 0,8,9
 227 563 227 563 255 558.5 c 128,-1,10
 283 554 283 554 305 545 c 1,11,-1
 305 576 l 2,12,13
 305 621 305 621 278.5 647.5 c 128,-1,14
 252 674 252 674 204 674 c 0,15,16
 151 674 151 674 89 633 c 1,17,-1
 72 664 l 1,18,19
 142 710 142 710 207 710 c 0,20,21
 276 710 276 710 315 673.5 c 128,-1,22
 354 637 354 637 354 570 c 2,23,-1
 354 417 l 2,24,25
 354 398 354 398 371 397 c 1,26,-1
 371 354 l 1,27,28
 363 353 363 353 357.5 353 c 128,-1,29
 352 353 352 353 347 353 c 0,30,31
 315 356 315 356 312 387 c 2,32,-1
 311 413 l 1,33,34
 286 381 286 381 248.5 364.5 c 128,-1,35
 211 348 211 348 168 348 c 0,0,1
180 386 m 0,36,37
 215 386 215 386 246 398.5 c 128,-1,38
 277 411 277 411 293 432 c 0,39,40
 305 445 305 445 305 459 c 2,41,-1
 305 514 l 1,42,43
 282 524 282 524 257 527.5 c 128,-1,44
 232 531 232 531 206 531 c 0,45,46
 156 531 156 531 126 511.5 c 128,-1,47
 96 492 96 492 96 460 c 256,48,49
 96 428 96 428 120 407 c 128,-1,50
 144 386 144 386 180 386 c 0,36,37
EndSplineSet
EndChar

StartChar: guillemotleft
Encoding: 171 171 110
Width: 552
GlyphClass: 2
Flags: W
LayerCount: 2
Fore
SplineSet
41 273 m 1,0,-1
 285 448 l 1,1,-1
 285 403 l 1,2,-1
 83 259 l 1,3,-1
 285 116 l 1,4,-1
 285 71 l 1,5,-1
 41 243 l 1,6,-1
 41 273 l 1,0,-1
243 273 m 1,7,-1
 487 448 l 1,8,-1
 487 403 l 1,9,-1
 285 259 l 1,10,-1
 487 116 l 1,11,-1
 487 71 l 1,12,-1
 243 243 l 1,13,-1
 243 273 l 1,7,-1
EndSplineSet
EndChar

StartChar: logicalnot
Encoding: 172 172 111
Width: 574
GlyphClass: 2
Flags: W
LayerCount: 2
Fore
SplineSet
504 354 m 1,0,-1
 504 131 l 1,1,-1
 459 131 l 1,2,-1
 459 308 l 1,3,-1
 78 308 l 1,4,-1
 78 354 l 1,5,-1
 504 354 l 1,0,-1
EndSplineSet
EndChar

StartChar: uni00AD
Encoding: 173 173 112
Width: 559
GlyphClass: 2
Flags: W
LayerCount: 2
Fore
SplineSet
67 249 m 1,0,-1
 67 295 l 1,1,-1
 492 295 l 1,2,-1
 492 249 l 1,3,-1
 67 249 l 1,0,-1
EndSplineSet
EndChar

StartChar: registered
Encoding: 174 174 113
Width: 829
GlyphClass: 2
Flags: W
LayerCount: 2
Fore
SplineSet
414 -7 m 0,0,1
 336 -7 336 -7 269 20.5 c 128,-1,2
 202 48 202 48 153 96.5 c 128,-1,3
 104 145 104 145 76.5 211 c 128,-1,4
 49 277 49 277 49 355 c 0,5,6
 49 432 49 432 76.5 498 c 128,-1,7
 104 564 104 564 153 612 c 128,-1,8
 202 660 202 660 269 687.5 c 128,-1,9
 336 715 336 715 414 715 c 0,10,11
 493 715 493 715 560 687.5 c 128,-1,12
 627 660 627 660 676 612 c 128,-1,13
 725 564 725 564 752.5 498 c 128,-1,14
 780 432 780 432 780 355 c 0,15,16
 780 277 780 277 752.5 211 c 128,-1,17
 725 145 725 145 676 96.5 c 128,-1,18
 627 48 627 48 560 20.5 c 128,-1,19
 493 -7 493 -7 414 -7 c 0,0,1
414 21 m 0,20,21
 485 21 485 21 546.5 45 c 128,-1,22
 608 69 608 69 653 113 c 128,-1,23
 698 157 698 157 724 218.5 c 128,-1,24
 750 280 750 280 750 355 c 0,25,26
 750 426 750 426 725 486.5 c 128,-1,27
 700 547 700 547 655 591.5 c 128,-1,28
 610 636 610 636 548.5 661.5 c 128,-1,29
 487 687 487 687 414 687 c 0,30,31
 342 687 342 687 280.5 661.5 c 128,-1,32
 219 636 219 636 174.5 591.5 c 128,-1,33
 130 547 130 547 105 486.5 c 128,-1,34
 80 426 80 426 80 355 c 0,35,36
 80 283 80 283 105 222 c 128,-1,37
 130 161 130 161 174.5 116.5 c 128,-1,38
 219 72 219 72 280.5 46.5 c 128,-1,39
 342 21 342 21 414 21 c 0,20,21
265 581 m 1,40,-1
 455 581 l 2,41,42
 484 581 484 581 508 568.5 c 128,-1,43
 532 556 532 556 549.5 536 c 128,-1,44
 567 516 567 516 577 490.5 c 128,-1,45
 587 465 587 465 587 439 c 0,46,47
 587 414 587 414 579 391 c 128,-1,48
 571 368 571 368 557 349.5 c 128,-1,49
 543 331 543 331 523 318.5 c 128,-1,50
 503 306 503 306 479 303 c 1,51,-1
 592 125 l 1,52,-1
 547 125 l 1,53,-1
 437 298 l 1,54,-1
 305 298 l 1,55,-1
 305 125 l 1,56,-1
 265 125 l 1,57,-1
 265 581 l 1,40,-1
456 334 m 2,58,59
 501 334 501 334 524.5 365 c 128,-1,60
 548 396 548 396 548 439 c 0,61,62
 548 484 548 484 521 513.5 c 128,-1,63
 494 543 494 543 452 543 c 2,64,-1
 305 543 l 1,65,-1
 305 334 l 1,66,-1
 456 334 l 2,58,59
EndSplineSet
EndChar

StartChar: macron
Encoding: 175 175 114
Width: 390
GlyphClass: 2
Flags: W
LayerCount: 2
Fore
SplineSet
53 672 m 1,0,-1
 53 709 l 1,1,-1
 338 709 l 1,2,-1
 338 672 l 1,3,-1
 53 672 l 1,0,-1
EndSplineSet
EndChar

StartChar: degree
Encoding: 176 176 115
Width: 261
GlyphClass: 2
Flags: W
LayerCount: 2
Fore
SplineSet
53 647 m 0,0,1
 53 679 53 679 75.5 701.5 c 128,-1,2
 98 724 98 724 130 724 c 0,3,4
 163 724 163 724 185.5 701.5 c 128,-1,5
 208 679 208 679 208 647 c 0,6,7
 208 613 208 613 185.5 590.5 c 128,-1,8
 163 568 163 568 130 568 c 0,9,10
 98 568 98 568 75.5 591 c 128,-1,11
 53 614 53 614 53 647 c 0,0,1
98 679 m 0,12,13
 85 664 85 664 85 646 c 0,14,15
 85 627 85 627 98 614 c 0,16,17
 104 608 104 608 112 604 c 128,-1,18
 120 600 120 600 130 600 c 256,19,20
 140 600 140 600 148.5 604 c 128,-1,21
 157 608 157 608 163 614 c 0,22,23
 176 627 176 627 176 646 c 0,24,25
 176 664 176 664 163 679 c 0,26,27
 151 692 151 692 130 692 c 0,28,29
 110 692 110 692 98 679 c 0,12,13
EndSplineSet
EndChar

StartChar: plusminus
Encoding: 177 177 116
Width: 468
GlyphClass: 2
Flags: W
LayerCount: 2
Fore
SplineSet
77 70 m 1,0,-1
 77 113 l 1,1,-1
 391 113 l 1,2,-1
 391 70 l 1,3,-1
 77 70 l 1,0,-1
391 382 m 1,4,-1
 391 339 l 1,5,-1
 257 339 l 1,6,-1
 257 195 l 1,7,-1
 211 195 l 1,8,-1
 211 339 l 1,9,-1
 77 339 l 1,10,-1
 77 382 l 1,11,-1
 211 382 l 1,12,-1
 211 526 l 1,13,-1
 257 526 l 1,14,-1
 257 382 l 1,15,-1
 391 382 l 1,4,-1
EndSplineSet
EndChar

StartChar: twosuperior
Encoding: 178 178 117
Width: 381
GlyphClass: 2
Flags: W
LayerCount: 2
Fore
SplineSet
37 413 m 1,0,1
 37 451 37 451 45 479.5 c 128,-1,2
 53 508 53 508 69 529 c 128,-1,3
 85 550 85 550 108.5 565 c 128,-1,4
 132 580 132 580 162 592 c 0,5,6
 185 601 185 601 209.5 609 c 128,-1,7
 234 617 234 617 254 628.5 c 128,-1,8
 274 640 274 640 287 656.5 c 128,-1,9
 300 673 300 673 300 697 c 0,10,11
 300 729 300 729 274 753 c 128,-1,12
 248 777 248 777 194 777 c 0,13,14
 168 777 168 777 147.5 771 c 128,-1,15
 127 765 127 765 111 756.5 c 128,-1,16
 95 748 95 748 84 738 c 128,-1,17
 73 728 73 728 66 720 c 1,18,-1
 42 744 l 1,19,20
 45 748 45 748 56 759 c 128,-1,21
 67 770 67 770 86.5 781.5 c 128,-1,22
 106 793 106 793 134 802 c 128,-1,23
 162 811 162 811 199 811 c 0,24,25
 234 811 234 811 260.5 802 c 128,-1,26
 287 793 287 793 304.5 777 c 128,-1,27
 322 761 322 761 330.5 740.5 c 128,-1,28
 339 720 339 720 339 696 c 0,29,30
 339 665 339 665 324.5 643.5 c 128,-1,31
 310 622 310 622 288.5 607.5 c 128,-1,32
 267 593 267 593 242.5 583.5 c 128,-1,33
 218 574 218 574 197 568 c 0,34,35
 160 556 160 556 139 541 c 128,-1,36
 118 526 118 526 107 510 c 128,-1,37
 96 494 96 494 93 477.5 c 128,-1,38
 90 461 90 461 90 447 c 1,39,-1
 337 447 l 1,40,-1
 337 413 l 1,41,-1
 37 413 l 1,0,1
EndSplineSet
EndChar

StartChar: threesuperior
Encoding: 179 179 118
Width: 386
GlyphClass: 2
Flags: W
LayerCount: 2
Fore
SplineSet
190 407 m 0,0,1
 127 407 127 407 85 432 c 128,-1,2
 43 457 43 457 37 499 c 1,3,-1
 60 520 l 1,4,5
 61 506 61 506 71.5 492 c 128,-1,6
 82 478 82 478 99 467 c 128,-1,7
 116 456 116 456 139.5 449.5 c 128,-1,8
 163 443 163 443 190 443 c 0,9,10
 215 443 215 443 237 448.5 c 128,-1,11
 259 454 259 454 275 464 c 128,-1,12
 291 474 291 474 300.5 488 c 128,-1,13
 310 502 310 502 310 519 c 0,14,15
 310 556 310 556 269.5 577 c 128,-1,16
 229 598 229 598 161 598 c 2,17,-1
 138 598 l 1,18,-1
 138 630 l 1,19,-1
 161 630 l 2,20,21
 225 630 225 630 260.5 647.5 c 128,-1,22
 296 665 296 665 296 700 c 0,23,24
 296 718 296 718 287 732 c 128,-1,25
 278 746 278 746 263 756.5 c 128,-1,26
 248 767 248 767 227.5 772.5 c 128,-1,27
 207 778 207 778 184 778 c 0,28,29
 142 778 142 778 111.5 762.5 c 128,-1,30
 81 747 81 747 67 721 c 1,31,-1
 42 747 l 1,32,33
 59 776 59 776 98 793.5 c 128,-1,34
 137 811 137 811 184 811 c 0,35,36
 216 811 216 811 243.5 802.5 c 128,-1,37
 271 794 271 794 291 779.5 c 128,-1,38
 311 765 311 765 322.5 745 c 128,-1,39
 334 725 334 725 334 702 c 0,40,41
 334 633 334 633 244 615 c 1,42,43
 291 607 291 607 318.5 579.5 c 128,-1,44
 346 552 346 552 346 514 c 0,45,46
 346 490 346 490 333.5 470 c 128,-1,47
 321 450 321 450 300 436 c 128,-1,48
 279 422 279 422 250.5 414.5 c 128,-1,49
 222 407 222 407 190 407 c 0,0,1
EndSplineSet
EndChar

StartChar: acute
Encoding: 180 180 119
Width: 213
GlyphClass: 2
Flags: W
LayerCount: 2
Fore
SplineSet
84 629 m 1,0,-1
 49 645 l 1,1,-1
 110 730 l 1,2,-1
 168 730 l 1,3,-1
 84 629 l 1,0,-1
EndSplineSet
EndChar

StartChar: mu
Encoding: 181 181 120
Width: 613
GlyphClass: 2
Flags: W
LayerCount: 2
Fore
SplineSet
85 520 m 1,0,-1
 135 520 l 1,1,-1
 135 227 l 2,2,3
 135 35 135 35 267 35 c 0,4,5
 300 35 300 35 331 46.5 c 128,-1,6
 362 58 362 58 389 78.5 c 128,-1,7
 416 99 416 99 436.5 128 c 128,-1,8
 457 157 457 157 469 192 c 1,9,-1
 469 520 l 1,10,-1
 519 520 l 1,11,-1
 519 70 l 2,12,13
 519 45 519 45 540 45 c 1,14,-1
 540 0 l 1,15,16
 535 -1 535 -1 531.5 -1 c 128,-1,17
 528 -1 528 -1 525 -1 c 0,18,19
 503 -1 503 -1 488.5 12.5 c 128,-1,20
 474 26 474 26 474 48 c 2,21,-1
 474 123 l 1,22,23
 459 94 459 94 437 69.5 c 128,-1,24
 415 45 415 45 387.5 27.5 c 128,-1,25
 360 10 360 10 329 0 c 128,-1,26
 298 -10 298 -10 265 -10 c 0,27,28
 214 -10 214 -10 181.5 14.5 c 128,-1,29
 149 39 149 39 133 82 c 1,30,-1
 133 -212 l 1,31,-1
 85 -212 l 1,32,-1
 85 520 l 1,0,-1
EndSplineSet
EndChar

StartChar: paragraph
Encoding: 182 182 121
Width: 588
GlyphClass: 2
Flags: W
LayerCount: 2
Fore
SplineSet
33 473 m 0,0,1
 33 585 33 585 107 647.5 c 128,-1,2
 181 710 181 710 315 710 c 2,3,-1
 541 710 l 1,4,-1
 541 669 l 1,5,-1
 471 669 l 1,6,-1
 471 -80 l 1,7,-1
 426 -80 l 1,8,-1
 426 237 l 1,9,-1
 346 237 l 1,10,-1
 346 -80 l 1,11,-1
 301 -80 l 1,12,-1
 301 237 l 1,13,14
 239 238 239 238 189.5 254.5 c 128,-1,15
 140 271 140 271 105 301.5 c 128,-1,16
 70 332 70 332 51.5 375 c 128,-1,17
 33 418 33 418 33 473 c 0,0,1
78 474 m 0,18,19
 78 424 78 424 96 388 c 128,-1,20
 114 352 114 352 144.5 328.5 c 128,-1,21
 175 305 175 305 215.5 293 c 128,-1,22
 256 281 256 281 301 279 c 1,23,-1
 301 669 l 1,24,25
 192 668 192 668 135 616.5 c 128,-1,26
 78 565 78 565 78 474 c 0,18,19
426 669 m 1,27,-1
 346 669 l 1,28,-1
 346 279 l 1,29,-1
 426 279 l 1,30,-1
 426 669 l 1,27,-1
EndSplineSet
EndChar

StartChar: periodcentered
Encoding: 183 183 122
Width: 177
GlyphClass: 2
Flags: W
LayerCount: 2
Fore
SplineSet
67 248 m 1,0,-1
 67 349 l 1,1,-1
 111 349 l 1,2,-1
 111 248 l 1,3,-1
 67 248 l 1,0,-1
EndSplineSet
EndChar

StartChar: cedilla
Encoding: 184 184 123
Width: 271
GlyphClass: 2
Flags: W
LayerCount: 2
Fore
SplineSet
37 -125 m 1,0,1
 51 -132 51 -132 74.5 -138 c 128,-1,2
 98 -144 98 -144 124 -144 c 0,3,4
 182 -144 182 -144 182 -107 c 0,5,6
 182 -87 182 -87 168.5 -79 c 128,-1,7
 155 -71 155 -71 133 -71 c 0,8,9
 112 -71 112 -71 89 -76 c 128,-1,10
 66 -81 66 -81 52 -85 c 1,11,-1
 108 15 l 1,12,-1
 135 3 l 1,13,-1
 101 -53 l 1,14,15
 110 -49 110 -49 121.5 -48 c 128,-1,16
 133 -47 133 -47 141 -47 c 0,17,18
 175 -47 175 -47 194 -62 c 128,-1,19
 213 -77 213 -77 213 -106 c 0,20,21
 213 -138 213 -138 189 -154.5 c 128,-1,22
 165 -171 165 -171 120 -171 c 0,23,24
 91 -171 91 -171 66.5 -165.5 c 128,-1,25
 42 -160 42 -160 23 -152 c 1,26,-1
 37 -125 l 1,0,1
EndSplineSet
EndChar

StartChar: onesuperior
Encoding: 185 185 124
Width: 264
GlyphClass: 2
Flags: W
LayerCount: 2
Fore
SplineSet
243 447 m 1,0,-1
 243 412 l 1,1,-1
 49 412 l 1,2,-1
 49 447 l 1,3,-1
 131 447 l 1,4,-1
 131 769 l 1,5,6
 126 763 126 763 114.5 754.5 c 128,-1,7
 103 746 103 746 89.5 738.5 c 128,-1,8
 76 731 76 731 61.5 726 c 128,-1,9
 47 721 47 721 35 721 c 1,10,-1
 35 756 l 1,11,12
 51 756 51 756 67.5 764 c 128,-1,13
 84 772 84 772 98 782 c 128,-1,14
 112 792 112 792 121 801 c 128,-1,15
 130 810 130 810 131 811 c 2,16,-1
 167 811 l 1,17,-1
 167 447 l 1,18,-1
 243 447 l 1,0,-1
EndSplineSet
EndChar

StartChar: ordmasculine
Encoding: 186 186 125
Width: 449
GlyphClass: 2
Flags: W
LayerCount: 2
Fore
SplineSet
224 348 m 256,0,1
 185 348 185 348 152.5 362.5 c 128,-1,2
 120 377 120 377 96 402 c 128,-1,3
 72 427 72 427 59 459.5 c 128,-1,4
 46 492 46 492 46 528 c 0,5,6
 46 565 46 565 59.5 598 c 128,-1,7
 73 631 73 631 96.5 656 c 128,-1,8
 120 681 120 681 152.5 695.5 c 128,-1,9
 185 710 185 710 224 710 c 256,10,11
 263 710 263 710 295.5 695.5 c 128,-1,12
 328 681 328 681 352 656 c 128,-1,13
 376 631 376 631 389.5 598 c 128,-1,14
 403 565 403 565 403 528 c 0,15,16
 403 492 403 492 389.5 459.5 c 128,-1,17
 376 427 376 427 352.5 402 c 128,-1,18
 329 377 329 377 296 362.5 c 128,-1,19
 263 348 263 348 224 348 c 256,0,1
90 527 m 0,20,21
 90 498 90 498 100.5 472 c 128,-1,22
 111 446 111 446 129 426.5 c 128,-1,23
 147 407 147 407 171.5 396 c 128,-1,24
 196 385 196 385 224 385 c 256,25,26
 252 385 252 385 276.5 396.5 c 128,-1,27
 301 408 301 408 319.5 427.5 c 128,-1,28
 338 447 338 447 348.5 473 c 128,-1,29
 359 499 359 499 359 529 c 256,30,31
 359 559 359 559 348.5 585 c 128,-1,32
 338 611 338 611 319.5 630 c 128,-1,33
 301 649 301 649 276.5 660 c 128,-1,34
 252 671 252 671 224 671 c 0,35,36
 197 671 197 671 172.5 660 c 128,-1,37
 148 649 148 649 129.5 629.5 c 128,-1,38
 111 610 111 610 100.5 583.5 c 128,-1,39
 90 557 90 557 90 527 c 0,20,21
EndSplineSet
EndChar

StartChar: guillemotright
Encoding: 187 187 126
Width: 552
GlyphClass: 2
Flags: W
LayerCount: 2
Fore
SplineSet
511 243 m 1,0,-1
 267 71 l 1,1,-1
 267 116 l 1,2,-1
 469 259 l 1,3,-1
 267 403 l 1,4,-1
 267 448 l 1,5,-1
 511 273 l 1,6,-1
 511 243 l 1,0,-1
310 243 m 1,7,-1
 65 71 l 1,8,-1
 65 116 l 1,9,-1
 268 259 l 1,10,-1
 65 403 l 1,11,-1
 65 448 l 1,12,-1
 310 273 l 1,13,-1
 310 243 l 1,7,-1
EndSplineSet
EndChar

StartChar: onequarter
Encoding: 188 188 127
Width: 795
GlyphClass: 2
Flags: W
LayerCount: 2
Fore
SplineSet
668 0 m 1,0,-1
 668 106 l 1,1,-1
 438 106 l 1,2,-1
 438 138 l 1,3,-1
 678 393 l 1,4,-1
 703 393 l 1,5,-1
 703 140 l 1,6,-1
 760 140 l 1,7,-1
 760 106 l 1,8,-1
 703 106 l 1,9,-1
 703 0 l 1,10,-1
 668 0 l 1,0,-1
478 140 m 1,11,-1
 668 140 l 1,12,-1
 668 342 l 1,13,-1
 478 140 l 1,11,-1
120 21 m 1,14,-1
 399 365 l 1,15,-1
 673 713 l 1,16,-1
 701 690 l 1,17,-1
 422 345 l 1,18,-1
 147 -3 l 1,19,-1
 120 21 l 1,14,-1
254 367 m 1,20,-1
 254 332 l 1,21,-1
 60 332 l 1,22,-1
 60 367 l 1,23,-1
 142 367 l 1,24,-1
 142 689 l 1,25,26
 137 683 137 683 125.5 674.5 c 128,-1,27
 114 666 114 666 100.5 658.5 c 128,-1,28
 87 651 87 651 72.5 646 c 128,-1,29
 58 641 58 641 46 641 c 1,30,-1
 46 676 l 1,31,32
 62 676 62 676 78.5 684 c 128,-1,33
 95 692 95 692 109 702 c 128,-1,34
 123 712 123 712 132 721 c 128,-1,35
 141 730 141 730 142 731 c 2,36,-1
 178 731 l 1,37,-1
 178 367 l 1,38,-1
 254 367 l 1,20,-1
EndSplineSet
EndChar

StartChar: onehalf
Encoding: 189 189 128
Width: 838
GlyphClass: 2
Flags: W
LayerCount: 2
Fore
SplineSet
497 0 m 1,0,1
 497 76 497 76 529 116.5 c 128,-1,2
 561 157 561 157 621 180 c 0,3,4
 643 189 643 189 667 197 c 128,-1,5
 691 205 691 205 710.5 216 c 128,-1,6
 730 227 730 227 742.5 243.5 c 128,-1,7
 755 260 755 260 755 284 c 0,8,9
 755 316 755 316 730.5 338.5 c 128,-1,10
 706 361 706 361 652 361 c 0,11,12
 626 361 626 361 606.5 355 c 128,-1,13
 587 349 587 349 572 340.5 c 128,-1,14
 557 332 557 332 546 322 c 128,-1,15
 535 312 535 312 528 303 c 1,16,-1
 502 331 l 1,17,18
 505 335 505 335 516 346 c 128,-1,19
 527 357 527 357 546 368.5 c 128,-1,20
 565 380 565 380 593 389 c 128,-1,21
 621 398 621 398 657 398 c 0,22,23
 726 398 726 398 760.5 364.5 c 128,-1,24
 795 331 795 331 795 283 c 0,25,26
 795 252 795 252 781 231 c 128,-1,27
 767 210 767 210 746 195.5 c 128,-1,28
 725 181 725 181 701 171.5 c 128,-1,29
 677 162 677 162 656 156 c 0,30,31
 620 145 620 145 599 131.5 c 128,-1,32
 578 118 578 118 567 102 c 128,-1,33
 556 86 556 86 553 69 c 128,-1,34
 550 52 550 52 550 34 c 1,35,-1
 796 34 l 1,36,-1
 796 0 l 1,37,-1
 497 0 l 1,0,1
89 21 m 1,38,-1
 368 365 l 1,39,-1
 642 713 l 1,40,-1
 670 690 l 1,41,-1
 391 345 l 1,42,-1
 116 -3 l 1,43,-1
 89 21 l 1,38,-1
256 367 m 1,44,-1
 256 332 l 1,45,-1
 62 332 l 1,46,-1
 62 367 l 1,47,-1
 144 367 l 1,48,-1
 144 689 l 1,49,50
 139 683 139 683 127.5 674.5 c 128,-1,51
 116 666 116 666 102.5 658.5 c 128,-1,52
 89 651 89 651 74.5 646 c 128,-1,53
 60 641 60 641 48 641 c 1,54,-1
 48 676 l 1,55,56
 64 676 64 676 80.5 684 c 128,-1,57
 97 692 97 692 111 702 c 128,-1,58
 125 712 125 712 134 721 c 128,-1,59
 143 730 143 730 144 731 c 2,60,-1
 180 731 l 1,61,-1
 180 367 l 1,62,-1
 256 367 l 1,44,-1
EndSplineSet
EndChar

StartChar: threequarters
Encoding: 190 190 129
Width: 810
GlyphClass: 2
Flags: W
LayerCount: 2
Fore
SplineSet
196 327 m 0,0,1
 133 327 133 327 91 352 c 128,-1,2
 49 377 49 377 43 419 c 1,3,-1
 66 440 l 1,4,5
 67 426 67 426 77.5 412 c 128,-1,6
 88 398 88 398 105 387 c 128,-1,7
 122 376 122 376 145.5 369.5 c 128,-1,8
 169 363 169 363 196 363 c 0,9,10
 221 363 221 363 243 368.5 c 128,-1,11
 265 374 265 374 281 384 c 128,-1,12
 297 394 297 394 306.5 408 c 128,-1,13
 316 422 316 422 316 439 c 0,14,15
 316 476 316 476 275.5 497 c 128,-1,16
 235 518 235 518 167 518 c 2,17,-1
 144 518 l 1,18,-1
 144 550 l 1,19,-1
 167 550 l 2,20,21
 231 550 231 550 266.5 567.5 c 128,-1,22
 302 585 302 585 302 620 c 0,23,24
 302 638 302 638 293 652 c 128,-1,25
 284 666 284 666 269 676.5 c 128,-1,26
 254 687 254 687 233.5 692.5 c 128,-1,27
 213 698 213 698 190 698 c 0,28,29
 148 698 148 698 117.5 682.5 c 128,-1,30
 87 667 87 667 73 641 c 1,31,-1
 48 667 l 1,32,33
 65 696 65 696 104 713.5 c 128,-1,34
 143 731 143 731 190 731 c 0,35,36
 222 731 222 731 249.5 722.5 c 128,-1,37
 277 714 277 714 297 699.5 c 128,-1,38
 317 685 317 685 328.5 665 c 128,-1,39
 340 645 340 645 340 622 c 0,40,41
 340 553 340 553 250 535 c 1,42,43
 297 527 297 527 324.5 499.5 c 128,-1,44
 352 472 352 472 352 434 c 0,45,46
 352 410 352 410 339.5 390 c 128,-1,47
 327 370 327 370 306 356 c 128,-1,48
 285 342 285 342 256.5 334.5 c 128,-1,49
 228 327 228 327 196 327 c 0,0,1
679 0 m 1,50,-1
 679 106 l 1,51,-1
 449 106 l 1,52,-1
 449 138 l 1,53,-1
 689 393 l 1,54,-1
 714 393 l 1,55,-1
 714 140 l 1,56,-1
 771 140 l 1,57,-1
 771 106 l 1,58,-1
 714 106 l 1,59,-1
 714 0 l 1,60,-1
 679 0 l 1,50,-1
489 140 m 1,61,-1
 679 140 l 1,62,-1
 679 342 l 1,63,-1
 489 140 l 1,61,-1
155 21 m 1,64,-1
 434 365 l 1,65,-1
 708 713 l 1,66,-1
 736 690 l 1,67,-1
 457 345 l 1,68,-1
 182 -3 l 1,69,-1
 155 21 l 1,64,-1
EndSplineSet
EndChar

StartChar: questiondown
Encoding: 191 191 130
Width: 466
GlyphClass: 2
Flags: W
LayerCount: 2
Fore
SplineSet
306 313 m 1,0,1
 306 274 306 274 300.5 246 c 128,-1,2
 295 218 295 218 284 197.5 c 128,-1,3
 273 177 273 177 257 162.5 c 128,-1,4
 241 148 241 148 221 136 c 0,5,6
 200 124 200 124 175 111.5 c 128,-1,7
 150 99 150 99 128.5 81.5 c 128,-1,8
 107 64 107 64 93 38 c 128,-1,9
 79 12 79 12 79 -27 c 0,10,11
 79 -63 79 -63 91.5 -90 c 128,-1,12
 104 -117 104 -117 124.5 -135 c 128,-1,13
 145 -153 145 -153 171.5 -161.5 c 128,-1,14
 198 -170 198 -170 226 -170 c 0,15,16
 283 -170 283 -170 329 -140 c 128,-1,17
 375 -110 375 -110 398 -62 c 1,18,-1
 434 -84 l 1,19,20
 420 -115 420 -115 398 -139 c 128,-1,21
 376 -163 376 -163 348.5 -179.5 c 128,-1,22
 321 -196 321 -196 289.5 -204.5 c 128,-1,23
 258 -213 258 -213 226 -213 c 0,24,25
 189 -213 189 -213 154.5 -201 c 128,-1,26
 120 -189 120 -189 93 -165.5 c 128,-1,27
 66 -142 66 -142 50 -106.5 c 128,-1,28
 34 -71 34 -71 34 -24 c 0,29,30
 34 18 34 18 46.5 47 c 128,-1,31
 59 76 59 76 79.5 96 c 128,-1,32
 100 116 100 116 126 130.5 c 128,-1,33
 152 145 152 145 178 157 c 0,34,35
 199 167 199 167 214.5 177.5 c 128,-1,36
 230 188 230 188 240.5 205 c 128,-1,37
 251 222 251 222 256.5 248 c 128,-1,38
 262 274 262 274 262 313 c 1,39,-1
 306 313 l 1,0,1
305 506 m 1,40,-1
 305 408 l 1,41,-1
 261 408 l 1,42,-1
 261 506 l 1,43,-1
 305 506 l 1,40,-1
EndSplineSet
EndChar

StartChar: Agrave
Encoding: 192 192 131
Width: 675
GlyphClass: 2
Flags: W
LayerCount: 2
Fore
SplineSet
316 710 m 1,0,-1
 360 710 l 1,1,-1
 660 0 l 1,2,-1
 606 0 l 1,3,-1
 507 234 l 1,4,-1
 168 234 l 1,5,-1
 69 0 l 1,6,-1
 14 0 l 1,7,-1
 316 710 l 1,0,-1
493 276 m 1,8,-1
 338 648 l 1,9,-1
 180 276 l 1,10,-1
 493 276 l 1,8,-1
254 918 m 1,11,-1
 311 918 l 1,12,-1
 373 833 l 1,13,-1
 339 817 l 1,14,-1
 254 918 l 1,11,-1
EndSplineSet
EndChar

StartChar: Aacute
Encoding: 193 193 132
Width: 675
GlyphClass: 2
Flags: W
LayerCount: 2
Fore
SplineSet
316 710 m 1,0,-1
 360 710 l 1,1,-1
 660 0 l 1,2,-1
 606 0 l 1,3,-1
 507 234 l 1,4,-1
 168 234 l 1,5,-1
 69 0 l 1,6,-1
 14 0 l 1,7,-1
 316 710 l 1,0,-1
493 276 m 1,8,-1
 338 648 l 1,9,-1
 180 276 l 1,10,-1
 493 276 l 1,8,-1
337 816 m 1,11,-1
 302 832 l 1,12,-1
 363 917 l 1,13,-1
 421 917 l 1,14,-1
 337 816 l 1,11,-1
EndSplineSet
EndChar

StartChar: Acircumflex
Encoding: 194 194 133
Width: 675
GlyphClass: 2
Flags: W
LayerCount: 2
Fore
SplineSet
316 710 m 1,0,-1
 360 710 l 1,1,-1
 660 0 l 1,2,-1
 606 0 l 1,3,-1
 507 234 l 1,4,-1
 168 234 l 1,5,-1
 69 0 l 1,6,-1
 14 0 l 1,7,-1
 316 710 l 1,0,-1
493 276 m 1,8,-1
 338 648 l 1,9,-1
 180 276 l 1,10,-1
 493 276 l 1,8,-1
223 836 m 1,11,-1
 319 917 l 1,12,-1
 356 917 l 1,13,-1
 453 836 l 1,14,-1
 423 819 l 1,15,-1
 338 882 l 1,16,-1
 253 819 l 1,17,-1
 223 836 l 1,11,-1
EndSplineSet
EndChar

StartChar: Atilde
Encoding: 195 195 134
Width: 675
GlyphClass: 2
Flags: W
LayerCount: 2
Fore
SplineSet
316 710 m 1,0,-1
 360 710 l 1,1,-1
 660 0 l 1,2,-1
 606 0 l 1,3,-1
 507 234 l 1,4,-1
 168 234 l 1,5,-1
 69 0 l 1,6,-1
 14 0 l 1,7,-1
 316 710 l 1,0,-1
493 276 m 1,8,-1
 338 648 l 1,9,-1
 180 276 l 1,10,-1
 493 276 l 1,8,-1
399 834 m 0,11,12
 377 834 377 834 360 840 c 128,-1,13
 343 846 343 846 329 853.5 c 128,-1,14
 315 861 315 861 301.5 867.5 c 128,-1,15
 288 874 288 874 273 874 c 0,16,17
 256 874 256 874 246 867 c 128,-1,18
 236 860 236 860 231 851.5 c 128,-1,19
 226 843 226 843 224 835.5 c 128,-1,20
 222 828 222 828 222 826 c 2,21,-1
 188 826 l 1,22,23
 188 830 188 830 191 843.5 c 128,-1,24
 194 857 194 857 203.5 871.5 c 128,-1,25
 213 886 213 886 229.5 897.5 c 128,-1,26
 246 909 246 909 273 909 c 0,27,28
 293 909 293 909 308.5 902.5 c 128,-1,29
 324 896 324 896 338 888.5 c 128,-1,30
 352 881 352 881 366.5 875 c 128,-1,31
 381 869 381 869 400 869 c 0,32,33
 420 869 420 869 431.5 876 c 128,-1,34
 443 883 443 883 448.5 891.5 c 128,-1,35
 454 900 454 900 455.5 907.5 c 128,-1,36
 457 915 457 915 457 917 c 2,37,-1
 491 917 l 1,38,39
 491 912 491 912 487.5 898.5 c 128,-1,40
 484 885 484 885 474.5 871 c 128,-1,41
 465 857 465 857 447 845.5 c 128,-1,42
 429 834 429 834 399 834 c 0,11,12
EndSplineSet
EndChar

StartChar: Adieresis
Encoding: 196 196 135
Width: 675
GlyphClass: 2
Flags: W
LayerCount: 2
Fore
SplineSet
316 710 m 1,0,-1
 360 710 l 1,1,-1
 660 0 l 1,2,-1
 606 0 l 1,3,-1
 507 234 l 1,4,-1
 168 234 l 1,5,-1
 69 0 l 1,6,-1
 14 0 l 1,7,-1
 316 710 l 1,0,-1
493 276 m 1,8,-1
 338 648 l 1,9,-1
 180 276 l 1,10,-1
 493 276 l 1,8,-1
248 828 m 1,11,-1
 248 916 l 1,12,-1
 292 916 l 1,13,-1
 292 828 l 1,14,-1
 248 828 l 1,11,-1
384 828 m 1,15,-1
 384 916 l 1,16,-1
 428 916 l 1,17,-1
 428 828 l 1,18,-1
 384 828 l 1,15,-1
EndSplineSet
EndChar

StartChar: Aring
Encoding: 197 197 136
Width: 675
GlyphClass: 2
Flags: W
LayerCount: 2
Fore
SplineSet
316 710 m 1,0,-1
 360 710 l 1,1,-1
 660 0 l 1,2,-1
 606 0 l 1,3,-1
 507 234 l 1,4,-1
 168 234 l 1,5,-1
 69 0 l 1,6,-1
 14 0 l 1,7,-1
 316 710 l 1,0,-1
493 276 m 1,8,-1
 338 648 l 1,9,-1
 180 276 l 1,10,-1
 493 276 l 1,8,-1
269 855 m 0,11,12
 269 882 269 882 288.5 899.5 c 128,-1,13
 308 917 308 917 337 917 c 256,14,15
 366 917 366 917 385.5 899.5 c 128,-1,16
 405 882 405 882 405 855 c 0,17,18
 405 827 405 827 385.5 809.5 c 128,-1,19
 366 792 366 792 337 792 c 256,20,21
 308 792 308 792 288.5 809.5 c 128,-1,22
 269 827 269 827 269 855 c 0,11,12
337 894 m 256,23,24
 320 894 320 894 308.5 883.5 c 128,-1,25
 297 873 297 873 297 855 c 0,26,27
 297 838 297 838 308.5 826.5 c 128,-1,28
 320 815 320 815 337 815 c 0,29,30
 353 815 353 815 365.5 826.5 c 128,-1,31
 378 838 378 838 378 855 c 0,32,33
 378 873 378 873 366 883.5 c 128,-1,34
 354 894 354 894 337 894 c 256,23,24
EndSplineSet
EndChar

StartChar: AE
Encoding: 198 198 137
Width: 962
GlyphClass: 2
Flags: W
LayerCount: 2
Fore
SplineSet
434 710 m 1,0,-1
 908 710 l 1,1,-1
 908 664 l 1,2,-1
 498 664 l 1,3,-1
 498 386 l 1,4,-1
 854 386 l 1,5,-1
 854 339 l 1,6,-1
 498 339 l 1,7,-1
 498 46 l 1,8,-1
 917 46 l 1,9,-1
 917 0 l 1,10,-1
 448 0 l 1,11,-1
 448 234 l 1,12,-1
 181 234 l 1,13,-1
 30 0 l 1,14,-1
 -27 0 l 1,15,-1
 434 710 l 1,0,-1
445 280 m 1,16,-1
 445 646 l 1,17,-1
 205 280 l 1,18,-1
 445 280 l 1,16,-1
EndSplineSet
EndChar

StartChar: Ccedilla
Encoding: 199 199 138
Width: 687
GlyphClass: 2
Flags: W
LayerCount: 2
Fore
SplineSet
296 -125 m 1,0,1
 310 -132 310 -132 333.5 -138 c 128,-1,2
 357 -144 357 -144 383 -144 c 0,3,4
 441 -144 441 -144 441 -107 c 0,5,6
 441 -87 441 -87 427.5 -79 c 128,-1,7
 414 -71 414 -71 392 -71 c 0,8,9
 371 -71 371 -71 348 -76 c 128,-1,10
 325 -81 325 -81 311 -85 c 1,11,-1
 355 -5 l 1,12,13
 285 -2 285 -2 227 31 c 128,-1,14
 169 64 169 64 127.5 115 c 128,-1,15
 86 166 86 166 63 230 c 128,-1,16
 40 294 40 294 40 360 c 0,17,18
 40 424 40 424 62.5 487.5 c 128,-1,19
 85 551 85 551 128 601 c 128,-1,20
 171 651 171 651 233.5 682.5 c 128,-1,21
 296 714 296 714 376 714 c 0,22,23
 471 714 471 714 538 670.5 c 128,-1,24
 605 627 605 627 638 559 c 1,25,-1
 596 535 l 1,26,27
 577 572 577 572 551.5 597 c 128,-1,28
 526 622 526 622 496.5 637.5 c 128,-1,29
 467 653 467 653 435 660 c 128,-1,30
 403 667 403 667 372 667 c 0,31,32
 304 667 304 667 252 639.5 c 128,-1,33
 200 612 200 612 164 568 c 128,-1,34
 128 524 128 524 109.5 468.5 c 128,-1,35
 91 413 91 413 91 357 c 0,36,37
 91 294 91 294 113 237 c 128,-1,38
 135 180 135 180 173 136.5 c 128,-1,39
 211 93 211 93 263 67 c 128,-1,40
 315 41 315 41 375 41 c 0,41,42
 407 41 407 41 441 49 c 128,-1,43
 475 57 475 57 506 74 c 128,-1,44
 537 91 537 91 564 117.5 c 128,-1,45
 591 144 591 144 609 180 c 1,46,-1
 653 159 l 1,47,48
 636 121 636 121 607.5 91.5 c 128,-1,49
 579 62 579 62 543.5 41 c 128,-1,50
 508 20 508 20 468 8.5 c 128,-1,51
 428 -3 428 -3 389 -5 c 1,52,-1
 360 -53 l 1,53,54
 369 -49 369 -49 380.5 -48 c 128,-1,55
 392 -47 392 -47 400 -47 c 0,56,57
 434 -47 434 -47 453 -62 c 128,-1,58
 472 -77 472 -77 472 -106 c 0,59,60
 472 -138 472 -138 448 -154.5 c 128,-1,61
 424 -171 424 -171 379 -171 c 0,62,63
 350 -171 350 -171 325.5 -165.5 c 128,-1,64
 301 -160 301 -160 282 -152 c 1,65,-1
 296 -125 l 1,0,1
EndSplineSet
EndChar

StartChar: Egrave
Encoding: 200 200 139
Width: 612
GlyphClass: 2
Flags: W
LayerCount: 2
Fore
SplineSet
566 46 m 1,0,-1
 566 0 l 1,1,-1
 93 0 l 1,2,-1
 93 710 l 1,3,-1
 557 710 l 1,4,-1
 557 664 l 1,5,-1
 144 664 l 1,6,-1
 144 385 l 1,7,-1
 505 385 l 1,8,-1
 505 341 l 1,9,-1
 144 341 l 1,10,-1
 144 46 l 1,11,-1
 566 46 l 1,0,-1
256 918 m 1,12,-1
 313 918 l 1,13,-1
 375 833 l 1,14,-1
 341 817 l 1,15,-1
 256 918 l 1,12,-1
EndSplineSet
EndChar

StartChar: Eacute
Encoding: 201 201 140
Width: 612
GlyphClass: 2
Flags: W
LayerCount: 2
Fore
SplineSet
339 816 m 1,0,-1
 304 832 l 1,1,-1
 365 917 l 1,2,-1
 423 917 l 1,3,-1
 339 816 l 1,0,-1
566 46 m 1,4,-1
 566 0 l 1,5,-1
 93 0 l 1,6,-1
 93 710 l 1,7,-1
 557 710 l 1,8,-1
 557 664 l 1,9,-1
 144 664 l 1,10,-1
 144 385 l 1,11,-1
 505 385 l 1,12,-1
 505 341 l 1,13,-1
 144 341 l 1,14,-1
 144 46 l 1,15,-1
 566 46 l 1,4,-1
EndSplineSet
EndChar

StartChar: Ecircumflex
Encoding: 202 202 141
Width: 612
GlyphClass: 2
Flags: W
LayerCount: 2
Fore
SplineSet
225 836 m 1,0,-1
 321 917 l 1,1,-1
 358 917 l 1,2,-1
 455 836 l 1,3,-1
 425 819 l 1,4,-1
 340 882 l 1,5,-1
 255 819 l 1,6,-1
 225 836 l 1,0,-1
566 46 m 1,7,-1
 566 0 l 1,8,-1
 93 0 l 1,9,-1
 93 710 l 1,10,-1
 557 710 l 1,11,-1
 557 664 l 1,12,-1
 144 664 l 1,13,-1
 144 385 l 1,14,-1
 505 385 l 1,15,-1
 505 341 l 1,16,-1
 144 341 l 1,17,-1
 144 46 l 1,18,-1
 566 46 l 1,7,-1
EndSplineSet
EndChar

StartChar: Edieresis
Encoding: 203 203 142
Width: 612
GlyphClass: 2
Flags: W
LayerCount: 2
Fore
SplineSet
249 828 m 1,0,-1
 249 916 l 1,1,-1
 293 916 l 1,2,-1
 293 828 l 1,3,-1
 249 828 l 1,0,-1
385 828 m 1,4,-1
 385 916 l 1,5,-1
 429 916 l 1,6,-1
 429 828 l 1,7,-1
 385 828 l 1,4,-1
566 46 m 1,8,-1
 566 0 l 1,9,-1
 93 0 l 1,10,-1
 93 710 l 1,11,-1
 557 710 l 1,12,-1
 557 664 l 1,13,-1
 144 664 l 1,14,-1
 144 385 l 1,15,-1
 505 385 l 1,16,-1
 505 341 l 1,17,-1
 144 341 l 1,18,-1
 144 46 l 1,19,-1
 566 46 l 1,8,-1
EndSplineSet
EndChar

StartChar: Igrave
Encoding: 204 204 143
Width: 237
GlyphClass: 2
Flags: W
LayerCount: 2
Fore
SplineSet
93 0 m 1,0,-1
 93 710 l 1,1,-1
 144 710 l 1,2,-1
 144 0 l 1,3,-1
 93 0 l 1,0,-1
34 918 m 1,4,-1
 91 918 l 1,5,-1
 153 833 l 1,6,-1
 119 817 l 1,7,-1
 34 918 l 1,4,-1
EndSplineSet
EndChar

StartChar: Iacute
Encoding: 205 205 144
Width: 237
GlyphClass: 2
Flags: W
LayerCount: 2
Fore
SplineSet
93 0 m 1,0,-1
 93 710 l 1,1,-1
 144 710 l 1,2,-1
 144 0 l 1,3,-1
 93 0 l 1,0,-1
117 816 m 1,4,-1
 82 832 l 1,5,-1
 143 917 l 1,6,-1
 201 917 l 1,7,-1
 117 816 l 1,4,-1
EndSplineSet
EndChar

StartChar: Icircumflex
Encoding: 206 206 145
Width: 237
GlyphClass: 2
Flags: W
LayerCount: 2
Fore
SplineSet
93 0 m 1,0,-1
 93 710 l 1,1,-1
 144 710 l 1,2,-1
 144 0 l 1,3,-1
 93 0 l 1,0,-1
3 836 m 1,4,-1
 99 917 l 1,5,-1
 136 917 l 1,6,-1
 233 836 l 1,7,-1
 203 819 l 1,8,-1
 118 882 l 1,9,-1
 33 819 l 1,10,-1
 3 836 l 1,4,-1
EndSplineSet
EndChar

StartChar: Idieresis
Encoding: 207 207 146
Width: 237
GlyphClass: 2
Flags: W
LayerCount: 2
Fore
SplineSet
93 0 m 1,0,-1
 93 710 l 1,1,-1
 144 710 l 1,2,-1
 144 0 l 1,3,-1
 93 0 l 1,0,-1
28 828 m 1,4,-1
 28 916 l 1,5,-1
 72 916 l 1,6,-1
 72 828 l 1,7,-1
 28 828 l 1,4,-1
164 828 m 1,8,-1
 164 916 l 1,9,-1
 208 916 l 1,10,-1
 208 828 l 1,11,-1
 164 828 l 1,8,-1
EndSplineSet
EndChar

StartChar: Eth
Encoding: 208 208 147
Width: 720
GlyphClass: 2
Flags: W
LayerCount: 2
Fore
SplineSet
100 0 m 1,0,-1
 100 336 l 1,1,-1
 35 336 l 1,2,-1
 35 378 l 1,3,-1
 100 378 l 1,4,-1
 100 710 l 1,5,-1
 336 710 l 2,6,7
 420 710 420 710 483.5 682 c 128,-1,8
 547 654 547 654 589 606 c 128,-1,9
 631 558 631 558 652 493.5 c 128,-1,10
 673 429 673 429 673 356 c 0,11,12
 673 275 673 275 649.5 209.5 c 128,-1,13
 626 144 626 144 582 97.5 c 128,-1,14
 538 51 538 51 475.5 25.5 c 128,-1,15
 413 0 413 0 336 0 c 2,16,-1
 100 0 l 1,0,-1
622 356 m 0,17,18
 622 423 622 423 603 479.5 c 128,-1,19
 584 536 584 536 547.5 577 c 128,-1,20
 511 618 511 618 458 641 c 128,-1,21
 405 664 405 664 336 664 c 2,22,-1
 151 664 l 1,23,-1
 151 378 l 1,24,-1
 329 378 l 1,25,-1
 329 336 l 1,26,-1
 151 336 l 1,27,-1
 151 46 l 1,28,-1
 336 46 l 2,29,30
 406 46 406 46 459.5 69.5 c 128,-1,31
 513 93 513 93 549 135 c 128,-1,32
 585 177 585 177 603.5 233.5 c 128,-1,33
 622 290 622 290 622 356 c 0,17,18
EndSplineSet
EndChar

StartChar: Ntilde
Encoding: 209 209 148
Width: 773
GlyphClass: 2
Flags: W
LayerCount: 2
Fore
SplineSet
144 614 m 1,0,-1
 144 0 l 1,1,-1
 93 0 l 1,2,-1
 93 710 l 1,3,-1
 132 710 l 1,4,-1
 630 85 l 1,5,-1
 630 710 l 1,6,-1
 681 710 l 1,7,-1
 681 0 l 1,8,-1
 634 0 l 1,9,-1
 144 614 l 1,0,-1
452 834 m 0,10,11
 430 834 430 834 413 840 c 128,-1,12
 396 846 396 846 382 853.5 c 128,-1,13
 368 861 368 861 354.5 867.5 c 128,-1,14
 341 874 341 874 326 874 c 0,15,16
 309 874 309 874 299 867 c 128,-1,17
 289 860 289 860 284 851.5 c 128,-1,18
 279 843 279 843 277 835.5 c 128,-1,19
 275 828 275 828 275 826 c 2,20,-1
 241 826 l 1,21,22
 241 830 241 830 244 843.5 c 128,-1,23
 247 857 247 857 256.5 871.5 c 128,-1,24
 266 886 266 886 282.5 897.5 c 128,-1,25
 299 909 299 909 326 909 c 0,26,27
 346 909 346 909 361.5 902.5 c 128,-1,28
 377 896 377 896 391 888.5 c 128,-1,29
 405 881 405 881 419.5 875 c 128,-1,30
 434 869 434 869 453 869 c 0,31,32
 473 869 473 869 484.5 876 c 128,-1,33
 496 883 496 883 501.5 891.5 c 128,-1,34
 507 900 507 900 508.5 907.5 c 128,-1,35
 510 915 510 915 510 917 c 2,36,-1
 544 917 l 1,37,38
 544 912 544 912 540.5 898.5 c 128,-1,39
 537 885 537 885 527.5 871 c 128,-1,40
 518 857 518 857 500 845.5 c 128,-1,41
 482 834 482 834 452 834 c 0,10,11
EndSplineSet
EndChar

StartChar: Ograve
Encoding: 210 210 149
Width: 753
GlyphClass: 2
Flags: W
LayerCount: 2
Fore
SplineSet
376 -5 m 0,0,1
 302 -5 302 -5 241 26 c 128,-1,2
 180 57 180 57 136 107 c 128,-1,3
 92 157 92 157 68 222 c 128,-1,4
 44 287 44 287 44 355 c 0,5,6
 44 426 44 426 69.5 491 c 128,-1,7
 95 556 95 556 139.5 606 c 128,-1,8
 184 656 184 656 245 685.5 c 128,-1,9
 306 715 306 715 377 715 c 0,10,11
 451 715 451 715 512.5 683.5 c 128,-1,12
 574 652 574 652 617.5 601 c 128,-1,13
 661 550 661 550 685 485.5 c 128,-1,14
 709 421 709 421 709 355 c 0,15,16
 709 283 709 283 683.5 218 c 128,-1,17
 658 153 658 153 613.5 103.5 c 128,-1,18
 569 54 569 54 508 24.5 c 128,-1,19
 447 -5 447 -5 376 -5 c 0,0,1
95 355 m 0,20,21
 95 294 95 294 115.5 237.5 c 128,-1,22
 136 181 136 181 173.5 137.5 c 128,-1,23
 211 94 211 94 263 68 c 128,-1,24
 315 42 315 42 377 42 c 0,25,26
 441 42 441 42 492.5 69 c 128,-1,27
 544 96 544 96 580.5 140.5 c 128,-1,28
 617 185 617 185 637 241 c 128,-1,29
 657 297 657 297 657 355 c 0,30,31
 657 416 657 416 636 472.5 c 128,-1,32
 615 529 615 529 577.5 572.5 c 128,-1,33
 540 616 540 616 489 642 c 128,-1,34
 438 668 438 668 377 668 c 0,35,36
 313 668 313 668 261 641 c 128,-1,37
 209 614 209 614 172 569.5 c 128,-1,38
 135 525 135 525 115 469 c 128,-1,39
 95 413 95 413 95 355 c 0,20,21
293 918 m 1,40,-1
 350 918 l 1,41,-1
 412 833 l 1,42,-1
 378 817 l 1,43,-1
 293 918 l 1,40,-1
EndSplineSet
EndChar

StartChar: Oacute
Encoding: 211 211 150
Width: 753
GlyphClass: 2
Flags: W
LayerCount: 2
Fore
SplineSet
376 816 m 1,0,-1
 341 832 l 1,1,-1
 402 917 l 1,2,-1
 460 917 l 1,3,-1
 376 816 l 1,0,-1
376 -5 m 0,4,5
 302 -5 302 -5 241 26 c 128,-1,6
 180 57 180 57 136 107 c 128,-1,7
 92 157 92 157 68 222 c 128,-1,8
 44 287 44 287 44 355 c 0,9,10
 44 426 44 426 69.5 491 c 128,-1,11
 95 556 95 556 139.5 606 c 128,-1,12
 184 656 184 656 245 685.5 c 128,-1,13
 306 715 306 715 377 715 c 0,14,15
 451 715 451 715 512.5 683.5 c 128,-1,16
 574 652 574 652 617.5 601 c 128,-1,17
 661 550 661 550 685 485.5 c 128,-1,18
 709 421 709 421 709 355 c 0,19,20
 709 283 709 283 683.5 218 c 128,-1,21
 658 153 658 153 613.5 103.5 c 128,-1,22
 569 54 569 54 508 24.5 c 128,-1,23
 447 -5 447 -5 376 -5 c 0,4,5
95 355 m 0,24,25
 95 294 95 294 115.5 237.5 c 128,-1,26
 136 181 136 181 173.5 137.5 c 128,-1,27
 211 94 211 94 263 68 c 128,-1,28
 315 42 315 42 377 42 c 0,29,30
 441 42 441 42 492.5 69 c 128,-1,31
 544 96 544 96 580.5 140.5 c 128,-1,32
 617 185 617 185 637 241 c 128,-1,33
 657 297 657 297 657 355 c 0,34,35
 657 416 657 416 636 472.5 c 128,-1,36
 615 529 615 529 577.5 572.5 c 128,-1,37
 540 616 540 616 489 642 c 128,-1,38
 438 668 438 668 377 668 c 0,39,40
 313 668 313 668 261 641 c 128,-1,41
 209 614 209 614 172 569.5 c 128,-1,42
 135 525 135 525 115 469 c 128,-1,43
 95 413 95 413 95 355 c 0,24,25
EndSplineSet
EndChar

StartChar: Ocircumflex
Encoding: 212 212 151
Width: 753
GlyphClass: 2
Flags: W
LayerCount: 2
Fore
SplineSet
262 836 m 1,0,-1
 358 917 l 1,1,-1
 395 917 l 1,2,-1
 492 836 l 1,3,-1
 462 819 l 1,4,-1
 377 882 l 1,5,-1
 292 819 l 1,6,-1
 262 836 l 1,0,-1
376 -5 m 0,7,8
 302 -5 302 -5 241 26 c 128,-1,9
 180 57 180 57 136 107 c 128,-1,10
 92 157 92 157 68 222 c 128,-1,11
 44 287 44 287 44 355 c 0,12,13
 44 426 44 426 69.5 491 c 128,-1,14
 95 556 95 556 139.5 606 c 128,-1,15
 184 656 184 656 245 685.5 c 128,-1,16
 306 715 306 715 377 715 c 0,17,18
 451 715 451 715 512.5 683.5 c 128,-1,19
 574 652 574 652 617.5 601 c 128,-1,20
 661 550 661 550 685 485.5 c 128,-1,21
 709 421 709 421 709 355 c 0,22,23
 709 283 709 283 683.5 218 c 128,-1,24
 658 153 658 153 613.5 103.5 c 128,-1,25
 569 54 569 54 508 24.5 c 128,-1,26
 447 -5 447 -5 376 -5 c 0,7,8
95 355 m 0,27,28
 95 294 95 294 115.5 237.5 c 128,-1,29
 136 181 136 181 173.5 137.5 c 128,-1,30
 211 94 211 94 263 68 c 128,-1,31
 315 42 315 42 377 42 c 0,32,33
 441 42 441 42 492.5 69 c 128,-1,34
 544 96 544 96 580.5 140.5 c 128,-1,35
 617 185 617 185 637 241 c 128,-1,36
 657 297 657 297 657 355 c 0,37,38
 657 416 657 416 636 472.5 c 128,-1,39
 615 529 615 529 577.5 572.5 c 128,-1,40
 540 616 540 616 489 642 c 128,-1,41
 438 668 438 668 377 668 c 0,42,43
 313 668 313 668 261 641 c 128,-1,44
 209 614 209 614 172 569.5 c 128,-1,45
 135 525 135 525 115 469 c 128,-1,46
 95 413 95 413 95 355 c 0,27,28
EndSplineSet
EndChar

StartChar: Otilde
Encoding: 213 213 152
Width: 753
GlyphClass: 2
Flags: W
LayerCount: 2
Fore
SplineSet
376 -5 m 0,0,1
 302 -5 302 -5 241 26 c 128,-1,2
 180 57 180 57 136 107 c 128,-1,3
 92 157 92 157 68 222 c 128,-1,4
 44 287 44 287 44 355 c 0,5,6
 44 426 44 426 69.5 491 c 128,-1,7
 95 556 95 556 139.5 606 c 128,-1,8
 184 656 184 656 245 685.5 c 128,-1,9
 306 715 306 715 377 715 c 0,10,11
 451 715 451 715 512.5 683.5 c 128,-1,12
 574 652 574 652 617.5 601 c 128,-1,13
 661 550 661 550 685 485.5 c 128,-1,14
 709 421 709 421 709 355 c 0,15,16
 709 283 709 283 683.5 218 c 128,-1,17
 658 153 658 153 613.5 103.5 c 128,-1,18
 569 54 569 54 508 24.5 c 128,-1,19
 447 -5 447 -5 376 -5 c 0,0,1
95 355 m 0,20,21
 95 294 95 294 115.5 237.5 c 128,-1,22
 136 181 136 181 173.5 137.5 c 128,-1,23
 211 94 211 94 263 68 c 128,-1,24
 315 42 315 42 377 42 c 0,25,26
 441 42 441 42 492.5 69 c 128,-1,27
 544 96 544 96 580.5 140.5 c 128,-1,28
 617 185 617 185 637 241 c 128,-1,29
 657 297 657 297 657 355 c 0,30,31
 657 416 657 416 636 472.5 c 128,-1,32
 615 529 615 529 577.5 572.5 c 128,-1,33
 540 616 540 616 489 642 c 128,-1,34
 438 668 438 668 377 668 c 0,35,36
 313 668 313 668 261 641 c 128,-1,37
 209 614 209 614 172 569.5 c 128,-1,38
 135 525 135 525 115 469 c 128,-1,39
 95 413 95 413 95 355 c 0,20,21
438 834 m 0,40,41
 416 834 416 834 399 840 c 128,-1,42
 382 846 382 846 368 853.5 c 128,-1,43
 354 861 354 861 340.5 867.5 c 128,-1,44
 327 874 327 874 312 874 c 0,45,46
 295 874 295 874 285 867 c 128,-1,47
 275 860 275 860 270 851.5 c 128,-1,48
 265 843 265 843 263 835.5 c 128,-1,49
 261 828 261 828 261 826 c 2,50,-1
 227 826 l 1,51,52
 227 830 227 830 230 843.5 c 128,-1,53
 233 857 233 857 242.5 871.5 c 128,-1,54
 252 886 252 886 268.5 897.5 c 128,-1,55
 285 909 285 909 312 909 c 0,56,57
 332 909 332 909 347.5 902.5 c 128,-1,58
 363 896 363 896 377 888.5 c 128,-1,59
 391 881 391 881 405.5 875 c 128,-1,60
 420 869 420 869 439 869 c 0,61,62
 459 869 459 869 470.5 876 c 128,-1,63
 482 883 482 883 487.5 891.5 c 128,-1,64
 493 900 493 900 494.5 907.5 c 128,-1,65
 496 915 496 915 496 917 c 2,66,-1
 530 917 l 1,67,68
 530 912 530 912 526.5 898.5 c 128,-1,69
 523 885 523 885 513.5 871 c 128,-1,70
 504 857 504 857 486 845.5 c 128,-1,71
 468 834 468 834 438 834 c 0,40,41
EndSplineSet
EndChar

StartChar: Odieresis
Encoding: 214 214 153
Width: 753
GlyphClass: 2
Flags: W
LayerCount: 2
Fore
SplineSet
287 828 m 1,0,-1
 287 916 l 1,1,-1
 331 916 l 1,2,-1
 331 828 l 1,3,-1
 287 828 l 1,0,-1
423 828 m 1,4,-1
 423 916 l 1,5,-1
 467 916 l 1,6,-1
 467 828 l 1,7,-1
 423 828 l 1,4,-1
376 -5 m 0,8,9
 302 -5 302 -5 241 26 c 128,-1,10
 180 57 180 57 136 107 c 128,-1,11
 92 157 92 157 68 222 c 128,-1,12
 44 287 44 287 44 355 c 0,13,14
 44 426 44 426 69.5 491 c 128,-1,15
 95 556 95 556 139.5 606 c 128,-1,16
 184 656 184 656 245 685.5 c 128,-1,17
 306 715 306 715 377 715 c 0,18,19
 451 715 451 715 512.5 683.5 c 128,-1,20
 574 652 574 652 617.5 601 c 128,-1,21
 661 550 661 550 685 485.5 c 128,-1,22
 709 421 709 421 709 355 c 0,23,24
 709 283 709 283 683.5 218 c 128,-1,25
 658 153 658 153 613.5 103.5 c 128,-1,26
 569 54 569 54 508 24.5 c 128,-1,27
 447 -5 447 -5 376 -5 c 0,8,9
95 355 m 0,28,29
 95 294 95 294 115.5 237.5 c 128,-1,30
 136 181 136 181 173.5 137.5 c 128,-1,31
 211 94 211 94 263 68 c 128,-1,32
 315 42 315 42 377 42 c 0,33,34
 441 42 441 42 492.5 69 c 128,-1,35
 544 96 544 96 580.5 140.5 c 128,-1,36
 617 185 617 185 637 241 c 128,-1,37
 657 297 657 297 657 355 c 0,38,39
 657 416 657 416 636 472.5 c 128,-1,40
 615 529 615 529 577.5 572.5 c 128,-1,41
 540 616 540 616 489 642 c 128,-1,42
 438 668 438 668 377 668 c 0,43,44
 313 668 313 668 261 641 c 128,-1,45
 209 614 209 614 172 569.5 c 128,-1,46
 135 525 135 525 115 469 c 128,-1,47
 95 413 95 413 95 355 c 0,28,29
EndSplineSet
EndChar

StartChar: multiply
Encoding: 215 215 154
Width: 451
GlyphClass: 2
Flags: W
LayerCount: 2
Fore
SplineSet
385 145 m 1,0,-1
 352 113 l 1,1,-1
 225 239 l 1,2,-1
 99 113 l 1,3,-1
 67 146 l 1,4,-1
 192 271 l 1,5,-1
 67 398 l 1,6,-1
 100 430 l 1,7,-1
 225 304 l 1,8,-1
 352 431 l 1,9,-1
 384 398 l 1,10,-1
 258 271 l 1,11,-1
 385 145 l 1,0,-1
EndSplineSet
EndChar

StartChar: Oslash
Encoding: 216 216 155
Width: 753
GlyphClass: 2
Flags: W
LayerCount: 2
Fore
SplineSet
639 710 m 1,0,-1
 587 632 l 1,1,2
 645 579 645 579 677 505.5 c 128,-1,3
 709 432 709 432 709 355 c 0,4,5
 709 283 709 283 683.5 218 c 128,-1,6
 658 153 658 153 613.5 103.5 c 128,-1,7
 569 54 569 54 508 24.5 c 128,-1,8
 447 -5 447 -5 376 -5 c 0,9,10
 327 -5 327 -5 283 9 c 128,-1,11
 239 23 239 23 203 48 c 1,12,-1
 172 0 l 1,13,-1
 115 0 l 1,14,-1
 165 77 l 1,15,16
 108 129 108 129 76 202 c 128,-1,17
 44 275 44 275 44 355 c 0,18,19
 44 426 44 426 69.5 491 c 128,-1,20
 95 556 95 556 139.5 606 c 128,-1,21
 184 656 184 656 245 685.5 c 128,-1,22
 306 715 306 715 377 715 c 0,23,24
 426 715 426 715 469 701 c 128,-1,25
 512 687 512 687 549 662 c 1,26,-1
 581 710 l 1,27,-1
 639 710 l 1,0,-1
95 355 m 0,28,29
 95 286 95 286 120.5 224.5 c 128,-1,30
 146 163 146 163 192 118 c 1,31,-1
 523 622 l 1,32,33
 491 644 491 644 454.5 656 c 128,-1,34
 418 668 418 668 377 668 c 0,35,36
 313 668 313 668 261 641 c 128,-1,37
 209 614 209 614 172 569.5 c 128,-1,38
 135 525 135 525 115 469 c 128,-1,39
 95 413 95 413 95 355 c 0,28,29
657 355 m 0,40,41
 657 423 657 423 631 484.5 c 128,-1,42
 605 546 605 546 560 591 c 1,43,-1
 229 87 l 1,44,45
 261 66 261 66 298 54 c 128,-1,46
 335 42 335 42 377 42 c 0,47,48
 441 42 441 42 492.5 69 c 128,-1,49
 544 96 544 96 580.5 140.5 c 128,-1,50
 617 185 617 185 637 241 c 128,-1,51
 657 297 657 297 657 355 c 0,40,41
EndSplineSet
EndChar

StartChar: Ugrave
Encoding: 217 217 156
Width: 756
GlyphClass: 2
Flags: W
LayerCount: 2
Fore
SplineSet
378 42 m 0,0,1
 450 42 450 42 497.5 69 c 128,-1,2
 545 96 545 96 572.5 140 c 128,-1,3
 600 184 600 184 611.5 240 c 128,-1,4
 623 296 623 296 623 353 c 2,5,-1
 623 710 l 1,6,-1
 674 710 l 1,7,-1
 674 353 l 2,8,9
 674 282 674 282 658.5 217 c 128,-1,10
 643 152 643 152 608 102.5 c 128,-1,11
 573 53 573 53 517 24 c 128,-1,12
 461 -5 461 -5 379 -5 c 0,13,14
 294 -5 294 -5 237 25.5 c 128,-1,15
 180 56 180 56 145.5 106.5 c 128,-1,16
 111 157 111 157 96.5 221 c 128,-1,17
 82 285 82 285 82 353 c 2,18,-1
 82 710 l 1,19,-1
 133 710 l 1,20,-1
 133 353 l 2,21,22
 133 294 133 294 144.5 238 c 128,-1,23
 156 182 156 182 184.5 138.5 c 128,-1,24
 213 95 213 95 260 68.5 c 128,-1,25
 307 42 307 42 378 42 c 0,0,1
295 918 m 1,26,-1
 352 918 l 1,27,-1
 414 833 l 1,28,-1
 380 817 l 1,29,-1
 295 918 l 1,26,-1
EndSplineSet
EndChar

StartChar: Uacute
Encoding: 218 218 157
Width: 756
GlyphClass: 2
Flags: W
LayerCount: 2
Fore
SplineSet
378 816 m 1,0,-1
 343 832 l 1,1,-1
 404 917 l 1,2,-1
 462 917 l 1,3,-1
 378 816 l 1,0,-1
378 42 m 0,4,5
 450 42 450 42 497.5 69 c 128,-1,6
 545 96 545 96 572.5 140 c 128,-1,7
 600 184 600 184 611.5 240 c 128,-1,8
 623 296 623 296 623 353 c 2,9,-1
 623 710 l 1,10,-1
 674 710 l 1,11,-1
 674 353 l 2,12,13
 674 282 674 282 658.5 217 c 128,-1,14
 643 152 643 152 608 102.5 c 128,-1,15
 573 53 573 53 517 24 c 128,-1,16
 461 -5 461 -5 379 -5 c 0,17,18
 294 -5 294 -5 237 25.5 c 128,-1,19
 180 56 180 56 145.5 106.5 c 128,-1,20
 111 157 111 157 96.5 221 c 128,-1,21
 82 285 82 285 82 353 c 2,22,-1
 82 710 l 1,23,-1
 133 710 l 1,24,-1
 133 353 l 2,25,26
 133 294 133 294 144.5 238 c 128,-1,27
 156 182 156 182 184.5 138.5 c 128,-1,28
 213 95 213 95 260 68.5 c 128,-1,29
 307 42 307 42 378 42 c 0,4,5
EndSplineSet
EndChar

StartChar: Ucircumflex
Encoding: 219 219 158
Width: 756
GlyphClass: 2
Flags: W
LayerCount: 2
Fore
SplineSet
264 836 m 1,0,-1
 360 917 l 1,1,-1
 397 917 l 1,2,-1
 494 836 l 1,3,-1
 464 819 l 1,4,-1
 379 882 l 1,5,-1
 294 819 l 1,6,-1
 264 836 l 1,0,-1
378 42 m 0,7,8
 450 42 450 42 497.5 69 c 128,-1,9
 545 96 545 96 572.5 140 c 128,-1,10
 600 184 600 184 611.5 240 c 128,-1,11
 623 296 623 296 623 353 c 2,12,-1
 623 710 l 1,13,-1
 674 710 l 1,14,-1
 674 353 l 2,15,16
 674 282 674 282 658.5 217 c 128,-1,17
 643 152 643 152 608 102.5 c 128,-1,18
 573 53 573 53 517 24 c 128,-1,19
 461 -5 461 -5 379 -5 c 0,20,21
 294 -5 294 -5 237 25.5 c 128,-1,22
 180 56 180 56 145.5 106.5 c 128,-1,23
 111 157 111 157 96.5 221 c 128,-1,24
 82 285 82 285 82 353 c 2,25,-1
 82 710 l 1,26,-1
 133 710 l 1,27,-1
 133 353 l 2,28,29
 133 294 133 294 144.5 238 c 128,-1,30
 156 182 156 182 184.5 138.5 c 128,-1,31
 213 95 213 95 260 68.5 c 128,-1,32
 307 42 307 42 378 42 c 0,7,8
EndSplineSet
EndChar

StartChar: Udieresis
Encoding: 220 220 159
Width: 756
GlyphClass: 2
Flags: W
LayerCount: 2
Fore
SplineSet
288 828 m 1,0,-1
 288 916 l 1,1,-1
 332 916 l 1,2,-1
 332 828 l 1,3,-1
 288 828 l 1,0,-1
424 828 m 1,4,-1
 424 916 l 1,5,-1
 468 916 l 1,6,-1
 468 828 l 1,7,-1
 424 828 l 1,4,-1
378 42 m 0,8,9
 450 42 450 42 497.5 69 c 128,-1,10
 545 96 545 96 572.5 140 c 128,-1,11
 600 184 600 184 611.5 240 c 128,-1,12
 623 296 623 296 623 353 c 2,13,-1
 623 710 l 1,14,-1
 674 710 l 1,15,-1
 674 353 l 2,16,17
 674 282 674 282 658.5 217 c 128,-1,18
 643 152 643 152 608 102.5 c 128,-1,19
 573 53 573 53 517 24 c 128,-1,20
 461 -5 461 -5 379 -5 c 0,21,22
 294 -5 294 -5 237 25.5 c 128,-1,23
 180 56 180 56 145.5 106.5 c 128,-1,24
 111 157 111 157 96.5 221 c 128,-1,25
 82 285 82 285 82 353 c 2,26,-1
 82 710 l 1,27,-1
 133 710 l 1,28,-1
 133 353 l 2,29,30
 133 294 133 294 144.5 238 c 128,-1,31
 156 182 156 182 184.5 138.5 c 128,-1,32
 213 95 213 95 260 68.5 c 128,-1,33
 307 42 307 42 378 42 c 0,8,9
EndSplineSet
EndChar

StartChar: Yacute
Encoding: 221 221 160
Width: 647
GlyphClass: 2
Flags: W
LayerCount: 2
Fore
SplineSet
75 710 m 1,0,-1
 323 317 l 1,1,-1
 572 710 l 1,2,-1
 629 710 l 1,3,-1
 349 268 l 1,4,-1
 349 0 l 1,5,-1
 298 0 l 1,6,-1
 298 270 l 1,7,-1
 19 710 l 1,8,-1
 75 710 l 1,0,-1
322 816 m 1,9,-1
 287 832 l 1,10,-1
 348 917 l 1,11,-1
 406 917 l 1,12,-1
 322 816 l 1,9,-1
EndSplineSet
EndChar

StartChar: Thorn
Encoding: 222 222 161
Width: 601
GlyphClass: 2
Flags: W
LayerCount: 2
Fore
SplineSet
366 566 m 2,0,1
 411 566 411 566 449 547 c 128,-1,2
 487 528 487 528 514 496.5 c 128,-1,3
 541 465 541 465 556.5 425.5 c 128,-1,4
 572 386 572 386 572 345 c 0,5,6
 572 302 572 302 557.5 262 c 128,-1,7
 543 222 543 222 517 191.5 c 128,-1,8
 491 161 491 161 454 142.5 c 128,-1,9
 417 124 417 124 372 124 c 2,10,-1
 144 124 l 1,11,-1
 144 0 l 1,12,-1
 93 0 l 1,13,-1
 93 710 l 1,14,-1
 144 710 l 1,15,-1
 144 566 l 1,16,-1
 366 566 l 2,0,1
371 171 m 2,17,18
 406 171 406 171 434 186 c 128,-1,19
 462 201 462 201 481.5 225.5 c 128,-1,20
 501 250 501 250 511.5 281 c 128,-1,21
 522 312 522 312 522 345 c 0,22,23
 522 379 522 379 509.5 410.5 c 128,-1,24
 497 442 497 442 475.5 466 c 128,-1,25
 454 490 454 490 425.5 504.5 c 128,-1,26
 397 519 397 519 364 519 c 2,27,-1
 144 519 l 1,28,-1
 144 171 l 1,29,-1
 371 171 l 2,17,18
EndSplineSet
EndChar

StartChar: germandbls
Encoding: 223 223 162
Width: 549
GlyphClass: 2
Flags: W
LayerCount: 2
Fore
SplineSet
235 40 m 1,0,1
 338 42 338 42 397.5 84 c 128,-1,2
 457 126 457 126 457 208 c 0,3,4
 457 246 457 246 443.5 277 c 128,-1,5
 430 308 430 308 406 330.5 c 128,-1,6
 382 353 382 353 348.5 365 c 128,-1,7
 315 377 315 377 275 377 c 2,8,-1
 258 377 l 1,9,-1
 258 424 l 1,10,-1
 274 424 l 2,11,12
 303 424 303 424 327.5 433 c 128,-1,13
 352 442 352 442 370 458.5 c 128,-1,14
 388 475 388 475 398 497.5 c 128,-1,15
 408 520 408 520 408 547 c 0,16,17
 408 575 408 575 397.5 597.5 c 128,-1,18
 387 620 387 620 368 636 c 128,-1,19
 349 652 349 652 324 660.5 c 128,-1,20
 299 669 299 669 271 669 c 0,21,22
 236 669 236 669 209.5 656.5 c 128,-1,23
 183 644 183 644 164.5 622.5 c 128,-1,24
 146 601 146 601 136.5 571 c 128,-1,25
 127 541 127 541 127 506 c 2,26,-1
 127 0 l 1,27,-1
 78 0 l 1,28,-1
 78 513 l 2,29,30
 78 558 78 558 92.5 595 c 128,-1,31
 107 632 107 632 132.5 658.5 c 128,-1,32
 158 685 158 685 194 699.5 c 128,-1,33
 230 714 230 714 272 714 c 0,34,35
 311 714 311 714 345 702 c 128,-1,36
 379 690 379 690 403.5 669 c 128,-1,37
 428 648 428 648 442 618.5 c 128,-1,38
 456 589 456 589 456 555 c 0,39,40
 456 528 456 528 447.5 503 c 128,-1,41
 439 478 439 478 424 457.5 c 128,-1,42
 409 437 409 437 388.5 422.5 c 128,-1,43
 368 408 368 408 345 403 c 1,44,45
 423 386 423 386 465.5 333.5 c 128,-1,46
 508 281 508 281 508 205 c 0,47,48
 508 106 508 106 435 52 c 128,-1,49
 362 -2 362 -2 235 -6 c 1,50,-1
 235 40 l 1,0,1
EndSplineSet
EndChar

StartChar: agrave
Encoding: 224 224 163
Width: 537
GlyphClass: 2
Flags: W
LayerCount: 2
Fore
SplineSet
206 -10 m 0,0,1
 170 -10 170 -10 139 2.5 c 128,-1,2
 108 15 108 15 84.5 36.5 c 128,-1,3
 61 58 61 58 48 87.5 c 128,-1,4
 35 117 35 117 35 151 c 256,5,6
 35 185 35 185 51 213 c 128,-1,7
 67 241 67 241 95.5 261.5 c 128,-1,8
 124 282 124 282 164 293.5 c 128,-1,9
 204 305 204 305 252 305 c 0,10,11
 294 305 294 305 336.5 297.5 c 128,-1,12
 379 290 379 290 413 277 c 1,13,-1
 413 328 l 2,14,15
 413 402 413 402 371 445.5 c 128,-1,16
 329 489 329 489 257 489 c 0,17,18
 219 489 219 489 176.5 473 c 128,-1,19
 134 457 134 457 90 427 c 1,20,-1
 71 461 l 1,21,22
 171 529 171 529 261 529 c 0,23,24
 355 529 355 529 409 474.5 c 128,-1,25
 463 420 463 420 463 324 c 2,26,-1
 463 70 l 2,27,28
 463 45 463 45 485 45 c 1,29,-1
 485 0 l 1,30,31
 480 -1 480 -1 474.5 -1.5 c 128,-1,32
 469 -2 469 -2 465 -2 c 0,33,34
 445 -2 445 -2 433 11.5 c 128,-1,35
 421 25 421 25 419 44 c 2,36,-1
 419 87 l 1,37,38
 383 40 383 40 327 15 c 128,-1,39
 271 -10 271 -10 206 -10 c 0,0,1
216 30 m 0,40,41
 274 30 274 30 322.5 52 c 128,-1,42
 371 74 371 74 397 110 c 0,43,44
 413 131 413 131 413 150 c 2,45,-1
 413 242 l 1,46,47
 377 256 377 256 338 263 c 128,-1,48
 299 270 299 270 257 270 c 0,49,50
 218 270 218 270 186 261.5 c 128,-1,51
 154 253 154 253 131 238 c 128,-1,52
 108 223 108 223 95.5 201.5 c 128,-1,53
 83 180 83 180 83 154 c 256,54,55
 83 128 83 128 93 105 c 128,-1,56
 103 82 103 82 121 65.5 c 128,-1,57
 139 49 139 49 163.5 39.5 c 128,-1,58
 188 30 188 30 216 30 c 0,40,41
177 730 m 1,59,-1
 234 730 l 1,60,-1
 296 645 l 1,61,-1
 262 629 l 1,62,-1
 177 730 l 1,59,-1
EndSplineSet
EndChar

StartChar: aacute
Encoding: 225 225 164
Width: 537
GlyphClass: 2
Flags: W
LayerCount: 2
Fore
SplineSet
206 -10 m 0,0,1
 170 -10 170 -10 139 2.5 c 128,-1,2
 108 15 108 15 84.5 36.5 c 128,-1,3
 61 58 61 58 48 87.5 c 128,-1,4
 35 117 35 117 35 151 c 256,5,6
 35 185 35 185 51 213 c 128,-1,7
 67 241 67 241 95.5 261.5 c 128,-1,8
 124 282 124 282 164 293.5 c 128,-1,9
 204 305 204 305 252 305 c 0,10,11
 294 305 294 305 336.5 297.5 c 128,-1,12
 379 290 379 290 413 277 c 1,13,-1
 413 328 l 2,14,15
 413 402 413 402 371 445.5 c 128,-1,16
 329 489 329 489 257 489 c 0,17,18
 219 489 219 489 176.5 473 c 128,-1,19
 134 457 134 457 90 427 c 1,20,-1
 71 461 l 1,21,22
 171 529 171 529 261 529 c 0,23,24
 355 529 355 529 409 474.5 c 128,-1,25
 463 420 463 420 463 324 c 2,26,-1
 463 70 l 2,27,28
 463 45 463 45 485 45 c 1,29,-1
 485 0 l 1,30,31
 480 -1 480 -1 474.5 -1.5 c 128,-1,32
 469 -2 469 -2 465 -2 c 0,33,34
 445 -2 445 -2 433 11.5 c 128,-1,35
 421 25 421 25 419 44 c 2,36,-1
 419 87 l 1,37,38
 383 40 383 40 327 15 c 128,-1,39
 271 -10 271 -10 206 -10 c 0,0,1
216 30 m 0,40,41
 274 30 274 30 322.5 52 c 128,-1,42
 371 74 371 74 397 110 c 0,43,44
 413 131 413 131 413 150 c 2,45,-1
 413 242 l 1,46,47
 377 256 377 256 338 263 c 128,-1,48
 299 270 299 270 257 270 c 0,49,50
 218 270 218 270 186 261.5 c 128,-1,51
 154 253 154 253 131 238 c 128,-1,52
 108 223 108 223 95.5 201.5 c 128,-1,53
 83 180 83 180 83 154 c 256,54,55
 83 128 83 128 93 105 c 128,-1,56
 103 82 103 82 121 65.5 c 128,-1,57
 139 49 139 49 163.5 39.5 c 128,-1,58
 188 30 188 30 216 30 c 0,40,41
260 629 m 1,59,-1
 225 645 l 1,60,-1
 286 730 l 1,61,-1
 344 730 l 1,62,-1
 260 629 l 1,59,-1
EndSplineSet
EndChar

StartChar: acircumflex
Encoding: 226 226 165
Width: 537
GlyphClass: 2
Flags: W
LayerCount: 2
Fore
SplineSet
206 -10 m 0,0,1
 170 -10 170 -10 139 2.5 c 128,-1,2
 108 15 108 15 84.5 36.5 c 128,-1,3
 61 58 61 58 48 87.5 c 128,-1,4
 35 117 35 117 35 151 c 256,5,6
 35 185 35 185 51 213 c 128,-1,7
 67 241 67 241 95.5 261.5 c 128,-1,8
 124 282 124 282 164 293.5 c 128,-1,9
 204 305 204 305 252 305 c 0,10,11
 294 305 294 305 336.5 297.5 c 128,-1,12
 379 290 379 290 413 277 c 1,13,-1
 413 328 l 2,14,15
 413 402 413 402 371 445.5 c 128,-1,16
 329 489 329 489 257 489 c 0,17,18
 219 489 219 489 176.5 473 c 128,-1,19
 134 457 134 457 90 427 c 1,20,-1
 71 461 l 1,21,22
 171 529 171 529 261 529 c 0,23,24
 355 529 355 529 409 474.5 c 128,-1,25
 463 420 463 420 463 324 c 2,26,-1
 463 70 l 2,27,28
 463 45 463 45 485 45 c 1,29,-1
 485 0 l 1,30,31
 480 -1 480 -1 474.5 -1.5 c 128,-1,32
 469 -2 469 -2 465 -2 c 0,33,34
 445 -2 445 -2 433 11.5 c 128,-1,35
 421 25 421 25 419 44 c 2,36,-1
 419 87 l 1,37,38
 383 40 383 40 327 15 c 128,-1,39
 271 -10 271 -10 206 -10 c 0,0,1
216 30 m 0,40,41
 274 30 274 30 322.5 52 c 128,-1,42
 371 74 371 74 397 110 c 0,43,44
 413 131 413 131 413 150 c 2,45,-1
 413 242 l 1,46,47
 377 256 377 256 338 263 c 128,-1,48
 299 270 299 270 257 270 c 0,49,50
 218 270 218 270 186 261.5 c 128,-1,51
 154 253 154 253 131 238 c 128,-1,52
 108 223 108 223 95.5 201.5 c 128,-1,53
 83 180 83 180 83 154 c 256,54,55
 83 128 83 128 93 105 c 128,-1,56
 103 82 103 82 121 65.5 c 128,-1,57
 139 49 139 49 163.5 39.5 c 128,-1,58
 188 30 188 30 216 30 c 0,40,41
146 649 m 1,59,-1
 242 730 l 1,60,-1
 279 730 l 1,61,-1
 376 649 l 1,62,-1
 346 632 l 1,63,-1
 261 695 l 1,64,-1
 176 632 l 1,65,-1
 146 649 l 1,59,-1
EndSplineSet
EndChar

StartChar: atilde
Encoding: 227 227 166
Width: 537
GlyphClass: 2
Flags: W
LayerCount: 2
Fore
SplineSet
206 -10 m 0,0,1
 170 -10 170 -10 139 2.5 c 128,-1,2
 108 15 108 15 84.5 36.5 c 128,-1,3
 61 58 61 58 48 87.5 c 128,-1,4
 35 117 35 117 35 151 c 256,5,6
 35 185 35 185 51 213 c 128,-1,7
 67 241 67 241 95.5 261.5 c 128,-1,8
 124 282 124 282 164 293.5 c 128,-1,9
 204 305 204 305 252 305 c 0,10,11
 294 305 294 305 336.5 297.5 c 128,-1,12
 379 290 379 290 413 277 c 1,13,-1
 413 328 l 2,14,15
 413 402 413 402 371 445.5 c 128,-1,16
 329 489 329 489 257 489 c 0,17,18
 219 489 219 489 176.5 473 c 128,-1,19
 134 457 134 457 90 427 c 1,20,-1
 71 461 l 1,21,22
 171 529 171 529 261 529 c 0,23,24
 355 529 355 529 409 474.5 c 128,-1,25
 463 420 463 420 463 324 c 2,26,-1
 463 70 l 2,27,28
 463 45 463 45 485 45 c 1,29,-1
 485 0 l 1,30,31
 480 -1 480 -1 474.5 -1.5 c 128,-1,32
 469 -2 469 -2 465 -2 c 0,33,34
 445 -2 445 -2 433 11.5 c 128,-1,35
 421 25 421 25 419 44 c 2,36,-1
 419 87 l 1,37,38
 383 40 383 40 327 15 c 128,-1,39
 271 -10 271 -10 206 -10 c 0,0,1
216 30 m 0,40,41
 274 30 274 30 322.5 52 c 128,-1,42
 371 74 371 74 397 110 c 0,43,44
 413 131 413 131 413 150 c 2,45,-1
 413 242 l 1,46,47
 377 256 377 256 338 263 c 128,-1,48
 299 270 299 270 257 270 c 0,49,50
 218 270 218 270 186 261.5 c 128,-1,51
 154 253 154 253 131 238 c 128,-1,52
 108 223 108 223 95.5 201.5 c 128,-1,53
 83 180 83 180 83 154 c 256,54,55
 83 128 83 128 93 105 c 128,-1,56
 103 82 103 82 121 65.5 c 128,-1,57
 139 49 139 49 163.5 39.5 c 128,-1,58
 188 30 188 30 216 30 c 0,40,41
322 647 m 0,59,60
 300 647 300 647 283 653 c 128,-1,61
 266 659 266 659 252 666.5 c 128,-1,62
 238 674 238 674 224.5 680.5 c 128,-1,63
 211 687 211 687 196 687 c 0,64,65
 179 687 179 687 169 680 c 128,-1,66
 159 673 159 673 154 664.5 c 128,-1,67
 149 656 149 656 147 648.5 c 128,-1,68
 145 641 145 641 145 639 c 2,69,-1
 111 639 l 1,70,71
 111 643 111 643 114 656.5 c 128,-1,72
 117 670 117 670 126.5 684.5 c 128,-1,73
 136 699 136 699 152.5 710.5 c 128,-1,74
 169 722 169 722 196 722 c 0,75,76
 216 722 216 722 231.5 715.5 c 128,-1,77
 247 709 247 709 261 701.5 c 128,-1,78
 275 694 275 694 289.5 688 c 128,-1,79
 304 682 304 682 323 682 c 0,80,81
 343 682 343 682 354.5 689 c 128,-1,82
 366 696 366 696 371.5 704.5 c 128,-1,83
 377 713 377 713 378.5 720.5 c 128,-1,84
 380 728 380 728 380 730 c 2,85,-1
 414 730 l 1,86,87
 414 725 414 725 410.5 711.5 c 128,-1,88
 407 698 407 698 397.5 684 c 128,-1,89
 388 670 388 670 370 658.5 c 128,-1,90
 352 647 352 647 322 647 c 0,59,60
EndSplineSet
EndChar

StartChar: adieresis
Encoding: 228 228 167
Width: 537
GlyphClass: 2
Flags: W
LayerCount: 2
Fore
SplineSet
206 -10 m 0,0,1
 170 -10 170 -10 139 2.5 c 128,-1,2
 108 15 108 15 84.5 36.5 c 128,-1,3
 61 58 61 58 48 87.5 c 128,-1,4
 35 117 35 117 35 151 c 256,5,6
 35 185 35 185 51 213 c 128,-1,7
 67 241 67 241 95.5 261.5 c 128,-1,8
 124 282 124 282 164 293.5 c 128,-1,9
 204 305 204 305 252 305 c 0,10,11
 294 305 294 305 336.5 297.5 c 128,-1,12
 379 290 379 290 413 277 c 1,13,-1
 413 328 l 2,14,15
 413 402 413 402 371 445.5 c 128,-1,16
 329 489 329 489 257 489 c 0,17,18
 219 489 219 489 176.5 473 c 128,-1,19
 134 457 134 457 90 427 c 1,20,-1
 71 461 l 1,21,22
 171 529 171 529 261 529 c 0,23,24
 355 529 355 529 409 474.5 c 128,-1,25
 463 420 463 420 463 324 c 2,26,-1
 463 70 l 2,27,28
 463 45 463 45 485 45 c 1,29,-1
 485 0 l 1,30,31
 480 -1 480 -1 474.5 -1.5 c 128,-1,32
 469 -2 469 -2 465 -2 c 0,33,34
 445 -2 445 -2 433 11.5 c 128,-1,35
 421 25 421 25 419 44 c 2,36,-1
 419 87 l 1,37,38
 383 40 383 40 327 15 c 128,-1,39
 271 -10 271 -10 206 -10 c 0,0,1
216 30 m 0,40,41
 274 30 274 30 322.5 52 c 128,-1,42
 371 74 371 74 397 110 c 0,43,44
 413 131 413 131 413 150 c 2,45,-1
 413 242 l 1,46,47
 377 256 377 256 338 263 c 128,-1,48
 299 270 299 270 257 270 c 0,49,50
 218 270 218 270 186 261.5 c 128,-1,51
 154 253 154 253 131 238 c 128,-1,52
 108 223 108 223 95.5 201.5 c 128,-1,53
 83 180 83 180 83 154 c 256,54,55
 83 128 83 128 93 105 c 128,-1,56
 103 82 103 82 121 65.5 c 128,-1,57
 139 49 139 49 163.5 39.5 c 128,-1,58
 188 30 188 30 216 30 c 0,40,41
171 640 m 1,59,-1
 171 728 l 1,60,-1
 215 728 l 1,61,-1
 215 640 l 1,62,-1
 171 640 l 1,59,-1
307 640 m 1,63,-1
 307 728 l 1,64,-1
 351 728 l 1,65,-1
 351 640 l 1,66,-1
 307 640 l 1,63,-1
EndSplineSet
EndChar

StartChar: aring
Encoding: 229 229 168
Width: 537
GlyphClass: 2
Flags: W
LayerCount: 2
Fore
SplineSet
206 -10 m 0,0,1
 170 -10 170 -10 139 2.5 c 128,-1,2
 108 15 108 15 84.5 36.5 c 128,-1,3
 61 58 61 58 48 87.5 c 128,-1,4
 35 117 35 117 35 151 c 256,5,6
 35 185 35 185 51 213 c 128,-1,7
 67 241 67 241 95.5 261.5 c 128,-1,8
 124 282 124 282 164 293.5 c 128,-1,9
 204 305 204 305 252 305 c 0,10,11
 294 305 294 305 336.5 297.5 c 128,-1,12
 379 290 379 290 413 277 c 1,13,-1
 413 328 l 2,14,15
 413 402 413 402 371 445.5 c 128,-1,16
 329 489 329 489 257 489 c 0,17,18
 219 489 219 489 176.5 473 c 128,-1,19
 134 457 134 457 90 427 c 1,20,-1
 71 461 l 1,21,22
 171 529 171 529 261 529 c 0,23,24
 355 529 355 529 409 474.5 c 128,-1,25
 463 420 463 420 463 324 c 2,26,-1
 463 70 l 2,27,28
 463 45 463 45 485 45 c 1,29,-1
 485 0 l 1,30,31
 480 -1 480 -1 474.5 -1.5 c 128,-1,32
 469 -2 469 -2 465 -2 c 0,33,34
 445 -2 445 -2 433 11.5 c 128,-1,35
 421 25 421 25 419 44 c 2,36,-1
 419 87 l 1,37,38
 383 40 383 40 327 15 c 128,-1,39
 271 -10 271 -10 206 -10 c 0,0,1
216 30 m 0,40,41
 274 30 274 30 322.5 52 c 128,-1,42
 371 74 371 74 397 110 c 0,43,44
 413 131 413 131 413 150 c 2,45,-1
 413 242 l 1,46,47
 377 256 377 256 338 263 c 128,-1,48
 299 270 299 270 257 270 c 0,49,50
 218 270 218 270 186 261.5 c 128,-1,51
 154 253 154 253 131 238 c 128,-1,52
 108 223 108 223 95.5 201.5 c 128,-1,53
 83 180 83 180 83 154 c 256,54,55
 83 128 83 128 93 105 c 128,-1,56
 103 82 103 82 121 65.5 c 128,-1,57
 139 49 139 49 163.5 39.5 c 128,-1,58
 188 30 188 30 216 30 c 0,40,41
192 668 m 0,59,60
 192 695 192 695 211.5 712.5 c 128,-1,61
 231 730 231 730 260 730 c 256,62,63
 289 730 289 730 308.5 712.5 c 128,-1,64
 328 695 328 695 328 668 c 0,65,66
 328 640 328 640 308.5 622.5 c 128,-1,67
 289 605 289 605 260 605 c 256,68,69
 231 605 231 605 211.5 622.5 c 128,-1,70
 192 640 192 640 192 668 c 0,59,60
260 707 m 256,71,72
 243 707 243 707 231.5 696.5 c 128,-1,73
 220 686 220 686 220 668 c 0,74,75
 220 651 220 651 231.5 639.5 c 128,-1,76
 243 628 243 628 260 628 c 0,77,78
 276 628 276 628 288.5 639.5 c 128,-1,79
 301 651 301 651 301 668 c 0,80,81
 301 686 301 686 289 696.5 c 128,-1,82
 277 707 277 707 260 707 c 256,71,72
EndSplineSet
EndChar

StartChar: ae
Encoding: 230 230 169
Width: 930
GlyphClass: 2
Flags: W
LayerCount: 2
Fore
SplineSet
206 -10 m 0,0,1
 170 -10 170 -10 139 2.5 c 128,-1,2
 108 15 108 15 84.5 36.5 c 128,-1,3
 61 58 61 58 48 87.5 c 128,-1,4
 35 117 35 117 35 151 c 256,5,6
 35 185 35 185 51 213 c 128,-1,7
 67 241 67 241 95.5 261.5 c 128,-1,8
 124 282 124 282 163.5 293.5 c 128,-1,9
 203 305 203 305 251 305 c 0,10,11
 286 305 286 305 322 299.5 c 128,-1,12
 358 294 358 294 389 285 c 1,13,14
 391 306 391 306 395.5 327.5 c 128,-1,15
 400 349 400 349 408 369 c 1,16,17
 397 425 397 425 357.5 457 c 128,-1,18
 318 489 318 489 257 489 c 0,19,20
 219 489 219 489 176.5 473 c 128,-1,21
 134 457 134 457 90 427 c 1,22,-1
 70 461 l 1,23,24
 171 529 171 529 261 529 c 0,25,26
 327 529 327 529 372.5 500 c 128,-1,27
 418 471 418 471 440 418 c 1,28,29
 472 468 472 468 525 498.5 c 128,-1,30
 578 529 578 529 642 529 c 0,31,32
 697 529 697 529 744 508 c 128,-1,33
 791 487 791 487 825.5 450 c 128,-1,34
 860 413 860 413 879.5 364 c 128,-1,35
 899 315 899 315 899 260 c 0,36,37
 899 257 899 257 898.5 249.5 c 128,-1,38
 898 242 898 242 898 240 c 2,39,-1
 437 240 l 1,40,41
 440 195 440 195 458 156.5 c 128,-1,42
 476 118 476 118 504.5 90 c 128,-1,43
 533 62 533 62 570 46 c 128,-1,44
 607 30 607 30 648 30 c 0,45,46
 675 30 675 30 701.5 37.5 c 128,-1,47
 728 45 728 45 750.5 58 c 128,-1,48
 773 71 773 71 790.5 89.5 c 128,-1,49
 808 108 808 108 818 130 c 1,50,-1
 862 118 l 1,51,52
 850 90 850 90 828.5 66.5 c 128,-1,53
 807 43 807 43 778.5 26 c 128,-1,54
 750 9 750 9 716 -0.5 c 128,-1,55
 682 -10 682 -10 646 -10 c 0,56,57
 579 -10 579 -10 524 22 c 128,-1,58
 469 54 469 54 434 107 c 1,59,60
 418 76 418 76 392 54 c 128,-1,61
 366 32 366 32 335 17.5 c 128,-1,62
 304 3 304 3 270.5 -3.5 c 128,-1,63
 237 -10 237 -10 206 -10 c 0,0,1
216 30 m 0,64,65
 274 30 274 30 323 51.5 c 128,-1,66
 372 73 372 73 397 110 c 0,67,68
 412 129 412 129 413 145 c 1,69,70
 402 168 402 168 396 196 c 128,-1,71
 390 224 390 224 389 250 c 1,72,73
 326 270 326 270 257 270 c 0,74,75
 179 270 179 270 131 238 c 128,-1,76
 83 206 83 206 83 154 c 0,77,78
 83 128 83 128 93 105 c 128,-1,79
 103 82 103 82 121 65.5 c 128,-1,80
 139 49 139 49 163.5 39.5 c 128,-1,81
 188 30 188 30 216 30 c 0,64,65
850 277 m 1,82,83
 847 323 847 323 830 362 c 128,-1,84
 813 401 813 401 785 429 c 128,-1,85
 757 457 757 457 720.5 472.5 c 128,-1,86
 684 488 684 488 642 488 c 256,87,88
 600 488 600 488 563.5 472 c 128,-1,89
 527 456 527 456 499.5 428 c 128,-1,90
 472 400 472 400 455.5 361.5 c 128,-1,91
 439 323 439 323 437 277 c 1,92,-1
 850 277 l 1,82,83
EndSplineSet
EndChar

StartChar: ccedilla
Encoding: 231 231 170
Width: 545
GlyphClass: 2
Flags: W
LayerCount: 2
Fore
SplineSet
222 -125 m 1,0,1
 236 -132 236 -132 259.5 -138 c 128,-1,2
 283 -144 283 -144 309 -144 c 0,3,4
 367 -144 367 -144 367 -107 c 0,5,6
 367 -87 367 -87 353.5 -79 c 128,-1,7
 340 -71 340 -71 318 -71 c 0,8,9
 297 -71 297 -71 274 -76 c 128,-1,10
 251 -81 251 -81 237 -85 c 1,11,-1
 279 -9 l 1,12,13
 228 -5 228 -5 184.5 17.5 c 128,-1,14
 141 40 141 40 109.5 77 c 128,-1,15
 78 114 78 114 60 161.5 c 128,-1,16
 42 209 42 209 42 262 c 0,17,18
 42 317 42 317 61 366 c 128,-1,19
 80 415 80 415 114 451 c 128,-1,20
 148 487 148 487 195 508 c 128,-1,21
 242 529 242 529 298 529 c 0,22,23
 369 529 369 529 423 497 c 128,-1,24
 477 465 477 465 504 408 c 1,25,-1
 455 392 l 1,26,27
 432 435 432 435 389.5 459.5 c 128,-1,28
 347 484 347 484 296 484 c 0,29,30
 253 484 253 484 216 467 c 128,-1,31
 179 450 179 450 151.5 420 c 128,-1,32
 124 390 124 390 108 349.5 c 128,-1,33
 92 309 92 309 92 262 c 256,34,35
 92 215 92 215 108.5 173.5 c 128,-1,36
 125 132 125 132 152.5 101.5 c 128,-1,37
 180 71 180 71 217.5 53 c 128,-1,38
 255 35 255 35 297 35 c 0,39,40
 324 35 324 35 350.5 43 c 128,-1,41
 377 51 377 51 399.5 64 c 128,-1,42
 422 77 422 77 438.5 94.5 c 128,-1,43
 455 112 455 112 461 131 c 1,44,-1
 510 117 l 1,45,46
 500 91 500 91 481 68.5 c 128,-1,47
 462 46 462 46 436 29.5 c 128,-1,48
 410 13 410 13 378 2.5 c 128,-1,49
 346 -8 346 -8 312 -9 c 1,50,-1
 286 -53 l 1,51,52
 295 -49 295 -49 306.5 -48 c 128,-1,53
 318 -47 318 -47 326 -47 c 0,54,55
 360 -47 360 -47 379 -62 c 128,-1,56
 398 -77 398 -77 398 -106 c 0,57,58
 398 -138 398 -138 374 -154.5 c 128,-1,59
 350 -171 350 -171 305 -171 c 0,60,61
 276 -171 276 -171 251.5 -165.5 c 128,-1,62
 227 -160 227 -160 208 -152 c 1,63,-1
 222 -125 l 1,0,1
EndSplineSet
EndChar

StartChar: egrave
Encoding: 232 232 171
Width: 583
GlyphClass: 2
Flags: W
LayerCount: 2
Fore
SplineSet
299 -10 m 0,0,1
 244 -10 244 -10 197 11.5 c 128,-1,2
 150 33 150 33 115.5 70.5 c 128,-1,3
 81 108 81 108 61.5 157 c 128,-1,4
 42 206 42 206 42 262 c 0,5,6
 42 317 42 317 61.5 365.5 c 128,-1,7
 81 414 81 414 115 450.5 c 128,-1,8
 149 487 149 487 195.5 508 c 128,-1,9
 242 529 242 529 296 529 c 0,10,11
 351 529 351 529 398 507.5 c 128,-1,12
 445 486 445 486 479 449.5 c 128,-1,13
 513 413 513 413 532 364.5 c 128,-1,14
 551 316 551 316 551 262 c 0,15,16
 551 257 551 257 551 249.5 c 128,-1,17
 551 242 551 242 550 240 c 2,18,-1
 94 240 l 1,19,20
 97 195 97 195 115 156.5 c 128,-1,21
 133 118 133 118 160.5 90 c 128,-1,22
 188 62 188 62 224 46 c 128,-1,23
 260 30 260 30 301 30 c 0,24,25
 328 30 328 30 354 37.5 c 128,-1,26
 380 45 380 45 402.5 58 c 128,-1,27
 425 71 425 71 442.5 89.5 c 128,-1,28
 460 108 460 108 470 130 c 1,29,-1
 514 118 l 1,30,31
 503 90 503 90 481.5 66.5 c 128,-1,32
 460 43 460 43 431.5 26 c 128,-1,33
 403 9 403 9 369 -0.5 c 128,-1,34
 335 -10 335 -10 299 -10 c 0,0,1
503 280 m 1,35,36
 500 326 500 326 482.5 364 c 128,-1,37
 465 402 465 402 437.5 429.5 c 128,-1,38
 410 457 410 457 374 472.5 c 128,-1,39
 338 488 338 488 297 488 c 256,40,41
 256 488 256 488 220 472.5 c 128,-1,42
 184 457 184 457 156.5 429.5 c 128,-1,43
 129 402 129 402 112.5 363.5 c 128,-1,44
 96 325 96 325 93 280 c 1,45,-1
 503 280 l 1,35,36
211 730 m 1,46,-1
 268 730 l 1,47,-1
 330 645 l 1,48,-1
 296 629 l 1,49,-1
 211 730 l 1,46,-1
EndSplineSet
EndChar

StartChar: eacute
Encoding: 233 233 172
Width: 583
GlyphClass: 2
Flags: W
LayerCount: 2
Fore
SplineSet
294 629 m 1,0,-1
 259 645 l 1,1,-1
 320 730 l 1,2,-1
 378 730 l 1,3,-1
 294 629 l 1,0,-1
299 -10 m 0,4,5
 244 -10 244 -10 197 11.5 c 128,-1,6
 150 33 150 33 115.5 70.5 c 128,-1,7
 81 108 81 108 61.5 157 c 128,-1,8
 42 206 42 206 42 262 c 0,9,10
 42 317 42 317 61.5 365.5 c 128,-1,11
 81 414 81 414 115 450.5 c 128,-1,12
 149 487 149 487 195.5 508 c 128,-1,13
 242 529 242 529 296 529 c 0,14,15
 351 529 351 529 398 507.5 c 128,-1,16
 445 486 445 486 479 449.5 c 128,-1,17
 513 413 513 413 532 364.5 c 128,-1,18
 551 316 551 316 551 262 c 0,19,20
 551 257 551 257 551 249.5 c 128,-1,21
 551 242 551 242 550 240 c 2,22,-1
 94 240 l 1,23,24
 97 195 97 195 115 156.5 c 128,-1,25
 133 118 133 118 160.5 90 c 128,-1,26
 188 62 188 62 224 46 c 128,-1,27
 260 30 260 30 301 30 c 0,28,29
 328 30 328 30 354 37.5 c 128,-1,30
 380 45 380 45 402.5 58 c 128,-1,31
 425 71 425 71 442.5 89.5 c 128,-1,32
 460 108 460 108 470 130 c 1,33,-1
 514 118 l 1,34,35
 503 90 503 90 481.5 66.5 c 128,-1,36
 460 43 460 43 431.5 26 c 128,-1,37
 403 9 403 9 369 -0.5 c 128,-1,38
 335 -10 335 -10 299 -10 c 0,4,5
503 280 m 1,39,40
 500 326 500 326 482.5 364 c 128,-1,41
 465 402 465 402 437.5 429.5 c 128,-1,42
 410 457 410 457 374 472.5 c 128,-1,43
 338 488 338 488 297 488 c 256,44,45
 256 488 256 488 220 472.5 c 128,-1,46
 184 457 184 457 156.5 429.5 c 128,-1,47
 129 402 129 402 112.5 363.5 c 128,-1,48
 96 325 96 325 93 280 c 1,49,-1
 503 280 l 1,39,40
EndSplineSet
EndChar

StartChar: ecircumflex
Encoding: 234 234 173
Width: 583
GlyphClass: 2
Flags: W
LayerCount: 2
Fore
SplineSet
180 649 m 1,0,-1
 276 730 l 1,1,-1
 313 730 l 1,2,-1
 410 649 l 1,3,-1
 380 632 l 1,4,-1
 295 695 l 1,5,-1
 210 632 l 1,6,-1
 180 649 l 1,0,-1
299 -10 m 0,7,8
 244 -10 244 -10 197 11.5 c 128,-1,9
 150 33 150 33 115.5 70.5 c 128,-1,10
 81 108 81 108 61.5 157 c 128,-1,11
 42 206 42 206 42 262 c 0,12,13
 42 317 42 317 61.5 365.5 c 128,-1,14
 81 414 81 414 115 450.5 c 128,-1,15
 149 487 149 487 195.5 508 c 128,-1,16
 242 529 242 529 296 529 c 0,17,18
 351 529 351 529 398 507.5 c 128,-1,19
 445 486 445 486 479 449.5 c 128,-1,20
 513 413 513 413 532 364.5 c 128,-1,21
 551 316 551 316 551 262 c 0,22,23
 551 257 551 257 551 249.5 c 128,-1,24
 551 242 551 242 550 240 c 2,25,-1
 94 240 l 1,26,27
 97 195 97 195 115 156.5 c 128,-1,28
 133 118 133 118 160.5 90 c 128,-1,29
 188 62 188 62 224 46 c 128,-1,30
 260 30 260 30 301 30 c 0,31,32
 328 30 328 30 354 37.5 c 128,-1,33
 380 45 380 45 402.5 58 c 128,-1,34
 425 71 425 71 442.5 89.5 c 128,-1,35
 460 108 460 108 470 130 c 1,36,-1
 514 118 l 1,37,38
 503 90 503 90 481.5 66.5 c 128,-1,39
 460 43 460 43 431.5 26 c 128,-1,40
 403 9 403 9 369 -0.5 c 128,-1,41
 335 -10 335 -10 299 -10 c 0,7,8
503 280 m 1,42,43
 500 326 500 326 482.5 364 c 128,-1,44
 465 402 465 402 437.5 429.5 c 128,-1,45
 410 457 410 457 374 472.5 c 128,-1,46
 338 488 338 488 297 488 c 256,47,48
 256 488 256 488 220 472.5 c 128,-1,49
 184 457 184 457 156.5 429.5 c 128,-1,50
 129 402 129 402 112.5 363.5 c 128,-1,51
 96 325 96 325 93 280 c 1,52,-1
 503 280 l 1,42,43
EndSplineSet
EndChar

StartChar: edieresis
Encoding: 235 235 174
Width: 583
GlyphClass: 2
Flags: W
LayerCount: 2
Fore
SplineSet
205 640 m 1,0,-1
 205 728 l 1,1,-1
 249 728 l 1,2,-1
 249 640 l 1,3,-1
 205 640 l 1,0,-1
341 640 m 1,4,-1
 341 728 l 1,5,-1
 385 728 l 1,6,-1
 385 640 l 1,7,-1
 341 640 l 1,4,-1
299 -10 m 0,8,9
 244 -10 244 -10 197 11.5 c 128,-1,10
 150 33 150 33 115.5 70.5 c 128,-1,11
 81 108 81 108 61.5 157 c 128,-1,12
 42 206 42 206 42 262 c 0,13,14
 42 317 42 317 61.5 365.5 c 128,-1,15
 81 414 81 414 115 450.5 c 128,-1,16
 149 487 149 487 195.5 508 c 128,-1,17
 242 529 242 529 296 529 c 0,18,19
 351 529 351 529 398 507.5 c 128,-1,20
 445 486 445 486 479 449.5 c 128,-1,21
 513 413 513 413 532 364.5 c 128,-1,22
 551 316 551 316 551 262 c 0,23,24
 551 257 551 257 551 249.5 c 128,-1,25
 551 242 551 242 550 240 c 2,26,-1
 94 240 l 1,27,28
 97 195 97 195 115 156.5 c 128,-1,29
 133 118 133 118 160.5 90 c 128,-1,30
 188 62 188 62 224 46 c 128,-1,31
 260 30 260 30 301 30 c 0,32,33
 328 30 328 30 354 37.5 c 128,-1,34
 380 45 380 45 402.5 58 c 128,-1,35
 425 71 425 71 442.5 89.5 c 128,-1,36
 460 108 460 108 470 130 c 1,37,-1
 514 118 l 1,38,39
 503 90 503 90 481.5 66.5 c 128,-1,40
 460 43 460 43 431.5 26 c 128,-1,41
 403 9 403 9 369 -0.5 c 128,-1,42
 335 -10 335 -10 299 -10 c 0,8,9
503 280 m 1,43,44
 500 326 500 326 482.5 364 c 128,-1,45
 465 402 465 402 437.5 429.5 c 128,-1,46
 410 457 410 457 374 472.5 c 128,-1,47
 338 488 338 488 297 488 c 256,48,49
 256 488 256 488 220 472.5 c 128,-1,50
 184 457 184 457 156.5 429.5 c 128,-1,51
 129 402 129 402 112.5 363.5 c 128,-1,52
 96 325 96 325 93 280 c 1,53,-1
 503 280 l 1,43,44
EndSplineSet
EndChar

StartChar: igrave
Encoding: 236 236 175
Width: 207
GlyphClass: 2
Flags: W
LayerCount: 2
Fore
SplineSet
78 0 m 1,0,-1
 78 520 l 1,1,-1
 128 520 l 1,2,-1
 128 0 l 1,3,-1
 78 0 l 1,0,-1
19 730 m 1,4,-1
 76 730 l 1,5,-1
 138 645 l 1,6,-1
 104 629 l 1,7,-1
 19 730 l 1,4,-1
EndSplineSet
EndChar

StartChar: iacute
Encoding: 237 237 176
Width: 207
GlyphClass: 2
Flags: W
LayerCount: 2
Fore
SplineSet
102 629 m 1,0,-1
 67 645 l 1,1,-1
 128 730 l 1,2,-1
 186 730 l 1,3,-1
 102 629 l 1,0,-1
78 0 m 1,4,-1
 78 520 l 1,5,-1
 128 520 l 1,6,-1
 128 0 l 1,7,-1
 78 0 l 1,4,-1
EndSplineSet
EndChar

StartChar: icircumflex
Encoding: 238 238 177
Width: 207
GlyphClass: 2
Flags: W
LayerCount: 2
Fore
SplineSet
-12 649 m 1,0,-1
 84 730 l 1,1,-1
 121 730 l 1,2,-1
 218 649 l 1,3,-1
 188 632 l 1,4,-1
 103 695 l 1,5,-1
 18 632 l 1,6,-1
 -12 649 l 1,0,-1
78 0 m 1,7,-1
 78 520 l 1,8,-1
 128 520 l 1,9,-1
 128 0 l 1,10,-1
 78 0 l 1,7,-1
EndSplineSet
EndChar

StartChar: idieresis
Encoding: 239 239 178
Width: 207
GlyphClass: 2
Flags: W
LayerCount: 2
Fore
SplineSet
13 640 m 1,0,-1
 13 728 l 1,1,-1
 57 728 l 1,2,-1
 57 640 l 1,3,-1
 13 640 l 1,0,-1
149 640 m 1,4,-1
 149 728 l 1,5,-1
 193 728 l 1,6,-1
 193 640 l 1,7,-1
 149 640 l 1,4,-1
78 0 m 1,8,-1
 78 520 l 1,9,-1
 128 520 l 1,10,-1
 128 0 l 1,11,-1
 78 0 l 1,8,-1
EndSplineSet
EndChar

StartChar: eth
Encoding: 240 240 179
Width: 599
GlyphClass: 2
Flags: W
LayerCount: 2
Fore
SplineSet
486 689 m 1,0,-1
 400 635 l 1,1,2
 446 591 446 591 476 544.5 c 128,-1,3
 506 498 506 498 523 451.5 c 128,-1,4
 540 405 540 405 546.5 358 c 128,-1,5
 553 311 553 311 553 265 c 0,6,7
 553 205 553 205 532.5 155 c 128,-1,8
 512 105 512 105 477 68 c 128,-1,9
 442 31 442 31 395 10.5 c 128,-1,10
 348 -10 348 -10 296 -10 c 256,11,12
 244 -10 244 -10 198 9 c 128,-1,13
 152 28 152 28 118 61 c 128,-1,14
 84 94 84 94 64 138 c 128,-1,15
 44 182 44 182 44 232 c 0,16,17
 44 281 44 281 63.5 325 c 128,-1,18
 83 369 83 369 116.5 402 c 128,-1,19
 150 435 150 435 194.5 454.5 c 128,-1,20
 239 474 239 474 290 474 c 0,21,22
 361 474 361 474 418 439 c 128,-1,23
 475 404 475 404 502 347 c 1,24,25
 493 413 493 413 463 480 c 128,-1,26
 433 547 433 547 362 614 c 1,27,-1
 246 540 l 1,28,-1
 228 565 l 1,29,-1
 340 634 l 1,30,31
 311 658 311 658 277 682 c 128,-1,32
 243 706 243 706 201 730 c 1,33,-1
 272 730 l 1,34,35
 302 712 302 712 328.5 693.5 c 128,-1,36
 355 675 355 675 378 655 c 1,37,-1
 469 713 l 1,38,-1
 486 689 l 1,0,-1
95 231 m 256,39,40
 95 190 95 190 111 154.5 c 128,-1,41
 127 119 127 119 154 92.5 c 128,-1,42
 181 66 181 66 218 50.5 c 128,-1,43
 255 35 255 35 297 35 c 256,44,45
 339 35 339 35 376.5 51.5 c 128,-1,46
 414 68 414 68 442 96.5 c 128,-1,47
 470 125 470 125 486 163 c 128,-1,48
 502 201 502 201 502 243 c 0,49,50
 502 282 502 282 486 316 c 128,-1,51
 470 350 470 350 442 375.5 c 128,-1,52
 414 401 414 401 377.5 416 c 128,-1,53
 341 431 341 431 299 431 c 256,54,55
 257 431 257 431 220 415 c 128,-1,56
 183 399 183 399 155 372 c 128,-1,57
 127 345 127 345 111 308.5 c 128,-1,58
 95 272 95 272 95 231 c 256,39,40
EndSplineSet
EndChar

StartChar: ntilde
Encoding: 241 241 180
Width: 576
GlyphClass: 2
Flags: W
LayerCount: 2
Fore
SplineSet
503 0 m 1,0,-1
 453 0 l 1,1,-1
 453 290 l 2,2,3
 453 391 453 391 424.5 437 c 128,-1,4
 396 483 396 483 334 483 c 0,5,6
 301 483 301 483 268.5 471 c 128,-1,7
 236 459 236 459 208 437 c 128,-1,8
 180 415 180 415 159 385.5 c 128,-1,9
 138 356 138 356 128 322 c 1,10,-1
 128 0 l 1,11,-1
 78 0 l 1,12,-1
 78 520 l 1,13,-1
 125 520 l 1,14,-1
 125 396 l 1,15,16
 141 426 141 426 164.5 450.5 c 128,-1,17
 188 475 188 475 217.5 492.5 c 128,-1,18
 247 510 247 510 280 519.5 c 128,-1,19
 313 529 313 529 348 529 c 0,20,21
 433 529 433 529 468 469.5 c 128,-1,22
 503 410 503 410 503 299 c 2,23,-1
 503 0 l 1,0,-1
351 647 m 0,24,25
 329 647 329 647 312 653 c 128,-1,26
 295 659 295 659 281 666.5 c 128,-1,27
 267 674 267 674 253.5 680.5 c 128,-1,28
 240 687 240 687 225 687 c 0,29,30
 208 687 208 687 198 680 c 128,-1,31
 188 673 188 673 183 664.5 c 128,-1,32
 178 656 178 656 176 648.5 c 128,-1,33
 174 641 174 641 174 639 c 2,34,-1
 140 639 l 1,35,36
 140 643 140 643 143 656.5 c 128,-1,37
 146 670 146 670 155.5 684.5 c 128,-1,38
 165 699 165 699 181.5 710.5 c 128,-1,39
 198 722 198 722 225 722 c 0,40,41
 245 722 245 722 260.5 715.5 c 128,-1,42
 276 709 276 709 290 701.5 c 128,-1,43
 304 694 304 694 318.5 688 c 128,-1,44
 333 682 333 682 352 682 c 0,45,46
 372 682 372 682 383.5 689 c 128,-1,47
 395 696 395 696 400.5 704.5 c 128,-1,48
 406 713 406 713 407.5 720.5 c 128,-1,49
 409 728 409 728 409 730 c 2,50,-1
 443 730 l 1,51,52
 443 725 443 725 439.5 711.5 c 128,-1,53
 436 698 436 698 426.5 684 c 128,-1,54
 417 670 417 670 399 658.5 c 128,-1,55
 381 647 381 647 351 647 c 0,24,25
EndSplineSet
EndChar

StartChar: ograve
Encoding: 242 242 181
Width: 592
GlyphClass: 2
Flags: W
LayerCount: 2
Fore
SplineSet
296 -10 m 0,0,1
 241 -10 241 -10 194.5 11.5 c 128,-1,2
 148 33 148 33 114 70 c 128,-1,3
 80 107 80 107 61 156 c 128,-1,4
 42 205 42 205 42 259 c 0,5,6
 42 314 42 314 61.5 363 c 128,-1,7
 81 412 81 412 115 449 c 128,-1,8
 149 486 149 486 195.5 507.5 c 128,-1,9
 242 529 242 529 296 529 c 256,10,11
 350 529 350 529 396 507.5 c 128,-1,12
 442 486 442 486 476.5 449 c 128,-1,13
 511 412 511 412 530.5 363 c 128,-1,14
 550 314 550 314 550 259 c 0,15,16
 550 205 550 205 530.5 156 c 128,-1,17
 511 107 511 107 477 70 c 128,-1,18
 443 33 443 33 396.5 11.5 c 128,-1,19
 350 -10 350 -10 296 -10 c 0,0,1
92 257 m 256,20,21
 92 211 92 211 108 170.5 c 128,-1,22
 124 130 124 130 151.5 100 c 128,-1,23
 179 70 179 70 216 52.5 c 128,-1,24
 253 35 253 35 295 35 c 256,25,26
 337 35 337 35 374 52.5 c 128,-1,27
 411 70 411 70 439 101 c 128,-1,28
 467 132 467 132 483 172.5 c 128,-1,29
 499 213 499 213 499 260 c 0,30,31
 499 306 499 306 483 346.5 c 128,-1,32
 467 387 467 387 439 417.5 c 128,-1,33
 411 448 411 448 374.5 466 c 128,-1,34
 338 484 338 484 296 484 c 256,35,36
 254 484 254 484 217 466 c 128,-1,37
 180 448 180 448 152.5 417 c 128,-1,38
 125 386 125 386 108.5 344.5 c 128,-1,39
 92 303 92 303 92 257 c 256,20,21
212 730 m 1,40,-1
 269 730 l 1,41,-1
 331 645 l 1,42,-1
 297 629 l 1,43,-1
 212 730 l 1,40,-1
EndSplineSet
EndChar

StartChar: oacute
Encoding: 243 243 182
Width: 592
GlyphClass: 2
Flags: W
LayerCount: 2
Fore
SplineSet
295 629 m 1,0,-1
 260 645 l 1,1,-1
 321 730 l 1,2,-1
 379 730 l 1,3,-1
 295 629 l 1,0,-1
296 -10 m 0,4,5
 241 -10 241 -10 194.5 11.5 c 128,-1,6
 148 33 148 33 114 70 c 128,-1,7
 80 107 80 107 61 156 c 128,-1,8
 42 205 42 205 42 259 c 0,9,10
 42 314 42 314 61.5 363 c 128,-1,11
 81 412 81 412 115 449 c 128,-1,12
 149 486 149 486 195.5 507.5 c 128,-1,13
 242 529 242 529 296 529 c 256,14,15
 350 529 350 529 396 507.5 c 128,-1,16
 442 486 442 486 476.5 449 c 128,-1,17
 511 412 511 412 530.5 363 c 128,-1,18
 550 314 550 314 550 259 c 0,19,20
 550 205 550 205 530.5 156 c 128,-1,21
 511 107 511 107 477 70 c 128,-1,22
 443 33 443 33 396.5 11.5 c 128,-1,23
 350 -10 350 -10 296 -10 c 0,4,5
92 257 m 256,24,25
 92 211 92 211 108 170.5 c 128,-1,26
 124 130 124 130 151.5 100 c 128,-1,27
 179 70 179 70 216 52.5 c 128,-1,28
 253 35 253 35 295 35 c 256,29,30
 337 35 337 35 374 52.5 c 128,-1,31
 411 70 411 70 439 101 c 128,-1,32
 467 132 467 132 483 172.5 c 128,-1,33
 499 213 499 213 499 260 c 0,34,35
 499 306 499 306 483 346.5 c 128,-1,36
 467 387 467 387 439 417.5 c 128,-1,37
 411 448 411 448 374.5 466 c 128,-1,38
 338 484 338 484 296 484 c 256,39,40
 254 484 254 484 217 466 c 128,-1,41
 180 448 180 448 152.5 417 c 128,-1,42
 125 386 125 386 108.5 344.5 c 128,-1,43
 92 303 92 303 92 257 c 256,24,25
EndSplineSet
EndChar

StartChar: ocircumflex
Encoding: 244 244 183
Width: 592
GlyphClass: 2
Flags: W
LayerCount: 2
Fore
SplineSet
181 649 m 1,0,-1
 277 730 l 1,1,-1
 314 730 l 1,2,-1
 411 649 l 1,3,-1
 381 632 l 1,4,-1
 296 695 l 1,5,-1
 211 632 l 1,6,-1
 181 649 l 1,0,-1
296 -10 m 0,7,8
 241 -10 241 -10 194.5 11.5 c 128,-1,9
 148 33 148 33 114 70 c 128,-1,10
 80 107 80 107 61 156 c 128,-1,11
 42 205 42 205 42 259 c 0,12,13
 42 314 42 314 61.5 363 c 128,-1,14
 81 412 81 412 115 449 c 128,-1,15
 149 486 149 486 195.5 507.5 c 128,-1,16
 242 529 242 529 296 529 c 256,17,18
 350 529 350 529 396 507.5 c 128,-1,19
 442 486 442 486 476.5 449 c 128,-1,20
 511 412 511 412 530.5 363 c 128,-1,21
 550 314 550 314 550 259 c 0,22,23
 550 205 550 205 530.5 156 c 128,-1,24
 511 107 511 107 477 70 c 128,-1,25
 443 33 443 33 396.5 11.5 c 128,-1,26
 350 -10 350 -10 296 -10 c 0,7,8
92 257 m 256,27,28
 92 211 92 211 108 170.5 c 128,-1,29
 124 130 124 130 151.5 100 c 128,-1,30
 179 70 179 70 216 52.5 c 128,-1,31
 253 35 253 35 295 35 c 256,32,33
 337 35 337 35 374 52.5 c 128,-1,34
 411 70 411 70 439 101 c 128,-1,35
 467 132 467 132 483 172.5 c 128,-1,36
 499 213 499 213 499 260 c 0,37,38
 499 306 499 306 483 346.5 c 128,-1,39
 467 387 467 387 439 417.5 c 128,-1,40
 411 448 411 448 374.5 466 c 128,-1,41
 338 484 338 484 296 484 c 256,42,43
 254 484 254 484 217 466 c 128,-1,44
 180 448 180 448 152.5 417 c 128,-1,45
 125 386 125 386 108.5 344.5 c 128,-1,46
 92 303 92 303 92 257 c 256,27,28
EndSplineSet
EndChar

StartChar: otilde
Encoding: 245 245 184
Width: 592
GlyphClass: 2
Flags: W
LayerCount: 2
Fore
SplineSet
296 -10 m 0,0,1
 241 -10 241 -10 194.5 11.5 c 128,-1,2
 148 33 148 33 114 70 c 128,-1,3
 80 107 80 107 61 156 c 128,-1,4
 42 205 42 205 42 259 c 0,5,6
 42 314 42 314 61.5 363 c 128,-1,7
 81 412 81 412 115 449 c 128,-1,8
 149 486 149 486 195.5 507.5 c 128,-1,9
 242 529 242 529 296 529 c 256,10,11
 350 529 350 529 396 507.5 c 128,-1,12
 442 486 442 486 476.5 449 c 128,-1,13
 511 412 511 412 530.5 363 c 128,-1,14
 550 314 550 314 550 259 c 0,15,16
 550 205 550 205 530.5 156 c 128,-1,17
 511 107 511 107 477 70 c 128,-1,18
 443 33 443 33 396.5 11.5 c 128,-1,19
 350 -10 350 -10 296 -10 c 0,0,1
92 257 m 256,20,21
 92 211 92 211 108 170.5 c 128,-1,22
 124 130 124 130 151.5 100 c 128,-1,23
 179 70 179 70 216 52.5 c 128,-1,24
 253 35 253 35 295 35 c 256,25,26
 337 35 337 35 374 52.5 c 128,-1,27
 411 70 411 70 439 101 c 128,-1,28
 467 132 467 132 483 172.5 c 128,-1,29
 499 213 499 213 499 260 c 0,30,31
 499 306 499 306 483 346.5 c 128,-1,32
 467 387 467 387 439 417.5 c 128,-1,33
 411 448 411 448 374.5 466 c 128,-1,34
 338 484 338 484 296 484 c 256,35,36
 254 484 254 484 217 466 c 128,-1,37
 180 448 180 448 152.5 417 c 128,-1,38
 125 386 125 386 108.5 344.5 c 128,-1,39
 92 303 92 303 92 257 c 256,20,21
357 647 m 0,40,41
 335 647 335 647 318 653 c 128,-1,42
 301 659 301 659 287 666.5 c 128,-1,43
 273 674 273 674 259.5 680.5 c 128,-1,44
 246 687 246 687 231 687 c 0,45,46
 214 687 214 687 204 680 c 128,-1,47
 194 673 194 673 189 664.5 c 128,-1,48
 184 656 184 656 182 648.5 c 128,-1,49
 180 641 180 641 180 639 c 2,50,-1
 146 639 l 1,51,52
 146 643 146 643 149 656.5 c 128,-1,53
 152 670 152 670 161.5 684.5 c 128,-1,54
 171 699 171 699 187.5 710.5 c 128,-1,55
 204 722 204 722 231 722 c 0,56,57
 251 722 251 722 266.5 715.5 c 128,-1,58
 282 709 282 709 296 701.5 c 128,-1,59
 310 694 310 694 324.5 688 c 128,-1,60
 339 682 339 682 358 682 c 0,61,62
 378 682 378 682 389.5 689 c 128,-1,63
 401 696 401 696 406.5 704.5 c 128,-1,64
 412 713 412 713 413.5 720.5 c 128,-1,65
 415 728 415 728 415 730 c 2,66,-1
 449 730 l 1,67,68
 449 725 449 725 445.5 711.5 c 128,-1,69
 442 698 442 698 432.5 684 c 128,-1,70
 423 670 423 670 405 658.5 c 128,-1,71
 387 647 387 647 357 647 c 0,40,41
EndSplineSet
EndChar

StartChar: odieresis
Encoding: 246 246 185
Width: 592
GlyphClass: 2
Flags: W
LayerCount: 2
Fore
SplineSet
206 640 m 1,0,-1
 206 728 l 1,1,-1
 250 728 l 1,2,-1
 250 640 l 1,3,-1
 206 640 l 1,0,-1
342 640 m 1,4,-1
 342 728 l 1,5,-1
 386 728 l 1,6,-1
 386 640 l 1,7,-1
 342 640 l 1,4,-1
296 -10 m 0,8,9
 241 -10 241 -10 194.5 11.5 c 128,-1,10
 148 33 148 33 114 70 c 128,-1,11
 80 107 80 107 61 156 c 128,-1,12
 42 205 42 205 42 259 c 0,13,14
 42 314 42 314 61.5 363 c 128,-1,15
 81 412 81 412 115 449 c 128,-1,16
 149 486 149 486 195.5 507.5 c 128,-1,17
 242 529 242 529 296 529 c 256,18,19
 350 529 350 529 396 507.5 c 128,-1,20
 442 486 442 486 476.5 449 c 128,-1,21
 511 412 511 412 530.5 363 c 128,-1,22
 550 314 550 314 550 259 c 0,23,24
 550 205 550 205 530.5 156 c 128,-1,25
 511 107 511 107 477 70 c 128,-1,26
 443 33 443 33 396.5 11.5 c 128,-1,27
 350 -10 350 -10 296 -10 c 0,8,9
92 257 m 256,28,29
 92 211 92 211 108 170.5 c 128,-1,30
 124 130 124 130 151.5 100 c 128,-1,31
 179 70 179 70 216 52.5 c 128,-1,32
 253 35 253 35 295 35 c 256,33,34
 337 35 337 35 374 52.5 c 128,-1,35
 411 70 411 70 439 101 c 128,-1,36
 467 132 467 132 483 172.5 c 128,-1,37
 499 213 499 213 499 260 c 0,38,39
 499 306 499 306 483 346.5 c 128,-1,40
 467 387 467 387 439 417.5 c 128,-1,41
 411 448 411 448 374.5 466 c 128,-1,42
 338 484 338 484 296 484 c 256,43,44
 254 484 254 484 217 466 c 128,-1,45
 180 448 180 448 152.5 417 c 128,-1,46
 125 386 125 386 108.5 344.5 c 128,-1,47
 92 303 92 303 92 257 c 256,28,29
EndSplineSet
EndChar

StartChar: divide
Encoding: 247 247 186
Width: 540
GlyphClass: 2
Flags: W
LayerCount: 2
Fore
SplineSet
248 394 m 1,0,-1
 248 475 l 1,1,-1
 292 475 l 1,2,-1
 292 394 l 1,3,-1
 248 394 l 1,0,-1
248 81 m 1,4,-1
 248 161 l 1,5,-1
 292 161 l 1,6,-1
 292 81 l 1,7,-1
 248 81 l 1,4,-1
69 257 m 1,8,-1
 69 300 l 1,9,-1
 472 300 l 1,10,-1
 472 257 l 1,11,-1
 69 257 l 1,8,-1
EndSplineSet
EndChar

StartChar: oslash
Encoding: 248 248 187
Width: 592
GlyphClass: 2
Flags: W
LayerCount: 2
Fore
SplineSet
104 -1 m 1,0,-1
 138 47 l 1,1,2
 93 85 93 85 67.5 140 c 128,-1,3
 42 195 42 195 42 259 c 0,4,5
 42 314 42 314 61.5 363 c 128,-1,6
 81 412 81 412 115 449 c 128,-1,7
 149 486 149 486 195.5 507.5 c 128,-1,8
 242 529 242 529 296 529 c 0,9,10
 332 529 332 529 365 518.5 c 128,-1,11
 398 508 398 508 427 490 c 1,12,-1
 449 521 l 1,13,-1
 489 521 l 1,14,-1
 453 471 l 1,15,16
 498 433 498 433 524 378 c 128,-1,17
 550 323 550 323 550 259 c 0,18,19
 550 205 550 205 530.5 156 c 128,-1,20
 511 107 511 107 477 70 c 128,-1,21
 443 33 443 33 396.5 11.5 c 128,-1,22
 350 -10 350 -10 296 -10 c 0,23,24
 258 -10 258 -10 225.5 0 c 128,-1,25
 193 10 193 10 164 28 c 1,26,-1
 142 -1 l 1,27,-1
 104 -1 l 1,0,-1
92 257 m 0,28,29
 92 204 92 204 112 160 c 128,-1,30
 132 116 132 116 166 85 c 1,31,-1
 401 451 l 1,32,33
 378 467 378 467 351.5 475.5 c 128,-1,34
 325 484 325 484 296 484 c 0,35,36
 254 484 254 484 217 466 c 128,-1,37
 180 448 180 448 152.5 417 c 128,-1,38
 125 386 125 386 108.5 344.5 c 128,-1,39
 92 303 92 303 92 257 c 0,28,29
295 35 m 0,40,41
 337 35 337 35 374 52.5 c 128,-1,42
 411 70 411 70 439 101 c 128,-1,43
 467 132 467 132 483 172.5 c 128,-1,44
 499 213 499 213 499 260 c 0,45,46
 499 311 499 311 479 355.5 c 128,-1,47
 459 400 459 400 425 431 c 1,48,-1
 189 67 l 1,49,50
 236 35 236 35 295 35 c 0,40,41
EndSplineSet
EndChar

StartChar: ugrave
Encoding: 249 249 188
Width: 587
GlyphClass: 2
Flags: W
LayerCount: 2
Fore
SplineSet
239 -10 m 0,0,1
 73 -10 73 -10 73 220 c 2,2,-1
 73 520 l 1,3,-1
 123 520 l 1,4,-1
 123 227 l 2,5,6
 123 35 123 35 254 35 c 0,7,8
 287 35 287 35 318 46.5 c 128,-1,9
 349 58 349 58 376 78.5 c 128,-1,10
 403 99 403 99 423.5 128 c 128,-1,11
 444 157 444 157 456 192 c 1,12,-1
 456 520 l 1,13,-1
 506 520 l 1,14,-1
 506 70 l 2,15,16
 506 45 506 45 527 45 c 1,17,-1
 527 0 l 1,18,19
 522 -1 522 -1 518 -1 c 128,-1,20
 514 -1 514 -1 512 -1 c 0,21,22
 492 -1 492 -1 476.5 11.5 c 128,-1,23
 461 24 461 24 461 45 c 2,24,-1
 461 123 l 1,25,26
 427 60 427 60 367.5 25 c 128,-1,27
 308 -10 308 -10 239 -10 c 0,0,1
204 730 m 1,28,-1
 261 730 l 1,29,-1
 323 645 l 1,30,-1
 289 629 l 1,31,-1
 204 730 l 1,28,-1
EndSplineSet
EndChar

StartChar: uacute
Encoding: 250 250 189
Width: 587
GlyphClass: 2
Flags: W
LayerCount: 2
Fore
SplineSet
286 629 m 1,0,-1
 251 645 l 1,1,-1
 312 730 l 1,2,-1
 370 730 l 1,3,-1
 286 629 l 1,0,-1
239 -10 m 0,4,5
 73 -10 73 -10 73 220 c 2,6,-1
 73 520 l 1,7,-1
 123 520 l 1,8,-1
 123 227 l 2,9,10
 123 35 123 35 254 35 c 0,11,12
 287 35 287 35 318 46.5 c 128,-1,13
 349 58 349 58 376 78.5 c 128,-1,14
 403 99 403 99 423.5 128 c 128,-1,15
 444 157 444 157 456 192 c 1,16,-1
 456 520 l 1,17,-1
 506 520 l 1,18,-1
 506 70 l 2,19,20
 506 45 506 45 527 45 c 1,21,-1
 527 0 l 1,22,23
 522 -1 522 -1 518 -1 c 128,-1,24
 514 -1 514 -1 512 -1 c 0,25,26
 492 -1 492 -1 476.5 11.5 c 128,-1,27
 461 24 461 24 461 45 c 2,28,-1
 461 123 l 1,29,30
 427 60 427 60 367.5 25 c 128,-1,31
 308 -10 308 -10 239 -10 c 0,4,5
EndSplineSet
EndChar

StartChar: ucircumflex
Encoding: 251 251 190
Width: 587
GlyphClass: 2
Flags: W
LayerCount: 2
Fore
SplineSet
172 649 m 1,0,-1
 268 730 l 1,1,-1
 305 730 l 1,2,-1
 402 649 l 1,3,-1
 372 632 l 1,4,-1
 287 695 l 1,5,-1
 202 632 l 1,6,-1
 172 649 l 1,0,-1
239 -10 m 0,7,8
 73 -10 73 -10 73 220 c 2,9,-1
 73 520 l 1,10,-1
 123 520 l 1,11,-1
 123 227 l 2,12,13
 123 35 123 35 254 35 c 0,14,15
 287 35 287 35 318 46.5 c 128,-1,16
 349 58 349 58 376 78.5 c 128,-1,17
 403 99 403 99 423.5 128 c 128,-1,18
 444 157 444 157 456 192 c 1,19,-1
 456 520 l 1,20,-1
 506 520 l 1,21,-1
 506 70 l 2,22,23
 506 45 506 45 527 45 c 1,24,-1
 527 0 l 1,25,26
 522 -1 522 -1 518 -1 c 128,-1,27
 514 -1 514 -1 512 -1 c 0,28,29
 492 -1 492 -1 476.5 11.5 c 128,-1,30
 461 24 461 24 461 45 c 2,31,-1
 461 123 l 1,32,33
 427 60 427 60 367.5 25 c 128,-1,34
 308 -10 308 -10 239 -10 c 0,7,8
EndSplineSet
EndChar

StartChar: udieresis
Encoding: 252 252 191
Width: 587
GlyphClass: 2
Flags: W
LayerCount: 2
Fore
SplineSet
197 640 m 1,0,-1
 197 728 l 1,1,-1
 241 728 l 1,2,-1
 241 640 l 1,3,-1
 197 640 l 1,0,-1
333 640 m 1,4,-1
 333 728 l 1,5,-1
 377 728 l 1,6,-1
 377 640 l 1,7,-1
 333 640 l 1,4,-1
239 -10 m 0,8,9
 73 -10 73 -10 73 220 c 2,10,-1
 73 520 l 1,11,-1
 123 520 l 1,12,-1
 123 227 l 2,13,14
 123 35 123 35 254 35 c 0,15,16
 287 35 287 35 318 46.5 c 128,-1,17
 349 58 349 58 376 78.5 c 128,-1,18
 403 99 403 99 423.5 128 c 128,-1,19
 444 157 444 157 456 192 c 1,20,-1
 456 520 l 1,21,-1
 506 520 l 1,22,-1
 506 70 l 2,23,24
 506 45 506 45 527 45 c 1,25,-1
 527 0 l 1,26,27
 522 -1 522 -1 518 -1 c 128,-1,28
 514 -1 514 -1 512 -1 c 0,29,30
 492 -1 492 -1 476.5 11.5 c 128,-1,31
 461 24 461 24 461 45 c 2,32,-1
 461 123 l 1,33,34
 427 60 427 60 367.5 25 c 128,-1,35
 308 -10 308 -10 239 -10 c 0,8,9
EndSplineSet
EndChar

StartChar: yacute
Encoding: 253 253 192
Width: 540
GlyphClass: 2
Flags: W
LayerCount: 2
Fore
SplineSet
113 -176 m 1,0,1
 118 -177 118 -177 128 -177 c 256,2,3
 138 -177 138 -177 146.5 -176 c 128,-1,4
 155 -175 155 -175 163 -171 c 0,5,6
 169 -168 169 -168 174 -162.5 c 128,-1,7
 179 -157 179 -157 188 -140 c 128,-1,8
 197 -123 197 -123 211 -90 c 128,-1,9
 225 -57 225 -57 249 0 c 1,10,-1
 17 520 l 1,11,-1
 69 520 l 1,12,-1
 276 49 l 1,13,-1
 469 520 l 1,14,-1
 518 520 l 1,15,-1
 233 -164 l 2,16,17
 222 -192 222 -192 197.5 -207.5 c 128,-1,18
 173 -223 173 -223 131 -223 c 0,19,20
 127 -223 127 -223 122.5 -223 c 128,-1,21
 118 -223 118 -223 113 -222 c 1,22,-1
 113 -176 l 1,0,1
275 629 m 1,23,-1
 240 645 l 1,24,-1
 301 730 l 1,25,-1
 359 730 l 1,26,-1
 275 629 l 1,23,-1
EndSplineSet
EndChar

StartChar: thorn
Encoding: 254 254 193
Width: 603
GlyphClass: 2
Flags: W
LayerCount: 2
Fore
SplineSet
562 258 m 0,0,1
 561 204 561 204 541 155 c 128,-1,2
 521 106 521 106 487 68.5 c 128,-1,3
 453 31 453 31 407 8.5 c 128,-1,4
 361 -14 361 -14 308 -14 c 0,5,6
 279 -14 279 -14 252.5 -6 c 128,-1,7
 226 2 226 2 202.5 16 c 128,-1,8
 179 30 179 30 160.5 48 c 128,-1,9
 142 66 142 66 129 87 c 1,10,-1
 129 -213 l 1,11,-1
 78 -213 l 1,12,-1
 78 710 l 1,13,-1
 129 710 l 1,14,-1
 129 421 l 1,15,16
 162 467 162 467 207.5 498.5 c 128,-1,17
 253 530 253 530 317 530 c 0,18,19
 374 530 374 530 419.5 505.5 c 128,-1,20
 465 481 465 481 496.5 442 c 128,-1,21
 528 403 528 403 545 354.5 c 128,-1,22
 562 306 562 306 562 258 c 0,0,1
511 258 m 0,23,24
 511 302 511 302 497 342.5 c 128,-1,25
 483 383 483 383 457 414.5 c 128,-1,26
 431 446 431 446 395 465 c 128,-1,27
 359 484 359 484 315 484 c 0,28,29
 282 484 282 484 254 473 c 128,-1,30
 226 462 226 462 202.5 443.5 c 128,-1,31
 179 425 179 425 160.5 401 c 128,-1,32
 142 377 142 377 129 351 c 1,33,-1
 129 171 l 2,34,35
 129 144 129 144 146.5 119 c 128,-1,36
 164 94 164 94 190.5 75 c 128,-1,37
 217 56 217 56 248.5 44.5 c 128,-1,38
 280 33 280 33 307 33 c 0,39,40
 352 33 352 33 389.5 52 c 128,-1,41
 427 71 427 71 454 102.5 c 128,-1,42
 481 134 481 134 496 174.5 c 128,-1,43
 511 215 511 215 511 258 c 0,23,24
EndSplineSet
EndChar

StartChar: ydieresis
Encoding: 255 255 194
Width: 540
GlyphClass: 2
Flags: W
LayerCount: 2
Fore
SplineSet
113 -176 m 1,0,1
 118 -177 118 -177 128 -177 c 256,2,3
 138 -177 138 -177 146.5 -176 c 128,-1,4
 155 -175 155 -175 163 -171 c 0,5,6
 169 -168 169 -168 174 -162.5 c 128,-1,7
 179 -157 179 -157 188 -140 c 128,-1,8
 197 -123 197 -123 211 -90 c 128,-1,9
 225 -57 225 -57 249 0 c 1,10,-1
 17 520 l 1,11,-1
 69 520 l 1,12,-1
 276 49 l 1,13,-1
 469 520 l 1,14,-1
 518 520 l 1,15,-1
 233 -164 l 2,16,17
 222 -192 222 -192 197.5 -207.5 c 128,-1,18
 173 -223 173 -223 131 -223 c 0,19,20
 127 -223 127 -223 122.5 -223 c 128,-1,21
 118 -223 118 -223 113 -222 c 1,22,-1
 113 -176 l 1,0,1
186 640 m 1,23,-1
 186 728 l 1,24,-1
 230 728 l 1,25,-1
 230 640 l 1,26,-1
 186 640 l 1,23,-1
322 640 m 1,27,-1
 322 728 l 1,28,-1
 366 728 l 1,29,-1
 366 640 l 1,30,-1
 322 640 l 1,27,-1
EndSplineSet
EndChar

StartChar: Amacron
Encoding: 256 256 195
Width: 675
GlyphClass: 2
Flags: W
LayerCount: 2
Fore
SplineSet
316 710 m 1,0,-1
 360 710 l 1,1,-1
 660 0 l 1,2,-1
 606 0 l 1,3,-1
 507 234 l 1,4,-1
 168 234 l 1,5,-1
 69 0 l 1,6,-1
 14 0 l 1,7,-1
 316 710 l 1,0,-1
493 276 m 1,8,-1
 338 648 l 1,9,-1
 180 276 l 1,10,-1
 493 276 l 1,8,-1
196 859 m 1,11,-1
 196 896 l 1,12,-1
 481 896 l 1,13,-1
 481 859 l 1,14,-1
 196 859 l 1,11,-1
EndSplineSet
EndChar

StartChar: amacron
Encoding: 257 257 196
Width: 537
GlyphClass: 2
Flags: W
LayerCount: 2
Fore
SplineSet
206 -10 m 0,0,1
 170 -10 170 -10 139 2.5 c 128,-1,2
 108 15 108 15 84.5 36.5 c 128,-1,3
 61 58 61 58 48 87.5 c 128,-1,4
 35 117 35 117 35 151 c 256,5,6
 35 185 35 185 51 213 c 128,-1,7
 67 241 67 241 95.5 261.5 c 128,-1,8
 124 282 124 282 164 293.5 c 128,-1,9
 204 305 204 305 252 305 c 0,10,11
 294 305 294 305 336.5 297.5 c 128,-1,12
 379 290 379 290 413 277 c 1,13,-1
 413 328 l 2,14,15
 413 402 413 402 371 445.5 c 128,-1,16
 329 489 329 489 257 489 c 0,17,18
 219 489 219 489 176.5 473 c 128,-1,19
 134 457 134 457 90 427 c 1,20,-1
 71 461 l 1,21,22
 171 529 171 529 261 529 c 0,23,24
 355 529 355 529 409 474.5 c 128,-1,25
 463 420 463 420 463 324 c 2,26,-1
 463 70 l 2,27,28
 463 45 463 45 485 45 c 1,29,-1
 485 0 l 1,30,31
 480 -1 480 -1 474.5 -1.5 c 128,-1,32
 469 -2 469 -2 465 -2 c 0,33,34
 445 -2 445 -2 433 11.5 c 128,-1,35
 421 25 421 25 419 44 c 2,36,-1
 419 87 l 1,37,38
 383 40 383 40 327 15 c 128,-1,39
 271 -10 271 -10 206 -10 c 0,0,1
216 30 m 0,40,41
 274 30 274 30 322.5 52 c 128,-1,42
 371 74 371 74 397 110 c 0,43,44
 413 131 413 131 413 150 c 2,45,-1
 413 242 l 1,46,47
 377 256 377 256 338 263 c 128,-1,48
 299 270 299 270 257 270 c 0,49,50
 218 270 218 270 186 261.5 c 128,-1,51
 154 253 154 253 131 238 c 128,-1,52
 108 223 108 223 95.5 201.5 c 128,-1,53
 83 180 83 180 83 154 c 256,54,55
 83 128 83 128 93 105 c 128,-1,56
 103 82 103 82 121 65.5 c 128,-1,57
 139 49 139 49 163.5 39.5 c 128,-1,58
 188 30 188 30 216 30 c 0,40,41
119 672 m 1,59,-1
 119 709 l 1,60,-1
 404 709 l 1,61,-1
 404 672 l 1,62,-1
 119 672 l 1,59,-1
EndSplineSet
EndChar

StartChar: Abreve
Encoding: 258 258 197
Width: 675
GlyphClass: 2
Flags: W
LayerCount: 2
Fore
SplineSet
316 710 m 1,0,-1
 360 710 l 1,1,-1
 660 0 l 1,2,-1
 606 0 l 1,3,-1
 507 234 l 1,4,-1
 168 234 l 1,5,-1
 69 0 l 1,6,-1
 14 0 l 1,7,-1
 316 710 l 1,0,-1
493 276 m 1,8,-1
 338 648 l 1,9,-1
 180 276 l 1,10,-1
 493 276 l 1,8,-1
338 853 m 0,11,12
 358 853 358 853 374.5 871.5 c 128,-1,13
 391 890 391 890 394 917 c 1,14,-1
 427 917 l 1,15,16
 427 898 427 898 420 881 c 128,-1,17
 413 864 413 864 400.5 851.5 c 128,-1,18
 388 839 388 839 372 832 c 128,-1,19
 356 825 356 825 338 825 c 256,20,21
 320 825 320 825 303.5 832 c 128,-1,22
 287 839 287 839 275 851.5 c 128,-1,23
 263 864 263 864 256 881 c 128,-1,24
 249 898 249 898 249 917 c 1,25,-1
 282 917 l 1,26,27
 282 892 282 892 299 872.5 c 128,-1,28
 316 853 316 853 338 853 c 0,11,12
EndSplineSet
EndChar

StartChar: abreve
Encoding: 259 259 198
Width: 537
GlyphClass: 2
Flags: W
LayerCount: 2
Fore
SplineSet
206 -10 m 0,0,1
 170 -10 170 -10 139 2.5 c 128,-1,2
 108 15 108 15 84.5 36.5 c 128,-1,3
 61 58 61 58 48 87.5 c 128,-1,4
 35 117 35 117 35 151 c 256,5,6
 35 185 35 185 51 213 c 128,-1,7
 67 241 67 241 95.5 261.5 c 128,-1,8
 124 282 124 282 164 293.5 c 128,-1,9
 204 305 204 305 252 305 c 0,10,11
 294 305 294 305 336.5 297.5 c 128,-1,12
 379 290 379 290 413 277 c 1,13,-1
 413 328 l 2,14,15
 413 402 413 402 371 445.5 c 128,-1,16
 329 489 329 489 257 489 c 0,17,18
 219 489 219 489 176.5 473 c 128,-1,19
 134 457 134 457 90 427 c 1,20,-1
 71 461 l 1,21,22
 171 529 171 529 261 529 c 0,23,24
 355 529 355 529 409 474.5 c 128,-1,25
 463 420 463 420 463 324 c 2,26,-1
 463 70 l 2,27,28
 463 45 463 45 485 45 c 1,29,-1
 485 0 l 1,30,31
 480 -1 480 -1 474.5 -1.5 c 128,-1,32
 469 -2 469 -2 465 -2 c 0,33,34
 445 -2 445 -2 433 11.5 c 128,-1,35
 421 25 421 25 419 44 c 2,36,-1
 419 87 l 1,37,38
 383 40 383 40 327 15 c 128,-1,39
 271 -10 271 -10 206 -10 c 0,0,1
216 30 m 0,40,41
 274 30 274 30 322.5 52 c 128,-1,42
 371 74 371 74 397 110 c 0,43,44
 413 131 413 131 413 150 c 2,45,-1
 413 242 l 1,46,47
 377 256 377 256 338 263 c 128,-1,48
 299 270 299 270 257 270 c 0,49,50
 218 270 218 270 186 261.5 c 128,-1,51
 154 253 154 253 131 238 c 128,-1,52
 108 223 108 223 95.5 201.5 c 128,-1,53
 83 180 83 180 83 154 c 256,54,55
 83 128 83 128 93 105 c 128,-1,56
 103 82 103 82 121 65.5 c 128,-1,57
 139 49 139 49 163.5 39.5 c 128,-1,58
 188 30 188 30 216 30 c 0,40,41
261 666 m 0,59,60
 281 666 281 666 297.5 684.5 c 128,-1,61
 314 703 314 703 317 730 c 1,62,-1
 350 730 l 1,63,64
 350 711 350 711 343 694 c 128,-1,65
 336 677 336 677 323.5 664.5 c 128,-1,66
 311 652 311 652 295 645 c 128,-1,67
 279 638 279 638 261 638 c 256,68,69
 243 638 243 638 226.5 645 c 128,-1,70
 210 652 210 652 198 664.5 c 128,-1,71
 186 677 186 677 179 694 c 128,-1,72
 172 711 172 711 172 730 c 1,73,-1
 205 730 l 1,74,75
 205 705 205 705 222 685.5 c 128,-1,76
 239 666 239 666 261 666 c 0,59,60
EndSplineSet
EndChar

StartChar: Aogonek
Encoding: 260 260 199
Width: 674
GlyphClass: 2
Flags: W
LayerCount: 2
Fore
SplineSet
610 -169 m 1,0,1
 578 -162 578 -162 560.5 -144 c 128,-1,2
 543 -126 543 -126 543 -101 c 256,3,4
 543 -76 543 -76 560.5 -51.5 c 128,-1,5
 578 -27 578 -27 616 0 c 1,6,-1
 605 0 l 1,7,-1
 506 234 l 1,8,-1
 167 234 l 1,9,-1
 68 0 l 1,10,-1
 13 0 l 1,11,-1
 315 710 l 1,12,-1
 359 710 l 1,13,-1
 659 0 l 1,14,15
 614 -29 614 -29 595.5 -50 c 128,-1,16
 577 -71 577 -71 577 -94 c 0,17,18
 577 -132 577 -132 626 -139 c 1,19,-1
 610 -169 l 1,0,1
492 276 m 1,20,-1
 337 648 l 1,21,-1
 179 276 l 1,22,-1
 492 276 l 1,20,-1
EndSplineSet
EndChar

StartChar: aogonek
Encoding: 261 261 200
Width: 537
GlyphClass: 2
Flags: W
LayerCount: 2
Fore
SplineSet
436 -169 m 1,0,1
 404 -162 404 -162 386.5 -144 c 128,-1,2
 369 -126 369 -126 369 -101 c 0,3,4
 369 -75 369 -75 387 -50.5 c 128,-1,5
 405 -26 405 -26 445 2 c 1,6,7
 434 7 434 7 427 18.5 c 128,-1,8
 420 30 420 30 419 44 c 2,9,-1
 419 87 l 1,10,11
 383 40 383 40 327 15 c 128,-1,12
 271 -10 271 -10 206 -10 c 0,13,14
 170 -10 170 -10 139 2.5 c 128,-1,15
 108 15 108 15 84.5 36.5 c 128,-1,16
 61 58 61 58 48 87.5 c 128,-1,17
 35 117 35 117 35 151 c 256,18,19
 35 185 35 185 51 213 c 128,-1,20
 67 241 67 241 95.5 261.5 c 128,-1,21
 124 282 124 282 164 293.5 c 128,-1,22
 204 305 204 305 252 305 c 0,23,24
 294 305 294 305 336.5 297.5 c 128,-1,25
 379 290 379 290 413 277 c 1,26,-1
 413 328 l 2,27,28
 413 402 413 402 371 445.5 c 128,-1,29
 329 489 329 489 257 489 c 0,30,31
 219 489 219 489 176.5 473 c 128,-1,32
 134 457 134 457 90 427 c 1,33,-1
 71 461 l 1,34,35
 171 529 171 529 261 529 c 0,36,37
 355 529 355 529 409 474.5 c 128,-1,38
 463 420 463 420 463 324 c 2,39,-1
 463 70 l 2,40,41
 463 45 463 45 485 45 c 1,42,-1
 485 0 l 1,43,44
 440 -29 440 -29 421.5 -50 c 128,-1,45
 403 -71 403 -71 403 -94 c 0,46,47
 403 -132 403 -132 452 -139 c 1,48,-1
 436 -169 l 1,0,1
216 30 m 0,49,50
 274 30 274 30 322.5 52 c 128,-1,51
 371 74 371 74 397 110 c 0,52,53
 413 131 413 131 413 150 c 2,54,-1
 413 242 l 1,55,56
 377 256 377 256 338 263 c 128,-1,57
 299 270 299 270 257 270 c 0,58,59
 218 270 218 270 186 261.5 c 128,-1,60
 154 253 154 253 131 238 c 128,-1,61
 108 223 108 223 95.5 201.5 c 128,-1,62
 83 180 83 180 83 154 c 256,63,64
 83 128 83 128 93 105 c 128,-1,65
 103 82 103 82 121 65.5 c 128,-1,66
 139 49 139 49 163.5 39.5 c 128,-1,67
 188 30 188 30 216 30 c 0,49,50
EndSplineSet
EndChar

StartChar: Cacute
Encoding: 262 262 201
Width: 690
GlyphClass: 2
Flags: W
LayerCount: 2
Fore
SplineSet
378 816 m 1,0,-1
 343 832 l 1,1,-1
 404 917 l 1,2,-1
 462 917 l 1,3,-1
 378 816 l 1,0,-1
44 360 m 0,4,5
 44 424 44 424 66.5 487.5 c 128,-1,6
 89 551 89 551 132 601 c 128,-1,7
 175 651 175 651 237.5 682.5 c 128,-1,8
 300 714 300 714 380 714 c 0,9,10
 475 714 475 714 542 670.5 c 128,-1,11
 609 627 609 627 642 559 c 1,12,-1
 600 535 l 1,13,14
 581 572 581 572 555.5 597 c 128,-1,15
 530 622 530 622 500.5 637.5 c 128,-1,16
 471 653 471 653 439 660 c 128,-1,17
 407 667 407 667 376 667 c 0,18,19
 308 667 308 667 256 639.5 c 128,-1,20
 204 612 204 612 168 568 c 128,-1,21
 132 524 132 524 113.5 468.5 c 128,-1,22
 95 413 95 413 95 357 c 0,23,24
 95 294 95 294 117 237 c 128,-1,25
 139 180 139 180 177 136.5 c 128,-1,26
 215 93 215 93 267 67 c 128,-1,27
 319 41 319 41 379 41 c 0,28,29
 411 41 411 41 445 49 c 128,-1,30
 479 57 479 57 510 74 c 128,-1,31
 541 91 541 91 568 117.5 c 128,-1,32
 595 144 595 144 613 180 c 1,33,-1
 657 159 l 1,34,35
 639 119 639 119 608 88 c 128,-1,36
 577 57 577 57 539 36 c 128,-1,37
 501 15 501 15 458.5 4.5 c 128,-1,38
 416 -6 416 -6 375 -6 c 0,39,40
 302 -6 302 -6 241.5 26 c 128,-1,41
 181 58 181 58 137 109.5 c 128,-1,42
 93 161 93 161 68.5 226.5 c 128,-1,43
 44 292 44 292 44 360 c 0,4,5
EndSplineSet
EndChar

StartChar: cacute
Encoding: 263 263 202
Width: 545
GlyphClass: 2
Flags: W
LayerCount: 2
Fore
SplineSet
295 629 m 1,0,-1
 260 645 l 1,1,-1
 321 730 l 1,2,-1
 379 730 l 1,3,-1
 295 629 l 1,0,-1
42 262 m 0,4,5
 42 317 42 317 61 366 c 128,-1,6
 80 415 80 415 114 451 c 128,-1,7
 148 487 148 487 195 508 c 128,-1,8
 242 529 242 529 298 529 c 0,9,10
 369 529 369 529 423 497 c 128,-1,11
 477 465 477 465 504 408 c 1,12,-1
 455 392 l 1,13,14
 432 435 432 435 389.5 459.5 c 128,-1,15
 347 484 347 484 296 484 c 0,16,17
 253 484 253 484 216 467 c 128,-1,18
 179 450 179 450 151.5 420 c 128,-1,19
 124 390 124 390 108 349.5 c 128,-1,20
 92 309 92 309 92 262 c 256,21,22
 92 215 92 215 108.5 173.5 c 128,-1,23
 125 132 125 132 152.5 101.5 c 128,-1,24
 180 71 180 71 217.5 53 c 128,-1,25
 255 35 255 35 297 35 c 0,26,27
 324 35 324 35 350.5 43 c 128,-1,28
 377 51 377 51 399.5 64 c 128,-1,29
 422 77 422 77 438.5 94.5 c 128,-1,30
 455 112 455 112 461 131 c 1,31,-1
 510 117 l 1,32,33
 500 90 500 90 479.5 66.5 c 128,-1,34
 459 43 459 43 431 26 c 128,-1,35
 403 9 403 9 369 -0.5 c 128,-1,36
 335 -10 335 -10 299 -10 c 0,37,38
 244 -10 244 -10 197 11.5 c 128,-1,39
 150 33 150 33 115.5 70.5 c 128,-1,40
 81 108 81 108 61.5 157 c 128,-1,41
 42 206 42 206 42 262 c 0,4,5
EndSplineSet
EndChar

StartChar: Ccircumflex
Encoding: 264 264 203
Width: 690
GlyphClass: 2
Flags: W
LayerCount: 2
Fore
SplineSet
264 836 m 1,0,-1
 360 917 l 1,1,-1
 397 917 l 1,2,-1
 494 836 l 1,3,-1
 464 819 l 1,4,-1
 379 882 l 1,5,-1
 294 819 l 1,6,-1
 264 836 l 1,0,-1
44 360 m 0,7,8
 44 424 44 424 66.5 487.5 c 128,-1,9
 89 551 89 551 132 601 c 128,-1,10
 175 651 175 651 237.5 682.5 c 128,-1,11
 300 714 300 714 380 714 c 0,12,13
 475 714 475 714 542 670.5 c 128,-1,14
 609 627 609 627 642 559 c 1,15,-1
 600 535 l 1,16,17
 581 572 581 572 555.5 597 c 128,-1,18
 530 622 530 622 500.5 637.5 c 128,-1,19
 471 653 471 653 439 660 c 128,-1,20
 407 667 407 667 376 667 c 0,21,22
 308 667 308 667 256 639.5 c 128,-1,23
 204 612 204 612 168 568 c 128,-1,24
 132 524 132 524 113.5 468.5 c 128,-1,25
 95 413 95 413 95 357 c 0,26,27
 95 294 95 294 117 237 c 128,-1,28
 139 180 139 180 177 136.5 c 128,-1,29
 215 93 215 93 267 67 c 128,-1,30
 319 41 319 41 379 41 c 0,31,32
 411 41 411 41 445 49 c 128,-1,33
 479 57 479 57 510 74 c 128,-1,34
 541 91 541 91 568 117.5 c 128,-1,35
 595 144 595 144 613 180 c 1,36,-1
 657 159 l 1,37,38
 639 119 639 119 608 88 c 128,-1,39
 577 57 577 57 539 36 c 128,-1,40
 501 15 501 15 458.5 4.5 c 128,-1,41
 416 -6 416 -6 375 -6 c 0,42,43
 302 -6 302 -6 241.5 26 c 128,-1,44
 181 58 181 58 137 109.5 c 128,-1,45
 93 161 93 161 68.5 226.5 c 128,-1,46
 44 292 44 292 44 360 c 0,7,8
EndSplineSet
EndChar

